<?xml version="1.0" encoding="UTF-8"?>
<svg id="Layer_2" data-name="Layer 2" xmlns="http://www.w3.org/2000/svg" version="1.1" viewBox="0 0 2500 2500">
  <defs>
    <style>
      .cls-1 {
        fill: #363636;
      }

      .cls-1, .cls-2 {
        stroke-width: 0px;
      }

      .cls-2 {
        fill: #fff;
      }
    </style>
  </defs>
  <path class="cls-1" d="M1974.4,1908.3H525.6c-147.7,0-236.8-163.6-156.6-287.7L1093.4,500.5c73.5-113.6,239.6-113.6,313.1,0l724.4,1120.1c80.2,124.1-8.8,287.7-156.6,287.7Z"/>
  <path class="cls-2" d="M1250,1511.5c13.3,0,26.7.6,40.3,1.7,3.4.3,6.9.6,10.5,1,19.2,1.9,34.4,18.7,36,39.8,0,.1,0,.2,0,.4.8,11.1,1,21.6.6,31.7-.4,10-1.5,20.3-3.2,31.1,0,.3,0,.6-.1.8-3.1,19.4-17.9,34.1-35.7,35.8-3.6.3-7.2.7-10.7.9-12.7,1-25.2,1.5-37.5,1.5s-24.9-.5-37.5-1.5c-3.5-.3-7.1-.6-10.7-.9-17.9-1.7-32.6-16.3-35.7-35.8,0-.3,0-.5-.1-.8-1.7-10.8-2.8-21.1-3.2-31.1-.4-10-.3-20.6.6-31.7,0-.1,0-.2,0-.3,1.6-21.1,16.8-37.9,36-39.8,3.5-.4,7-.7,10.5-1,13.6-1.1,27-1.7,40.3-1.7ZM1138.7,942.5c-1.4-23.8,14.7-44.3,36.3-46.5,6.9-.7,13.8-1.2,20.5-1.5,19.2-.9,37.4-1.4,54.5-1.4s35,.5,53.8,1.4c7.1.4,14.3.9,21.7,1.7,21.3,2.2,37.1,22.9,35.7,46.4l-27,448.2c-1.3,21.1-16,38.2-35.1,40.5-4.3.5-8.4,1-12.3,1.3-13,1.2-25.3,1.8-36.8,1.8s-30-1.1-49-3.4c-19.2-2.3-34-19.4-35.3-40.6l-27-448Z"/>
</svg>