<?xml version="1.0" encoding="utf-8"?>
<!-- Generator: Adobe Illustrator 28.3.0, SVG Export Plug-In . SVG Version: 6.00 Build 0)  -->
<svg version="1.1" id="Layer_1" xmlns="http://www.w3.org/2000/svg" xmlns:xlink="http://www.w3.org/1999/xlink" x="0px" y="0px"
	 viewBox="0 0 200 200" style="enable-background:new 0 0 200 200;" xml:space="preserve">
<style type="text/css">
	.st0{opacity:0.9;}
	.st1{fill:url(#SVGID_1_);}
	.st2{fill:url(#SVGID_00000178199431918239086440000005328021695281279911_);}
	.st3{fill:url(#SVGID_00000087411125252896785340000001676969368362681514_);}
	.st4{fill:url(#SVGID_00000002367935925005609170000007382456540694509214_);}
	.st5{fill:url(#SVGID_00000122678702508803721040000006803029283301307794_);}
	.st6{fill:url(#SVGID_00000076580161511817417880000006681982573648238468_);}
</style>
<g class="st0">
	<g transform="translate(0.000000,1278.000000) scale(0.100000,-0.100000)">
		<radialGradient id="SVGID_1_" cx="991.4302" cy="12235.8291" r="51.4546" gradientUnits="userSpaceOnUse">
			<stop  offset="0.1114" style="stop-color:#5E5657"/>
			<stop  offset="1" style="stop-color:#231F20"/>
		</radialGradient>
		<path class="st1" d="M690.4,12118c81.3,62.7,177.6,96.7,281.3,99.3c19.2,0.5,76.7-4.3,95.1-7.9c34.4-6.8,62.7-15.2,92-27.1
			c117.8-47.7,210.9-142.5,258.7-257.5c33.8,7.2,67.5,15.5,101.2,25.3c20.5,5.1,46.3,15.6,70.6,31.2c-5.7,1.7-7.7,3.6-10.8,7.1
			c-5.1,5.5-25,49.8-25.4,56.7c-0.3,3.4,0.5,7.6,1.7,10.5c1.2,2.7,22.8,35.1,48.1,72c44,64,46,67.2,46.4,73.2
			c0.1,3.4-0.4,7.6-1.2,9.5c-1.4,3.3-99.9,118.6-105.6,123.6c-1.8,1.6-5.5,3-9.9,3.6l-7.2,1l-73.7-34.8
			c-40.5-19.1-76.1-35.4-78.9-36.2c-8.9-2.5-14.5-0.2-37.1,14.5c-22.8,14.8-25.2,16.9-28.4,24.3c-2.9,6.5-2.8,4.9,0.1,95.1
			c2.4,74.6,2.4,77.2,0,83c-4,9.8,5,6.4-121.7,45.5c-21.4,6.5-40.1,12-41.6,12.1c-1.5,0-4.5-0.6-6.7-1.3c-2.1-0.9-5.5-2.9-7.4-4.8
			c-1.9-1.9-21.5-32.4-43.6-67.9c-22.1-35.4-42.2-67.3-44.7-70.8c-7.4-10.2-6.9-10.1-42.2-9.1l-31.2,0.7l-6.5,3.7
			c-6.5,3.7-7.2,4.8-47.9,72.7c-22.8,37.9-42.6,70.7-44.1,73c-3.3,5.2-9.6,8.7-16.1,9.2c-5.4,0.4-151.2-37.7-156.3-40.8
			c-7.7-4.7-9.6-10.6-9.4-29.2c0.6-37.5,1.5-113.1,1.7-130.5l0.2-19.4l-4.1-6.9c-4-6.7-5.3-7.8-31.2-23.3
			c-14.9-8.9-29.1-16.7-31.5-17.3c-10.5-2.3-11.8-1.9-90.8,37.1c-81.1,40.1-78.8,39-88.9,35.2c-4.9-2-106.3-112.3-108.6-118.3
			c-1.2-3.6-1.4-6-0.6-9.7c0.8-3.2,17.3-29.4,46.1-73c38.9-59.1,45-69,45.9-74.5c1.2-8.3,1.2-8.3-17.7-46.3
			c-10-20.2-15.3-30-20.1-35.3c55.9-14.5,112-28.1,168.2-40.3C588.1,12017.8,634.3,12074.6,690.4,12118z"/>
		
			<radialGradient id="SVGID_00000075146450600392074650000005739440521540326309_" cx="982.6886" cy="11465.5615" r="68.43" gradientUnits="userSpaceOnUse">
			<stop  offset="6.145412e-02" style="stop-color:#5E5657"/>
			<stop  offset="1" style="stop-color:#231F20"/>
		</radialGradient>
		<path style="fill:url(#SVGID_00000075146450600392074650000005739440521540326309_);" d="M1589.3,11981.2
			c-24.3-15.7-50.1-26.1-70.6-31.2c-33.7-9.7-67.4-18.1-101.2-25.3c15.3-36.7,26-75.4,31.4-115.3c4.8-36.2,5.3-53.4,2.6-94.9
			c-2.4-39.1-3.7-48.7-10.9-79.7c-33.9-145.9-138.7-269.2-277.9-326.9c-52.7-21.9-97.8-32.2-160.1-36.6c-19.5-1.4-89.8,3.8-111,7.9
			c-109.3,22.3-202.2,76.5-272,158.9c-99.8,117.8-135.5,273.4-97.5,424.5c8,31.6,19.6,62.5,34.4,92
			c-56.2,12.3-112.3,25.8-168.2,40.3c-3.3-3.6-6.3-5.1-10.4-6.3c-3-0.8-41.4-5.6-85.7-10.6c-84.2-9.4-84.6-9.5-90.7-16.7
			c-7.1-8.4-33.4-158.4-28.3-161.9c0.7-0.6,36-16.3,78.4-35.1s78.7-35.3,80.8-36.7c8-5.3,9.5-10.9,14.4-53.3
			c2.5-21.6,4.3-41.8,4.1-45.2c-0.3-3.9-1.7-8.1-3.7-11.3c-2.1-3.5-22.5-20.9-66-56.3c-34.7-28.1-64.2-52.9-65.7-54.8
			c-1.8-2.5-2.8-5.8-2.9-10.1c-0.4-5.8,2.3-12.4,27.6-70.7c15.5-35.4,29.6-66,31.4-68.2c1.6-2,5.4-4.5,8.3-5.5
			c4.8-1.7,11-1,85.2,10.7c83.7,13.2,86.6,13.4,95.6,8.5c4.8-2.7,59.4-67.1,62.5-73.7c4.2-9.1,3.8-11.7-12.4-61
			c-37.3-113.7-36.5-111.2-35.2-116.8c0.6-2.8,2.4-6.6,3.7-8.5c1.4-1.9,29.3-20.8,62-42.1c53.8-35.1,60-38.8,65.2-39.1
			c3.4-0.2,7.5,0.5,9.7,1.6c2.2,1.2,30.9,26.1,63.8,55.5c33,29.4,62,54.3,64.7,55.4c9.5,4.3,12,3.9,57.5-9.5
			c23.5-6.9,44.1-13.4,45.7-14.7c8.3-6.2,8.8-7.4,30.3-89.9c20.3-77.7,21-79.8,25.5-84.4c2.6-2.7,6.6-5.2,9.4-5.9
			c11.3-2.9,83.2-3.1,129.2-0.3c20.9,1.3,25.4,3.1,29.6,12.4c1.3,3,12.1,40,23.9,82.3c14.2,50.5,22.5,78.3,24.2,80.7
			c5.4,7.5,9.2,9.1,48.7,21.2c42.5,13.2,47.9,13.9,56.8,8.4c2.2-1.4,29.7-26.2,61-55.1c31.4-28.9,58.7-53.6,60.7-55.1
			c2.7-1.8,5.5-2.5,10.4-2.5c6.5,0,7.9,0.9,45.9,25.9c77.2,50.8,84.5,55.8,87.1,59c1.5,1.7,3.2,5.9,3.7,9.3c1,5.5-1,13-23.2,84.9
			c-13.4,43.4-24.4,80.9-24.5,83.3c-0.7,8.8,2.6,14,24.6,40.4c11.8,14,22.8,26.9,24.4,28.3c4.7,4.6,12.5,7.4,19.6,6.8
			c3.4-0.2,40.9-6.5,83.1-14l76.6-13.4l5.6,2c3,1.2,6.5,3.1,7.9,4.4c1.9,1.9,53.8,117.3,62.6,139.2c3.3,8,2,15.1-4,22.1
			c-2.3,2.8-32.1,28.5-66,57c-61,51.3-61.7,51.9-64.4,59.1l-2.7,7.1l3.3,27c4.4,35.3,4.7,36.9,9.8,43.4c4.1,5.2,7.2,6.6,80.1,37.4
			c41.8,17.6,76.9,32.8,78.1,33.6c2.9,2.2,7.5,10.3,7.7,13.7c0.3,5.3-22.6,155.7-24.3,159.7c-1,2.2-3.7,5.4-6.2,7.4"/>
	</g>
</g>
<linearGradient id="SVGID_00000169543399047552572760000008237641611525967287_" gradientUnits="userSpaceOnUse" x1="96.6429" y1="97.76" x2="151.1521" y2="97.76">
	<stop  offset="0.3845" style="stop-color:#B44848"/>
	<stop  offset="0.8855" style="stop-color:#59272B"/>
</linearGradient>
<polygon style="fill:url(#SVGID_00000169543399047552572760000008237641611525967287_);" points="104.9,21.5 103.2,142.3 156.7,174 
	"/>
<linearGradient id="SVGID_00000007418829885812682560000002759719476516114107_" gradientUnits="userSpaceOnUse" x1="39" y1="97.685" x2="93.6" y2="97.685">
	<stop  offset="0.3019" style="stop-color:#B44848"/>
	<stop  offset="1" style="stop-color:#853232"/>
</linearGradient>
<polyline style="fill:url(#SVGID_00000007418829885812682560000002759719476516114107_);" points="93.6,21.9 93.2,142.7 39,173.5 
	"/>
<linearGradient id="SVGID_00000110458841456955367110000007939295914768263837_" gradientUnits="userSpaceOnUse" x1="8.69" y1="90.96" x2="69.31" y2="90.96">
	<stop  offset="0.6259" style="stop-color:#B44848"/>
	<stop  offset="1" style="stop-color:#853232"/>
</linearGradient>
<polygon style="fill:url(#SVGID_00000110458841456955367110000007939295914768263837_);" points="8.7,71.1 69.3,73.1 56,110.8 "/>
<linearGradient id="SVGID_00000129179388232253485790000015156041203360888470_" gradientUnits="userSpaceOnUse" x1="128.5671" y1="90.96" x2="189.1671" y2="90.96">
	<stop  offset="0.3019" style="stop-color:#B44848"/>
	<stop  offset="0.6983" style="stop-color:#853232"/>
</linearGradient>
<polyline style="fill:url(#SVGID_00000129179388232253485790000015156041203360888470_);" points="142.2,111 189.2,70.9 128.6,73.4 
	"/>
</svg>
