<?xml version="1.0" encoding="utf-8"?>
<!-- Generator: Adobe Illustrator 28.3.0, SVG Export Plug-In . SVG Version: 6.00 Build 0)  -->
<svg version="1.1" id="Layer_1" xmlns="http://www.w3.org/2000/svg" xmlns:xlink="http://www.w3.org/1999/xlink" x="0px" y="0px"
	 viewBox="0 0 1000 1000" style="enable-background:new 0 0 1000 1000;" xml:space="preserve">
<style type="text/css">
	.st0{fill:#C6C6C5;}
</style>
<path class="st0" d="M988.4,459c0.1-6.2-1.9-8.7-7.7-10.4c-30.9-9.4-61.6-19.3-92.4-29.1c-4.2-1.3-7.7-2.4-9-8.1
	c-9.7-41-26.6-79.2-48.6-115.1c-2.9-4.8-2.7-8.4-0.4-13.1c14.2-29.4,28-59,42.3-88.3c2.6-5.4,2.6-8.5-1.9-12.9
	c-19.4-18.8-38.5-37.9-57.3-57.3c-4.3-4.4-7.6-4.9-13-2.2c-29.3,14.3-58.9,28.1-88.3,42.3c-4.7,2.3-8.1,2.8-12.9-0.2
	c-33.5-20.7-69.8-34.6-108-43.4c-6.8-1.6-9.2-4.8-11.1-10.7c-9.4-30.3-19.2-60.4-28.5-90.7c-1.8-5.9-3.9-8.5-10.9-8.4
	c-27,0.5-54,0.5-81,0c-7.1-0.1-9.5,2.4-11.7,8.7c-10.8,30.8-22.3,61.3-33.4,92c-1.4,4-2.6,7.2-7.7,8.4c-39.6,9.3-75.7,26.9-110,48.3
	c-4.9,3.1-8.7,3.3-13.9,0.8c-29.6-14.4-59.5-28.3-89.1-42.8c-4.8-2.3-7.6-2-11.5,1.6c-19.1,18.2-38.4,36.2-58,53.8
	c-4.5,4.1-4.6,7.1-2.1,12.1c14.2,29.4,27.9,59,42.3,88.3c2.7,5.6,2.4,9.5-0.8,14.6c-16.4,26.6-28.1,55.3-37.2,85.1
	c-3,9.9-2.1,22.6-9.3,29.2c-7.1,6.6-18.9,8.3-28.7,11.7c-25.7,8.8-50.8,19.5-76.9,27.1c0,33.1,0,66.1,0,99.2c30,9.1,58.7,22,88.7,31
	c14.2,4.2,20.5,11.7,24,25.9c8.3,34,22.7,65.8,39.8,96.3c3,5.3,3,9.3,0.3,14.7c-14.2,29-27.8,58.4-42,87.4
	c-2.9,5.8-2.2,9.3,2.5,13.8c19,18.3,37.6,37,56,55.9c4.7,4.8,8.2,5.8,14.5,2.7c29-14.3,58.4-27.7,87.4-41.9
	c5.2-2.5,8.8-2.6,13.7,0.4c34.4,21.3,70.3,39,110,48.5c2.6,0.6,5.5,0.9,6.7,4.4c12,33.3,26,65.9,37.1,99.6c33.1,0,66.1,0,99.2,0
	c11-35,24.9-69,36.9-103.7c1.2-3.5,3.8-4.5,7.1-5.4c11.9-3.4,23.6-7.4,35.5-10.6c5.9-1.6,7.9-2.5,2.4-7.8
	c-22.9-22.5-45.6-45.2-68.1-68.1c-3.4-3.5-6.5-4.6-11.6-3.7c-39.3,6.7-78.5,5.8-117.3-3.3C278.8,749.4,181.2,600.5,212.6,444
	c40-199.5,262.8-299.9,439.5-194.5c99.6,59.4,152.8,170.8,136.6,284c-0.6,4.4,0.6,7,3.5,9.9c12,11.8,23.9,23.8,35.8,35.7
	c12.6,12.6,25.3,25.1,37.7,37.8c3.6,3.7,5.9,5.5,7.8-1.2c2.4-8.5,6.5-16.7,6.7-25.7c0.2-6,3.1-7.9,8.2-9.5
	c30.9-9.6,61.6-19.5,92.5-29.1c5.7-1.8,7.7-4.3,7.6-10.5C988,513.7,988,486.4,988.4,459z"/>
<path class="st0" d="M699.5,624.6c-28.8-30.8-56.4-60.1-87.3-93.1c-3.4-3.6-4.2-6.3-2.1-11.1c19.6-44.5,18.4-88.7-3.2-132.1
	c-31.4-63.1-102.5-98.3-168.6-83.8c-5.8,1.3-6.5,2.2-2.2,6.7c20.8,21.9,41.2,44.2,62.1,66c30,31.4,30.8,81.6-3.4,111.9
	c-30.9,27.4-78.4,26.7-106.9-3.3c-21.3-22.4-43.5-44.1-65.2-66.2c-3.6-3.7-4.5-3.1-6,1.6c-3.5,11.5-5.3,23.2-6,37.1
	c0.1,4.4,0,10.8,0.6,17.1c9.8,90.2,99.5,164,200.8,132.4c5.5-1.7,8.5-0.9,12.3,3.2c29.9,32,59.6,62.8,89.4,94L699.5,624.6z"/>
<path class="st0" d="M12.2,547.3c0,6.2,2,8.6,7.8,10.3c31,9,61.9,18.5,92.8,27.9c4.2,1.3,7.7,2.3,9.1,8
	c10.3,40.9,27.6,78.8,50.1,114.4c3,4.7,2.8,8.3,0.6,13.1c-13.8,29.6-27.2,59.3-41.2,88.8c-2.6,5.4-2.5,8.6,2,12.9
	c19.6,18.6,39,37.4,58,56.6c4.4,4.4,7.7,4.8,13.1,2.1c29.2-14.6,58.5-28.8,87.7-43.4c4.6-2.3,8.1-2.9,12.9,0
	c33.7,20.2,70.2,33.7,108.5,42c6.9,1.5,9.3,4.7,11.2,10.5c9.8,30.1,20,60.1,29.7,90.3c1.9,5.9,4.1,8.4,11,8.2c27-0.9,54-1.2,81-1.1
	c7.1,0,9.5-2.6,11.6-8.8c10.4-30.9,21.5-61.6,32.2-92.4c1.4-4,2.5-7.2,7.6-8.5c39.5-9.8,75.3-27.9,109.4-49.7
	c4.9-3.1,8.7-3.4,13.9-1c29.8,14,59.8,27.6,89.6,41.6c4.8,2.3,7.7,1.9,11.5-1.8c18.9-18.4,37.9-36.7,57.3-54.6
	c4.5-4.1,4.5-7.1,2-12.1c-14.6-29.2-28.7-58.6-43.4-87.7c-2.8-5.5-2.5-9.5,0.6-14.6c16.1-26.8,27.4-55.6,36.1-85.6
	c2.9-10,1.8-22.6,8.9-29.4c7-6.7,18.8-8.6,28.6-12c25.6-9.1,50.5-20.2,76.6-28.1c-0.4-33.1-0.9-66.1-1.3-99.2
	c-30.1-8.7-59-21.2-89-29.8c-14.2-4.1-20.7-11.4-24.3-25.5c-8.7-33.9-23.6-65.5-41.1-95.8c-3-5.3-3.1-9.3-0.5-14.7
	c13.8-29.2,27-58.7,40.9-87.9c2.8-5.9,2.1-9.3-2.7-13.8c-19.2-18.1-38.1-36.5-56.7-55.2c-4.7-4.7-8.3-5.7-14.6-2.5
	c-28.8,14.6-58,28.5-86.8,43.1c-5.1,2.6-8.8,2.7-13.7-0.3c-34.6-20.9-70.8-38.1-110.6-47.1c-2.6-0.6-5.5-0.8-6.8-4.3
	c-12.5-33.2-26.9-65.6-38.4-99.1c-33.1,0.4-66.1,0.9-99.2,1.3c-10.5,35.2-24,69.3-35.5,104.2c-1.2,3.5-3.7,4.5-7,5.5
	c-11.8,3.5-23.5,7.7-35.4,11c-5.8,1.6-7.8,2.6-2.3,7.8c23.2,22.2,46.1,44.7,69,67.2c3.5,3.4,6.5,4.5,11.7,3.6
	c39.2-7.2,78.4-6.8,117.4,1.8c156,34.4,255.5,182.1,226.2,339c-37.4,200-258.9,303.2-436.9,200.1c-100.4-58.1-155-168.8-140.2-282.2
	c0.6-4.4-0.7-7-3.7-9.9c-12.2-11.6-24.2-23.5-36.2-35.2c-12.7-12.4-25.6-24.7-38.2-37.3c-3.6-3.6-5.9-5.4-7.7,1.3
	c-2.3,8.6-6.3,16.8-6.4,25.7c-0.1,6-3,8-8.1,9.6c-30.7,10-61.3,20.3-92.1,30.2c-5.7,1.8-7.6,4.4-7.4,10.6
	C11.9,492.6,12.2,520,12.2,547.3z"/>
</svg>
