<?xml version="1.0" encoding="utf-8"?>
<!-- Generator: Adobe Illustrator 28.3.0, SVG Export Plug-In . SVG Version: 6.00 Build 0)  -->
<svg version="1.1" id="Layer_1" xmlns="http://www.w3.org/2000/svg" xmlns:xlink="http://www.w3.org/1999/xlink" x="0px" y="0px"
	 viewBox="0 0 4000 4000" style="enable-background:new 0 0 4000 4000;" xml:space="preserve">
<style type="text/css">
	.st0{fill:#800101;}
	.st1{fill:#FD0000;}
</style>
<path class="st0" d="M974.3,1115.8c84.4-94.6,178.6-179.6,267.6-269.8c25.7-26,56.7-25.8,84.1-1c12.3,11.1,23.6,23.3,35.4,34.9
	c206.6,205,413.4,409.9,619.5,615.5c14.2,14.2,20.8,12.9,34.2-0.5c216.8-216.1,434.1-431.6,651.4-647.2c38.3-38,64.6-38.1,102.8-0.3
	c76.2,75.5,152.4,151.1,228.5,226.7c37.1,36.8,37.2,63.8,0.4,100.4c-318,315.7-636,631.3-954.1,946.9c-33.2,32.9-62.9,33.1-96.3,0
	c-316.4-313.9-632.7-627.9-949.4-941.5c-9.6-9.5-13.1-22.9-24-31C974.3,1137.8,974.3,1126.8,974.3,1115.8z M1997.6,2015.5
	c4.2-3.9,9-7.9,13.4-12.3c289.4-287.2,578.6-574.5,868.4-861.3c14.8-14.6,12.5-22-1.1-35c-47.2-45.3-93.9-91.2-139.2-138.4
	c-15.9-16.5-24.4-18.5-42.1-0.8c-214.2,214.1-429.3,427.1-644.3,640.5c-5.6,5.6-10.9,11.5-17,16.5c-22.5,18.6-45.2,19.9-69.3,3.3
	c-9-6.2-17.3-13.7-25.1-21.4c-212.2-210.5-424.5-420.9-636-632c-16.4-16.3-25.6-15.8-41.1,0.4c-46,47.6-93,94.4-141.1,139.9
	c-16.1,15.3-14.8,23.4,0.3,38.4c198,195.6,395.4,391.9,593,588.1c87.9,87.2,175.7,174.5,263.7,261.6
	C1985,2007.8,1988.7,2014.5,1997.6,2015.5z"/>
<path class="st0" d="M974.4,2147.9c84.6-90,174.6-174.7,261.6-262.2c34.4-34.6,62.4-34.4,97.5,0.5
	c215.1,213.3,430.1,426.6,645,640.1c6.1,6.1,10.9,13.5,19.3,24c8.3-10.4,13.1-17.8,19.2-23.9c216.6-215.1,433.3-430.2,649.9-645.2
	c36.9-36.6,65-36.9,101.4-0.8c77.3,76.6,154.6,153.3,231.8,230c33.7,33.4,34.1,62.3,0.8,95.4c-319.6,317.3-639.5,634.5-958.9,952
	c-10.9,10.9-24.5,15.7-37,23.2c-9.5,0-19,0-28.5,0c-11.4-10.4-23.2-20.3-34.2-31.2c-305.5-302.9-610.8-605.9-916.2-909
	c-18.8-18.6-39.2-35.9-51.8-59.9C974.4,2169.9,974.4,2158.9,974.4,2147.9z M2892.8,2156.3c-3.7-4.2-7.6-9-12-13.4
	c-48.1-47.9-97-94.9-143.9-143.8c-15.6-16.3-23.7-14.1-38.5,0.6c-215.6,215-432.4,428.8-647.4,644.4c-34.3,34.4-69.8,36.4-106.9-0.8
	c-212.2-212.8-426.1-423.8-639-636c-14.7-14.6-23.3-17.6-39.3-1c-47,48.9-95.3,96.5-144.3,143.4c-14.6,13.9-13.1,21.4,0.6,35
	c285.9,283,571.4,566.4,856.4,850.3c14.3,14.2,21.6,13,35.2-0.6c166.3-166.1,333.3-331.5,500.1-497.1
	c121.5-120.6,243-241.2,364.3-361.8C2883.4,2170,2890.7,2165.9,2892.8,2156.3z"/>
<path class="st1" d="M1997.6,2015.5c-9-1-12.7-7.7-17.5-12.5c-88-87.1-175.8-174.4-263.7-261.6c-197.5-196.1-394.9-392.4-593-588.1
	c-15.1-15-16.5-23.1-0.3-38.4c48.1-45.5,95.1-92.3,141.1-139.9c15.6-16.1,24.8-16.7,41.1-0.4c211.6,211.1,423.8,421.5,636,632
	c7.8,7.7,16,15.2,25.1,21.4c24.1,16.5,46.8,15.3,69.3-3.3c6.1-5,11.4-10.9,17-16.5c214.9-213.3,430.1-426.4,644.3-640.5
	c17.7-17.7,26.3-15.7,42.1,0.8c45.3,47.2,92,93.1,139.2,138.4c13.5,13,15.8,20.3,1.1,35c-289.8,286.8-579,574.1-868.4,861.3
	C2006.6,2007.6,2001.9,2011.6,1997.6,2015.5z"/>
<path class="st1" d="M2892.8,2156.3c-2.1,9.6-9.3,13.8-14.8,19.2c-121.4,120.7-242.9,241.3-364.3,361.8
	c-166.8,165.6-333.8,331-500.1,497.1c-13.6,13.6-20.9,14.7-35.2,0.6c-285.1-283.8-570.5-567.2-856.4-850.3
	c-13.7-13.5-15.2-21-0.6-35c49-46.9,97.4-94.5,144.3-143.4c16-16.6,24.6-13.7,39.3,1c212.9,212.1,426.8,423.2,639,636
	c37.1,37.2,72.6,35.2,106.9,0.8c215-215.5,431.8-429.4,647.4-644.4c14.8-14.8,22.9-16.9,38.5-0.6c46.9,48.9,95.9,96,143.9,143.8
	C2885.1,2147.2,2889,2152.1,2892.8,2156.3z"/>
</svg>
