<?xml version="1.0" encoding="utf-8"?>
<!-- Generator: Adobe Illustrator 28.3.0, SVG Export Plug-In . SVG Version: 6.00 Build 0)  -->
<svg version="1.1" id="Layer_1" xmlns="http://www.w3.org/2000/svg" xmlns:xlink="http://www.w3.org/1999/xlink" x="0px" y="0px"
	 viewBox="0 0 1000 1000" style="enable-background:new 0 0 1000 1000;" xml:space="preserve">
<style type="text/css">
	.st0{fill:#C6C6C5;}
</style>
<path class="st0" d="M731.6,857.9c-0.7,0.3-1.4,0.6-2.1,0.9c-1.4,0.8-2.7,1.7-4.1,2.5c-0.9,0.5-1.7,1-2.6,1.4
	c-1.2,0.7-2.5,1.4-3.7,2.1c-4.1,2.1-8.2,4.2-12.2,6.3c-1.4,0.7-2.8,1.3-4.2,2c-1.3,0.7-2.7,1.4-4,2.1c-5.5,0.4-12.2-1.8-14.4,6.2
	c-1.8,0.7-3.5,1.5-5.3,2.2c-13.7-1.3-26.4,0.3-35.7,12.1l-0.4,0.4c0,0-0.6-0.2-0.6-0.2c-18.7,0.6-37.4,1.2-56.1,1.7
	c-7.7,0.2-18.1-1.8-10.3,11.9c-6.2,0.7-12.4,1.3-18.5,2c-0.7-0.3-1.3-0.3-1.9,0.1c-7.1,0.3-14.2,0.5-21.3,0.8
	c-9.3-2.8-18.7-9.3-27.9,0.3c-6.1-0.4-12.3-0.7-18.4-1.1c-1.4-2.1-2.7-2.2-4.1,0c-5.5-0.6-10.9-1.2-16.4-1.7
	c-2.5-0.6-4.9-1.1-7.4-1.7c-1.6,0-3.2,0-4.9,0c-3.3-5.1-7.6-4.4-12.3-2.2c-1.4-0.1-2.7-0.2-4.1-0.3c-0.7-2.8-3-4.1-4.9-6
	c-10.8-11.1-23.4-2.1-35-3.7c-1.7-0.4-3.4-0.8-5.2-1.3c-3.3-6.7-7.3-10.7-15.7-13.3c-7.3-2.2-14.6-5-22.4-6
	c-4.8-0.6-4.6-3.5-3.6-7.4c2.7-11.8,14.9-10.3,21.8-16.1l0.1,0.1c2.1,10.3,10.1,5.9,16.1,6.6l-0.1,0c3.2,11.4,29.4,19.3,40.7,12.3
	c2,0.4,4,0.8,6,1.2c3.8,4,8.7,3,13.4,3c1.7,0.2,3.4,0.3,5,0.5c4,7.6,12.1,5.3,18.3,7.7c4.9,1.9,9.2,0.3,10.6-4.4
	c1.6-5.3-2.8-6.7-7.1-7.4c-14.2-19.1-19.5-44.7-42.2-57.9c-2.9-1.7-9.5-5.7-4.2-12.3c1.9-2.3-1.1-3.7-2.8-4.2
	c-16.1-4.6-29-16.7-44.4-21c-19.1-5.3-37-13.7-56.1-18.5c-4.4-1.1-7.8-3.6-11.1-6.8c-16.7-16.2-28.1-36.3-41.1-55.2
	c-3.2-4.7-5.7-10.4,1.9-14.6c7.5-4.1,7.7-11.8,7-18.8c-0.8-8.2,3.5-10.3,9.9-13.8c14.3-7.8,31.5-6.3,45.3-17.8
	c7.3-6.1,22.5-13,33.9-0.4c1,6.8-1.2,20.8,10.1,14c11.8-7.1,22.9-4.9,34.3-6.6c6.4,0.9,12.7,1.8,19.1,2.7c-1,9.6,8.9,14.5,10.2,22.9
	c1.8,11.9,8.3,14.4,18.8,10.9c2.4,0.1,4.9,0,5.8,3c0.1,4-0.2,8,0.5,11.9c0.9,5.2,3.5,7.3,7.8,2.3l0,0c5.7-0.4,11.3,4.5,17.1,0.2
	c-0.3,2-1.4,2.6-3.3,1.8c1.6-0.6,3.2-1.3,4.9-1.9c0.7-0.7,1.5-1.4,2.2-2.1c4.9-1.4,10.1-0.9,14.9-1.6c15.3-2.1,29.3,8.5,44.8,3.5
	c4.7-1.5,7.6,3,9.3,7.6c1,2.7,0.3,6.8,4.7,7.8c1-4-1.3-8.7,3.4-11.2c0.5,0.3,0.7,0.8,0.6,1.3c0.6,6.6,1.5,12.8,10.8,10.2
	c0.4,0.1,0.6,0.3,0.5,0.8c-0.7,7.7,0.4,13.9,10.5,12.3c0.5,0.1,0.8,0.4,0.9,1c-2.7,2.8-7.2,5.6,0.7,7.6c3.1,0.8,6,2.4,9.1,3.6
	c0,0,0,0,0,0c0.7,2.7,1.5,5.5,2.2,8.2c0.6,0.6,1.2,1.2,1.9,1.8c1.3,7,4.4,12,12.7,10.5c1.9,0.5,3.7,1.1,5.6,1.6
	c4.1,11,13.6,5,20.7,6.6c1.3,0.8,2.6,1.5,3.9,2.3c2.3,3.7,4.5,7.5,6.8,11.2c1.9,3.1,3.4,6.8-0.2,9.1c-6.2,4.1-12.6,8.5-19.5,10.6
	c-10.4,3.2-17.3,11.8-21.4,19.2c-6.7,12.3-1.6,28.7-12.3,41.6c-5.6,6.7,0.7,14.7,9.6,17.5c9.1,2.9,25.7-4.8,28.7-13.1l0.7-0.4l0.8,0
	c14.5,3.4,30.4-9.1,44.1,4c0.7,0.7,2.7,0.4,4,0.2c1.5-0.3,3.9-0.8,4.3-1.8c1.1-2.5-1.5-3.7-3.3-4.1c-8.2-2-10.2-8-10.5-15.3l0,0
	c9.3,0.3,19.2,1.9,21.3-11.3c2.4-1.5,4.9-2.9,7.3-4.4c4,0,7.2-1.1,8.4-5.4c1.5-1,3-2,4.6-3c1,2.9,1.7,5.9,2.9,8.7
	c1.3,2.9,5.6,2.4,4.9,0.7c-3.4-8.8,7.4-12.1,6.5-19.5c0.7-0.6,1.3-1.2,2-1.7c7.6,0,14.2-1,13.7-11l0.7,0.5l-0.7-0.5
	c8.6-3.5,23.2,5.3,25.1-12.1c15.4-2.3,12.8-13.8,12.3-24.1c0,0,0,0.2,0,0.2c0.7-0.9,1.4-1.9,2.2-2.8c0,0,0.3,0.5,0.3,0.5
	s-0.5,0.3-0.5,0.3c0.8-1.2,1.6-2.3,2.4-3.5c0,0,0-0.8,0-0.8l0.8-0.3c5.4-0.3,7.2-3.6,7.1-8.5c1.4-1.8,2.8-3.7,4.2-5.5
	c7.1-0.1,8.6-4.6,8.1-10.6l-0.1,0.1c2.9,0.1,5.7,0.2,9.4,0.9c0.3,0.2-0.3-0.2-0.8-0.6c0.2,0.3,0.3,0.6,0.5,0.9
	c0.2,0.3,0.5,0.5,0.7,0.7c0.2-0.2,0.3-0.3-0.3-1.1c-0.7-5.2-0.7-9.8-0.6-14.4l0.2-0.4c7.1,0.4,10.9-3.2,13.8-9.6
	c4.6-10.2,8.6-21.3,15.8-29.5c7.3-8.4,7.3-15.1,2.4-23.6c0.7-1.8,1.4-3.5,2-5.3c6.2-2.3,16.2-0.1,14.1-12.1
	c-1.2-6.9-2.4-13.8-3.6-20.7c-0.1-0.6,0-1.2,0.3-1.8c7.1-7,9.5-15.1,5.8-24.6c0.1-1.4,0.1-2.7,0.2-4.1c0.6-3.1,1.2-6.3,1.8-9.4
	c0.1-1,0.2-1.9,0.3-2.9c4.3-2.4,5.3-6.4,6.5-10.9c3.8-13.9-2.8-26.7-3.7-40.1c-2.4-0.8-4.7-1.6-7.1-2.4c-6.5-11.6-10.3,1.8-15.7,1.8
	c-14.6-0.1-14.3,10.6-14.2,20.7c0,3.7,1,7.4,1.5,11.1c-0.2,1.2-0.4,2.3-0.6,3.5c-0.5,1.2-1,2.3-1.5,3.5c0,2.2-0.1,4.5-0.1,6.7
	c0,0.7,0,1.4-0.1,2.1c-0.1,1.4-0.2,2.8-0.4,4.1c-0.5,2.2-1,4.4-1.5,6.7c-2.3,6.6-4.5,13.3-6.8,19.9c-8.4,4.4-5.6,12.5-5.6,19.2
	c0.1,14.3-5.8,22.7-20.5,23.8c-1.5-1.3-3.1-2.6-4.6-3.9c2.9-1.9,7.4-0.8,9.8-4.8c-4.1-3.1-11.6-1.5-11.8-9.3c-0.1-3-1.2-6.9-4.8-6.8
	c-5.2,0.1-4.6,4.9-5,8.5c-0.9,2-1.7,4-2.6,6.1c-3.3,0-6.5,0-9.8,0c-10.8,0.5-20,4.5-28.9,10.9c-9,6.5-19.9,10.6-28.5,17.6
	c-5.5,4.5-12.2-6.7-15.6,2.8c-7.3,5.3-15.8,6.8-24,4.6c-6.7-1.8-14.4-8.5-18.4,0.5c-4.2,9.5,7.7,10,12.5,12.1
	c7.8,3.3,17.6,12.3,25.6-0.7c2.9-4.6,6.1-9.1,5.7-14.9c6.4-1.6,3.5,10.1,10.9,7.6c4.3-1.4,10.3-4.4,12.9,0.9
	c2.3,4.8-2.8,9.2-5.5,13.3c-1.3,2-3.4,3.7-3.8,5.9c-4.1,21-23,29.2-36.4,42.2c-3.3-0.6-5.9-4.7-11.8-1.5c2.8,2,4.9,3.6,7,5.1
	c0,0.5-0.3,0.7-0.7,0.6c-3.8,0.1-6.5,1.6-7.4,5.5c-1.2,0.8-2.4,1.6-3.7,2.4c-1.3-0.2-3.8-0.3-3.8-0.7c-2.5-13.4-7.9-5.9-13.8-2.6
	c-6.5,3.6-10.7-2.9-12.4-6.9c-3.3-7.5-10.8-10.1-18.2-4.4c-0.7,0-1.2-0.3-1.5-1c0.1-2.9,0.9-6.1,0.1-8.8c-1.2-4-3.2-4.1-4.2,0.4
	c-1.9-1.7-3.9-3.3-5.8-5c-5.1-11-10-22-23.8-24.4c-0.3-0.6-0.6-1.2-0.9-1.8c-0.7-9.2,4.7-16.7,6.9-25.1c1.6-6,1.4-10-5.2-11.8
	l0.2,0.3c-0.2-0.8-0.5-1.6-0.7-2.4c-2.9-3.2-5.8,0.7-8.7,0c-5.2,0-10.5,0.1-15.7,0.1c-1.5,0-2.9,0-4.4,0
	c-10.4-2.9-19.6-6.9-19.7-19.9c2.8-0.3,5.6-0.7,8.4-1c4.2,0,7.5-1.4,8.4-6.1c1.6-0.3,3.1-0.6,4.7-0.8c12.5,1.2,25,2.6,36.2-5.2
	c1.5-0.2,3-0.5,4.5-0.7c4.4,0.1,9.9,2.3,9.8-5.5l0,0c0.1-1.4,0.1-2.7,0.2-4.1c-2.9-2.7-4.2-6.8-8.9-7.8c-10-2.2-21.5-3.9-13.2-19.1
	c0.1-0.2-0.7-0.9-1.4-1.8c-5.7,4.3-14.5,5.3-13,15.7c0.4,2.5-2.4,4.2-4.8,4.5c-3.2,0.4-3.5-2.3-3.9-4.7c-1.3-7.5-9.4-7.3-11.5-5
	c-7.1,8-17,18.7-13.3,28.1c6.6,16.6-7.3,7.6-10.6,11c-1-0.2-2.1-0.5-3.1-0.7c-10,0.2-12.6,5.5-8.8,13.9c1.5,3.4,1.1,5.4-1.8,6.5
	c-2.7,1.1-3.7,6.8-7.1,3.9c-7-5.8-15.8-11.8-15.4-21.7c0.3-8.5-3-13.1-8.8-17.9c-4.1-3.4-7.5-7.7-10.9-11.9
	c-2.1-2.6-6.2-14.2-13.3-3.3c-0.8,3.3,0.5,5.9,2.6,8.2l-0.1-0.3c-1.5,4.2-3.1,8.5-4.6,12.7c-5.6-3.8-8.1-9.8-11.2-15.5
	c-1.4-2.7-2.8-6.5-6.2-6.1c-15.5,1.8-31.4,2-45.1,11.1c-2.2,1.5-4.9,3.3-5.8,5.6c-3.3,8.5-10.3,9.2-17.5,8.8
	c-22.9-1.3-31-15.7-20.8-36.2c9.1-18.4,9.1-18.4,26.5-7.1c2.3,1.5,4.5,3.2,7,4.2c3.6,1.6,8.7-0.2,8.8-2.7c0-8.7,5.3-18.1-2.4-26.1
	c-1.3-1.3-4-2.7-1.9-4.7c1-1,3.8-0.6,5.6-0.1c8.2,2,15.5,0.6,23.2-3c12-5.5,22.9-14.3,37.1-14.3c2.1,0,4.3,0,6.4,0
	c10.5,1.4,21.1,0.8,31.4,1.7c9.7,0.8,13.1-0.2,13.5-9.8c0.2-3.9,0-9.3,6.1-10.1c2.2-0.3,5.1,7.6,6.7-0.7c1.2-6.3-3.7-5.4-7.7-5.7
	c7.1-7.1,7.1-7.1,16.6-8.7c3.1-0.5,7.4-1.3,6.9-4.5c-0.7-4.4-4.8-2.1-7.6-1.3c-17.4,5.1-18.8,4.2-19.4-13.8
	c-0.2-6.8,5.4-10.5,8.7-15.4c1.4-2.1,5.3-2.5,4.2-6.1c-0.3-1.1-1.9-2.4-2.9-2.4c-3.4-0.1-6.1,1.9-7.1,4.9
	c-2.4,7.4-8.3,12.4-12.5,18.5c-3.1,4.4-5.2,8.5-1.1,13.8c2.5,3.2-8.4,28.3-12.4,28.7c-4.5,0.4-10.5,2.8-11.6-5.6
	c-0.5-3.9-3.2-7.3-2.9-11.7c0.4-6.2-2-8.3-7.9-4.6c-4,2.5-10,4.1-10.7-2c-1.1-10.5-5-23.1,9.5-28.7c13.3-5.2,24.3-14.1,28.6-27.1
	c5.8-17.2,20.6-19,33.6-24.6c2.6-1.1,5.8-2.2,7.5,0.4c4.8,7.6,13.6,7.5,20.2,11.5c5.3,3.2,15.1,3.7,12.6,13.2
	c-2.2,8.4-10.4,2.9-15.8,4.4c-0.5,0.2-0.9,0.7-2,1.5c6.3,2.9,2,15.1,13.4,14.2c0.4-2.9-9.9-9.3,2.3-7.1c1,0.2,3.1-1,3.1-1.1
	c-2.5-8.8,5.9-10.8,9.6-15.8c0.8-0.8,1.7-1.7,2.5-2.5c1.2-0.5,3.2-0.8,3.4-1.5c1.7-9,5.5-15.6,14.2-20.5c3.2-1.8,11.8-3.8,9.8-9.7
	c-2.5-7.5,2.5-6.2,5.8-7.2c3.6-1.1,8,1.6,12.8-4c-16.4,1.5-15-11.3-19-19.9c-0.5-1.2-0.1-3.2,0.6-4.5c0.8-1.4,2.7-2.7,4.3-1.1
	c8.5,8.2,17.2,16.2,25.1,25c2.8,3.2,1,7.4-2.6,10.6c-5.1,4.4-6.1,9.8-2.7,18.9c2.6-7.3-1.3-13.4,3.1-15.5c11.9-5.6,7.2-13.2,3.7-21
	c2.3-0.9,6.4,0.1,5.9-3.8c-0.5-3.3-3.8-4.3-7.2-3.7c-11.5,4.2-15-0.9-15-11.8c0.1-16.9-11.6-31.7-8.8-49.2c0.2-1.5-1.3-4-2.7-5
	c-12-8,6.8-10.1,3.1-16.5c4-0.9,7.9-2.1,11.5,1.1c2.5,2.2,5.2,4.3,7.8,6.4l-0.3-0.2c0.7,0.8,1.4,1.6,2.2,2.4c0.5-0.7,1.1-1.3,1.6-2
	c4.6-5.3,4.3-10.8,0.9-16.5c0.1-1.4,0.1-2.8,0.2-4.3c0.5-3.4,0.9-6.9,1.4-10.3l0,0c2.4-0.9,3.7-2.7,4.3-5.2c3.3-1.7,1.7-3.4,0-5.1
	c-0.1-5.6-0.5-10.9-7.8-11.6c-1.5-0.3-3-0.6-4.5-0.9c-0.1-5,0.2-10.1-0.2-15.1c-1.3-14.5-11.6-29-20.5-29.2l0,0
	c0.6-9.1-4.5-12.3-12.8-13.6c-12.4-2-19.3-11.7-14.9-19.7c1,0,2,0,3,0.1c16.7,0,33.5,0,50.2-0.1c1.2,0.8,2.4,1.5,3.6,2.3
	c0.1,2.8,0.1,5.6,0.2,8.4c3.1,4.1,12.9-1.7,12.1,8.2c0,1.3,0,2.6,0,3.9c5.1,9.3,13.8,8.9,22.5,8.2c0,0,0,0,0,0
	c0.8-0.2,1.7-0.3,2.5-0.5l-0.4-0.1c0.7,0.9,1.4,1.7,2.1,2.6c1.4,1.7,2.9,3.4,4.3,5.1c0.5,5.3,0.3,11.5,8.7,7.3
	c0.2,0.2,0.5,0.4,0.5,0.5c0,0.4-0.2,0.8-0.3,1.2c0.9,0.8,1.9,1.5,2.8,2.3l0.1,0.2c0.5,0.6,0.9,1.1,1.4,1.7c0.3,0.6,0.5,1.2,0.8,1.8
	c0.7,0.8,1.4,1.6,2.2,2.3l-0.2-0.2c0.8,1.1,1.6,2.1,2.3,3.2c6.7,0.8,11,5.8,16.1,9.2c1.2,5.9,5.7,6.2,10.4,6.1
	c4,0.6,5.6-1.6,3.3-4.4c-4.1-5-1.8-10.2-1.7-15.4c-0.6-5.7,0.2-12.2-8.3-12.7l-0.4-0.5c0.1-5.7-3.3-7.6-8.4-7.5
	c-0.7-0.2-1.3-0.4-2-0.6c1-5.4,2-10.7,2.9-16.1c8.3,0,16.7,0.4,24.9-2.2c2,1.4,3.9,2.7,5.9,4.1c-1.1,7.7,4.7,5.6,8.7,6
	c1.2,0.9,2.4,1.9,3.5,2.8c0.8,3.5,3.1,5.1,6.5,5.4c40.6,30.8,73,68.8,97.8,113.2c0.6,6.5-1,14.2,8.6,15.7c0,0-0.1-0.1-0.1-0.1
	c-1.1,9.1,0.9,16.7,10.1,20.8c0.8,1.8,1.5,3.6,2.3,5.4c-1.8,4.3-1.9,7.8,3.8,8.9c0,0,0,0,0,0c-0.2,7.9-0.6,15.9,7.7,20.6
	c0.5,0.5,0.7,1.1,0.5,1.8c-1,9.5,4.1,19.4,2.1,27.5c-2.7,11,0.3,14.2,9.7,15.7c0.1,1.6,0.3,3.2,0.4,4.9c0.5,1.1,1,2.2,1.5,3.3
	c0.2,2,0.4,4.1,0.7,6.1c-1.6,2.5-1.2,4.6,1.4,6.2c0.2,1.6,0.4,3.3,0.6,4.9c0.6,3.8,1.2,7.6,1.8,11.4c0.5,4.2,1.1,8.3,1.6,12.5
	c-1.2,9-3.6,18-3.2,27c0.5,12.8-4.1,26.2,3.3,38.4c-0.6,6.8-1.2,13.7-1.7,20.5c-2.1,3.9-2.1,8.1-1.9,12.3c0,0,0,0,0,0
	c-5.6,5.6-3.8,17-14.5,18.6c0.3,1.1,0.5,3.1,1.1,3.2c8.2,1.9,5,7.8,2.7,11.1c-7.3,10.4-6.4,21.7-5.5,33.2c-0.5,1.8-1.1,3.6-1.6,5.4
	c-11.7-6.1-18.3-3.1-14.6,10.4c3.1,11.2-1.3,18.9-7.7,26.6c-4.3,5.2-8.1,9.2-6.6,17.8c1.7,10-6.5,13.9-15.2,8.5
	c-2.5-1.5-4.3-2.3-5.8,0.5c-1.6,2.9-4.4,7.3-1.3,9.3c11.4,7.2,3.3,13-0.8,18.8c-3.1,4.5-4.1,9.2-4,14.4c-0.6,0.8-1.3,1.5-1.9,2.3
	c-0.7,0.8-1.4,1.7-2,2.5c0,0,0.4-0.2,0.4-0.2c-9.8-1.9-16.5,5.5-24.7,8.4c-3.7,1.3-3.7,5.7-2.4,9.7c1.2,3.8,1.4,7.8,2.1,11.8
	c-0.1,0.5-0.4,0.8-0.9,0.8c-4.7-0.4-9.6-5.1-13.8,1.3c-5.7,8.8-12.6,17-16,27.2c0,0-0.5,0.3-0.5,0.3c-12.7,3.1-24.3,7.6-28.1,22
	c-1.3,0.8-2.6,1.7-3.9,2.5c-9.2-3.5-15.1-1.8-14.6,9.5c0,0-0.2,0.1-0.2,0.1C732.6,857,732,857.4,731.6,857.9z M679.7,597.3
	c0.4-4.3,0.8-8.7-1.8-12.6c-1.3,0.1-2.5,0.2-3.8,0.3c-0.7-4.3-6.8-7.7-1.4-13.2c2.4-2.4-1.7-3.3-3.6-4.1c0.7-2.9,5.7-6.4-1.2-8.2
	c-0.3-4.1-0.2-9.4-6-8.6c-6.9,0.8-13.2,1.7-19.6-2.1c-2.9-1.7-6,0.6-6.5,4.4c-0.4,3.3,1.2,5.5,4.7,4.8c4.3-0.8,6.5,0.7,7.2,4.9
	c-0.4,0.5-0.9,1.1-1.3,1.6c-2.8,0.2-5.8-1.2-8,1.5c-0.1,0.2,2.4,2.4,3.7,3.7c-1,1.6-1.9,3.1-2.9,4.7c-6.6,6.6-4.3,10.9,3.5,13.7
	c2.9,3.1,5.8,6.1,8.7,9.2c1.4,0.5,2.9,0.9,4.3,1.4l0,0c-0.6,4.7-1.3,9.4-1.9,14c-1.6,11.5-0.7,12.2,9.7,9.5c3.1-0.8,6.7-0.1,10.1,0
	c5.3,0.3,9.4-1,10.6-6.9c0.9-1.4,1.7-2.7,2.6-4.1C691.8,602.6,691.1,597.1,679.7,597.3L679.7,597.3z M822.3,304.1
	c0.7,3.8,1.7,5.9,1.1,6.8c-6,8.9,1.7,15.1,4.1,22.4c0.8,2.4,2.1,4.3,5.2,2.4c1.8-1.1,3.9-2.2,2.6-4.5
	C830.8,323.1,832.1,312.5,822.3,304.1z M682.7,629.8c1.1-1,2-1.8,2.9-2.6c-1-0.7-2-1.8-3-1.9c-1.6-0.2-3.7,0.1-3.3,2.4
	C679.4,628.4,681.3,628.9,682.7,629.8z M907.4,496.1c0.7-1.3,1.4-2,1.4-2.7c0-0.7-0.9-1.4-1.4-2.1c-0.5,0.7-1.3,1.3-1.4,2.1
	C906,494,906.7,494.8,907.4,496.1z M671.2,875.5c-0.5,1.2-0.9,2-1,2.8c0,0.2,1.2,0.9,1.5,0.8c0.7-0.4,1.3-1.1,1.9-1.7
	C672.9,876.8,672.3,876.3,671.2,875.5z M698,868.6c-0.6-0.3-1.2-0.8-1.7-0.7c-0.4,0.1-0.7,0.9-1,1.3c0.6,0.3,1.1,0.8,1.6,0.7
	C697.3,869.9,697.6,869.1,698,868.6z"/>
<path class="st0" d="M356.7,152.7l0.4-0.4c0,0,0.5,0.1,0.5,0.1c1.1-0.5,2.1-1.1,3.2-1.6c0.6-0.3,1.3-0.5,1.9-0.8
	c2.1,0.5,4.4,1.7,6.3,1.2c2-0.5,1-2.5,0-3.9c0.8-0.3,1.7-0.6,2.5-1c7.1-1.6,17.5,5.2,20.2-7.8c0.9-0.2,1.9-0.4,2.8-0.6
	c1.8-0.6,3.6-1.3,5.4-1.9c0.9,0,1.8-0.1,2.6-0.1c1.2-0.6,2.3-1.2,3.5-1.8c0.9,0,1.9-0.1,2.8-0.1c1.1-0.6,2.2-1.2,3.3-1.7
	c1.9-0.5,3.8-1,5.6-1.5c10.3,2.8,18.7-1.8,27.1-6.6c1.4-0.1,2.8-0.2,4.1-0.3c3.9,2.1,7.5,2.3,10.2-1.9c0.4-0.5,0.9-0.6,1.5-0.3
	c3.6-0.6,7.1-1.1,10.7-1.7c3.6-0.1,7.3-0.2,10.9-0.4c1.1-0.5,2.3-0.9,3.4-1.4c2.7,0,5.5,0,8.2-0.1c2.2,3.3,4.3,2.9,6.2-0.3
	c0.7,0,1.4-0.1,2-0.1c0.4,0,0.8,0,1.2-0.1c2.5-0.2,5-0.3,7.5-0.5c6.5,3,13,2.9,19.5,0c2.2,0.1,4.4,0.2,6.6,0.3
	c7,4,14.6,1.9,21.9,1.9c3.6,0.2,7.2,0.4,10.9,0.6c3.6,0.6,7.2,1.1,10.8,1.7c0.6-0.2,1.1-0.1,1.5,0.3c2.1,5.3,6.9,4.7,11.1,4.7
	c8.2,0,12.1,3,9.4,11.6l0,0c-4.1,0-8.2,0-12.3,0c-0.7-0.2-1.4-0.4-2.1-0.7c-0.7-0.2-1.3-0.2-1.9,0.3c-0.3,0.5-0.8,0.7-1.5,0.5
	c-2.9,0.6-5.9,1.1-8.8,1.7c-2.1,0.1-4.1,0.1-6.2,0.2c-1.4-0.1-2.7-0.2-4.1-0.3c-1.3,0.2-2.6,0.5-3.9,0.7c-5.2-0.8-10.5-1.8-15.7-2.3
	c-3.4-0.3-7,0.3-8,4.3c-1.2,4.6,1.5,6.8,5.5,7.9c0.1,1.2,0.1,2.5,0.2,3.7c-4.7,1.5-8.3,3.3-3,8.3c2.4,3.1,8.2,5.3,6.8,9.3
	c-1.4,3.8-6.8,5.3-11.4,5.7c-5.4,0.4-10.8,1.1-16.2,1.3c-19.3,0.6-39.8-4.2-55.9,12.1c-1.6,1.7-5.1,2-7.7,2.2
	c-8.7,0.6-14.9,5.2-20.9,12.2c6.3,1.3,12,8.3,16.4-2c1.2-2.8,4.7-4.1,7.4-0.4c2.3,3.2,7.7,6.6,5.6,9.9c-1.8,2.8-7.8,3.1-12,4.3
	c-3,0.8-7.4-1.1-8.2,3.8c-0.6,3.4,2.9,3.1,4.7,4.3l0.4,0.6c2.6-0.5,5.1-1,7.7-1.6c0.6,1.8,1.2,3.6,1.8,5.4
	c-4.1,8.5-10.6,7.1-17.2,3.9c-3-1.4-5.3-1.1-7.1,1.5c-0.6,0.9-1.1,2.6-0.7,3.4c1.6,2.9,4,2.5,7,1.8c2.4-0.6,7.6,0.7,7.6,1
	c-0.9,14.3,9.8,3.1,14.1,6c-1,2.9-7.2,4.8-0.7,8.2c7.8,4,9.2,12.9,13.4,19.7c2.9,4.8,1.3,10.3-2.9,13.9c-7.7,6.5,2.6,10.8,1.6,16.3
	c16.6,0.1,13.2,9.6,9.3,19.5c-0.4,0.9,0.4,3,1.2,3.5c9.7,5.2,2,6.5-1.9,8c-8.3,3.3-16.5,4.5-20.6,15.5c-2,5.3-7.5,13.4-16.3,15.5
	c-6.4,1.5-12.5,4.6-15.9,11.4c-1.2,2.5-4.6,5.6-5.7-0.7c-0.5-3-2.9-3.1-4.6-2.7c-4.1,1.1-0.2,2.8,0,4.2c1.5,7.7-4.9,5.2-6.7,3.9
	c-11.7-8.1-26.9-2.7-38.6-10.7c-2.3-1.6-6.8-1.1-9.8-0.2c-7.4,2.3-14.6,5.5-22,8c-2,0.7-5.9,4.3-6.1-0.7c-0.4-8.3,0.8-16.6,1.4-25
	c0.1-2.1,0.7-4.7,3.4-3.9c7,2.1,9.4-3.9,13.6-6.9c8.4-6.1,14.7-17.1,28-12.3c0.9,0.3,3.4-0.6,3.5-1.3c1.9-9.5,11.1-8.6,17-12.5
	c9.8-6.3,20.4-11.3,25.3-23.9c2.2-5.7,6.9-15.7,17.7-9.2c1.9,1.2,3.7,2.7,5.6,4c0.1,0,1.5-1.3,1.5-2.1c0.1-3.8-2.9-5.2-5.7-6.3
	c-10.4-4-20.9-7.9-31.4-11.8c-7.1-8.3-15.5-3-16.8,2.7c-2.8,12.2-9.9,6.3-15.9,6.3c1.4-2.1,2.8-4.3,4.2-6.4c0-0.7,0-1.3,0.1-2
	c-0.2-1.2-0.3-2.3-0.5-3.5c0.3-11.1-10.3-4.8-14.4-9c-0.1-0.6,0-1.1,0.2-1.6c1.4-9.6,4.6-20.6-12.4-16.5l0,0
	c1.4-11.8-5.1-18.1-15.8-16.8c-7.9,1-19.2,1.9-17.9,15.4l-0.4-0.4l0.4,0.5c-11.2,2.2-19.9,6.7-19.1,20.2c0.1,0.6-0.2,1.1-0.7,1.4
	c-6.4,0.7-13.2,0.8-15.8,8.5c-0.6,0.6-1.3,1.2-1.9,1.9c-0.7,0.8-1.5,1.6-2.2,2.3c-4.4,5.9-1.5,6.8,4,5.9c3.6,5.5,9,4.6,14.3,3.9
	c0.7,0.4,1.4,0.7,2.1,1.1c19.9,4.1,20.8,5.3,14.4,19.4l-0.1,0c-10.6,1.4-19.4,16-18.6,30.5c-1.1,0.8-2.2,1.6-3.2,2.4
	c-5,0.6-7.1,3-4.6,8c-0.7,1.4-1.4,2.7-2.1,4.1c-0.7,0.9-1.3,1.8-2,2.8l0.6-0.1c-9.5,1.2-10.6,7.4-9.1,15.2c-1.1,0.8-2.2,1.6-3.2,2.5
	c-2-1.3-4.1-2.6-6.1-3.8c-0.9-2.2-1.8-4.4-2.7-6.6c2.5-8.3,7.2-16.3,4-25.5c-2.5-7.2-7.9-10.7-15.2-11.7c-2.6-0.3-5.3-0.7-6.3,3.3
	c-1.8,7.4,2.4,11.4,7.7,14.9c-0.3,2.2,0.3,5.1-3.4,5.2c-1.1,0.5-2.3,1.1-3.4,1.6c-0.7,0.2-1.3,0.5-2,0.7c-7.2-26.6-8.1-27.5-24.7-25
	c-1.4-0.6-2.7-1.2-4.1-1.9c-1.9-3.4-5.1-4.1-8.6-4l0,0c-0.2-3.7-1.3-8.1,5.3-6.4c1.7,0.5,3.6,0.3,3.9-1.9c0.1-0.8-0.5-2.3-1.1-2.5
	c-5.9-1.6-15.7-2.2-16,2.3c-0.6,10-7.9,14.5-11.9,21.5c-2.2,3.7-3.6,9.1-8.7,8.9c-6-0.2-5.9-6.7-7.9-10.6c-1.3-2.6-1.3-5.8-1.9-8.8
	c-0.1-0.6,0-1.1,0.5-1.4c9.6,1.4,18.3,2.2,14.9-12.4c-0.6-2.5,1.2-6.1,2.9-8.3c3.6-4.7,6.9-9.2,6.2-15.5c0.4-0.8,0.3-2.4,1.8-1.1
	c0.7-1.4,1.5-2.8,2.2-4.2c19.4-27.1,42.3-50.9,69.3-70.6c3.1-0.5,5.3-2.1,6.2-5.3c1.2-1,2.5-2,3.7-2.9c0.9-0.6,1.8-1.2,2.6-1.8
	c0.9-0.7,1.8-1.4,2.7-2.1c1.2-0.7,2.3-1.4,3.5-2.1c2.9-2,5.8-4,8.6-5.9c8.1-0.3,16.3-0.3,17.7-11.2c0.7-0.4,1.5-0.8,2.2-1.3
	c2.7-0.2,4.9-1.4,6.3-3.8c0,0,0.8-0.3,0.8-0.3c1.1-0.6,2.2-1.2,3.3-1.9c4-2.1,8-4.3,12.1-6.4c4.1,0,8.2,0,9.9-4.8
	c0,0-0.2,0.5-0.2,0.5C354.9,153.7,355.8,153.2,356.7,152.7z M448.4,133.3c5.3,2.3,6.6,3.4,7.4,3.1c0.9-0.3,2-2,1.9-2.8
	c-0.2-0.8-1.8-1.9-2.8-2C453.6,131.5,452.2,132.3,448.4,133.3z M432.3,138c1.5-0.6,2.3-1,3.2-1.4c-0.8-0.8-1.4-2-2.4-2.4
	c-0.7-0.3-1.8,0.5-2.7,0.8C431,136,431.6,136.9,432.3,138z"/>
<path class="st0" d="M176.6,317.1c0.6,3,0.6,6.2,1.9,8.8c2.1,3.9,2,10.4,7.9,10.6c5.1,0.2,6.5-5.1,8.7-8.9
	c4.1-7,11.3-11.6,11.9-21.5c0.3-4.6,10.1-4,16-2.3c0.6,0.2,1.2,1.7,1.1,2.5c-0.3,2.2-2.2,2.4-3.9,1.9c-6.5-1.7-5.5,2.7-5.3,6.4
	c-6.9-1.2-7.3,5.2-9.4,8.8c-43.2,76.5-60.8,158.5-49.1,245.8c10.4,77.6,43.5,144.7,98.2,201.1c34.2,35.3,74.4,61.4,118.8,81.5
	c-6.9,5.8-19,4.4-21.8,16.1c-0.9,3.9-1.1,6.8,3.6,7.4c7.8,1,15,3.8,22.4,6c8.5,2.6,12.4,6.6,15.7,13.3c-60.4-17-112.2-48.3-156-93.2
	c-78.1-80.1-116-176.9-115.4-288C122.7,443.6,139.9,377.4,176.6,317.1z"/>
<path class="st0" d="M590.1,138.2c4.1,0,8.2,0,12.3,0c3.7,11.8,13,9.6,21.7,8.4c3.6-0.5,7.6-3,9.6,2c4.3,10.6,14.7,3.7,21.2,7.7
	c2.8-5.1,0.9-10.3,0.7-15.5c22.3,7.7,43.9,16.9,63.6,30c0,0-0.7,0.7-0.7,0.7c-12.6-4.3-29.7,5.5-37.9-13.9
	c-2.4-5.8-9.6-1.2-13.2,3.5c-2.4,3.2-4.6,7.4,0.7,9c9.1,2.8,9.1,9.8,9.9,16.9c-11.5-2-22.4-7.9-34.6-5.7c-0.1-2.8-0.1-5.6-0.2-8.4
	c2.6,0.7,5.2,1.7,7.8,2.2c3.5,0.6,8.1,2.7,10.3-1c1.9-3.4-2.4-5.9-4.5-8.3c-7-8.1-17.4-6.4-26.4-8.4
	C615.5,154.1,599.2,153.8,590.1,138.2z"/>
<path class="st0" d="M839.8,758.2c-0.1-5.2,0.8-9.9,4-14.4c4.1-5.8,12.2-11.6,0.8-18.8c-3.1-2-0.3-6.3,1.3-9.3
	c1.5-2.8,3.3-2,5.8-0.5c8.7,5.3,17,1.5,15.2-8.5c-1.5-8.6,2.3-12.6,6.6-17.8c6.4-7.7,10.8-15.3,7.7-26.6
	c-3.7-13.5,2.9-16.5,14.6-10.4C883.4,690.6,864.8,726.1,839.8,758.2z"/>
<path class="st0" d="M655.6,140.7c0.3,5.2,2.2,10.5-0.7,15.5c-6.5-4-16.9,3-21.2-7.7c-2-5-6-2.5-9.6-2c-8.7,1.2-18,3.4-21.7-8.4
	c0,0,0,0,0,0c11.4-5.3,23.8,0.5,35.3-3.5l0.6,0c0,0,0,0.6,0.1,0.6c2.8,0.9,5.6,1.8,8.3,2.7c0.9,0.2,1.9,0.4,2.8,0.6
	c0.9,1.7,2.2,2.5,4.1,1.6C654.2,140.4,654.9,140.6,655.6,140.7z"/>
<path class="st0" d="M575.8,909.5c-7.7-13.7,2.6-11.6,10.3-11.9c18.7-0.6,37.4-1.1,56.1-1.7C620.8,903.5,598.5,907.3,575.8,909.5z"
	/>
<path class="st0" d="M811.2,792.8c-0.7-3.9-0.9-8-2.1-11.8c-1.3-4-1.3-8.4,2.4-9.7c8.2-2.9,15-10.3,24.7-8.4
	C829.1,773.9,820.7,783.8,811.2,792.8z"/>
<path class="st0" d="M897.4,646.5c-0.9-11.5-1.8-22.8,5.5-33.2c2.3-3.2,5.5-9.1-2.7-11.1c-0.6-0.1-0.7-2.1-1.1-3.2
	c10.7-1.6,8.9-13,14.5-18.6C910.8,603,906.2,625.3,897.4,646.5z"/>
<path class="st0" d="M637.7,134.7c-11.5,4-23.9-1.8-35.3,3.5c2.7-8.6-1.2-11.6-9.4-11.6c-4.2,0-9,0.6-11.1-4.7
	C601.1,123.8,619.5,128.6,637.7,134.7z"/>
<path class="st0" d="M917.2,547.6c-7.4-12.2-2.8-25.6-3.3-38.4c-0.4-8.9,2-18,3.2-27C918.7,504,920.6,525.8,917.2,547.6z"/>
<path class="st0" d="M780.5,822.1c3.4-10.2,10.3-18.3,16-27.2c4.1-6.4,9.1-1.7,13.8-1.3C801.2,804,792,814.3,780.5,822.1z"/>
<path class="st0" d="M201.2,279.5c0.7,6.3-2.6,10.8-6.2,15.5c-1.7,2.3-3.5,5.9-2.9,8.3c3.4,14.6-5.4,13.8-14.9,12.4
	C184,302.8,191.5,290.4,201.2,279.5z"/>
<path class="st0" d="M909.1,433c-9.4-1.4-12.4-4.6-9.7-15.7c2-8.2-3.2-18.1-2.1-27.5C902.9,403.7,907.1,418,909.1,433z"/>
<path class="st0" d="M741.9,185.1c-8.1,2.6-16.5,2.1-24.9,2.2c0,0,0,0,0,0c0.5-5.3,1-10.6,1.5-15.8l0.7-0.7
	C727.5,174.4,735.1,179.2,741.9,185.1z"/>
<path class="st0" d="M398.8,895.8c11.6,1.5,24.2-7.5,35,3.7c1.9,1.9,4.2,3.2,4.9,6C425.1,903.5,411.6,901.1,398.8,895.8z"/>
<path class="st0" d="M751.8,844.4c3.8-14.5,15.4-19,28.1-22C771.9,831.4,762.2,838.4,751.8,844.4z"/>
<path class="st0" d="M643.4,895.7c9.2-11.8,21.9-13.4,35.7-12.1C667.5,888.8,655.8,893.4,643.4,895.7z"/>
<path class="st0" d="M506.2,912.6c9.2-9.5,18.6-3.1,27.9-0.3C524.8,914.1,515.5,913.7,506.2,912.6z"/>
<path class="st0" d="M733.4,856.5c-0.5-11.4,5.4-13,14.6-9.5C743.1,850.2,738.3,853.3,733.4,856.5z"/>
<path class="st0" d="M319.6,172.1c-1.3,10.9-9.6,10.9-17.7,11.2C307,178.4,313.1,174.9,319.6,172.1z"/>
<path class="st0" d="M883,353.1c-9.2-4.1-11.2-11.7-10.1-20.8C877.5,338.6,880.8,345.6,883,353.1z"/>
<path class="st0" d="M444.7,124.2c-8.4,4.8-16.9,9.4-27.1,6.6C426.7,128.6,435.7,126.4,444.7,124.2z"/>
<path class="st0" d="M391.6,138.6c-2.7,13-13.1,6.2-20.2,7.8C378.1,143.8,384.8,141.2,391.6,138.6z"/>
<path class="st0" d="M896.8,387.9c-8.3-4.7-7.9-12.7-7.7-20.6C891.6,374.2,894.2,381.1,896.8,387.9z"/>
<path class="st0" d="M872.9,332.4c-9.6-1.6-8.1-9.2-8.6-15.7C867.2,322,870,327.2,872.9,332.4z"/>
<path class="st0" d="M530.3,117.1c-6.5,2.8-13,3-19.5,0C517.3,115.9,523.8,115.9,530.3,117.1z"/>
<path class="st0" d="M684.3,881.4c2.2-8.1,8.9-5.8,14.4-6.2C693.9,877.2,689.1,879.3,684.3,881.4z"/>
<path class="st0" d="M558.8,119.3c-7.4,0-14.9,2.1-21.9-1.9C544.2,118,551.7,116.4,558.8,119.3z"/>
<path class="st0" d="M442.8,905.8c4.6-2.2,9-2.9,12.3,2.2C450.9,907.3,446.8,906.5,442.8,905.8z"/>
<path class="st0" d="M459.1,122c-2.7,4.2-6.3,4-10.2,1.9C452.3,123.2,455.7,122.6,459.1,122z"/>
<path class="st0" d="M368.9,147.3c1,1.3,2.1,3.4,0,3.9c-1.9,0.5-4.2-0.7-6.3-1.2C364.8,149.1,366.8,148.2,368.9,147.3z"/>
<path class="st0" d="M756.5,195.3c-4-0.5-9.8,1.7-8.7-6C750.7,191.3,753.6,193.3,756.5,195.3z"/>
<path class="st0" d="M889.1,367.4c-5.7-1.1-5.6-4.6-3.8-8.9C886.5,361.5,887.8,364.4,889.1,367.4z"/>
<path class="st0" d="M354.1,153.7c-1.7,4.8-5.8,4.8-9.9,4.8C347.5,156.9,350.8,155.3,354.1,153.7z"/>
<path class="st0" d="M500.1,117.8c-1.9,3.2-3.9,3.6-6.2,0.3C496,118,498,117.9,500.1,117.8z"/>
<path class="st0" d="M913.1,453.4c-2.6-1.6-3-3.7-1.4-6.2C912.1,449.3,912.6,451.4,913.1,453.4z"/>
<path class="st0" d="M913.6,580.4c-0.2-4.2-0.3-8.4,1.9-12.3C914.8,572.2,914.2,576.3,913.6,580.4z"/>
<path class="st0" d="M766.5,203.5c-3.4-0.3-5.7-1.9-6.5-5.4C762.2,199.9,764.4,201.7,766.5,203.5z"/>
<path class="st0" d="M580.5,121.6c-3.6-0.6-7.2-1.1-10.8-1.7C573.3,120.5,576.9,121,580.5,121.6z"/>
<path class="st0" d="M471.4,119.9c-3.6,0.6-7.1,1.1-10.7,1.7C464.2,121,467.8,120.5,471.4,119.9z"/>
<path class="st0" d="M328.1,167c-1.4,2.5-3.6,3.6-6.3,3.8C323.9,169.6,326,168.3,328.1,167z"/>
<path class="st0" d="M280.8,198.3c-0.9,3.1-3.1,4.8-6.2,5.3C276.6,201.8,278.7,200,280.8,198.3z"/>
<path class="st0" d="M915.4,469.8c-0.6-3.8-1.2-7.6-1.8-11.4C914.3,462.2,914.9,466,915.4,469.8z"/>
<path class="st0" d="M483.7,911.5c1.4-2.1,2.8-2.1,4.1,0C486.4,911.5,485,911.5,483.7,911.5z"/>
<path class="st0" d="M653.6,140.2c-1.9,0.8-3.2,0.1-4.1-1.6C650.8,139.1,652.2,139.7,653.6,140.2z"/>
<path class="st0" d="M646.6,137.9c-2.8-0.9-5.5-1.8-8.3-2.7C641.1,136.1,643.9,137,646.6,137.9z"/>
<path class="st0" d="M459.9,908c2.5,0.6,4.9,1.1,7.4,1.7C464.8,909.2,462.3,908.6,459.9,908z"/>
<path class="st0" d="M399.8,136c-1.8,0.6-3.6,1.3-5.4,1.9C396.2,137.3,398,136.7,399.8,136z"/>
<path class="st0" d="M719.1,864.8c1.2-0.7,2.5-1.4,3.7-2.1C721.6,863.4,720.3,864.1,719.1,864.8z"/>
<path class="st0" d="M725.4,861.3c1.4-0.8,2.7-1.7,4.1-2.5C728.1,859.6,726.7,860.4,725.4,861.3z"/>
<path class="st0" d="M293.3,189.3c-1.2,0.7-2.3,1.4-3.5,2.1C291,190.7,292.1,190,293.3,189.3z"/>
<path class="st0" d="M702.7,873.1c1.4-0.7,2.8-1.3,4.2-2C705.5,871.7,704.1,872.4,702.7,873.1z"/>
<path class="st0" d="M911,441.1c-0.5-1.1-1-2.2-1.5-3.3C910,438.9,910.5,440,911,441.1z"/>
<path class="st0" d="M356.7,152.7c-0.9,0.5-1.9,1-2.8,1.5C354.9,153.7,355.8,153.2,356.7,152.7z"/>
<path class="st0" d="M360.8,150.8c-1.1,0.5-2.1,1.1-3.2,1.6C358.7,151.9,359.7,151.3,360.8,150.8z"/>
<path class="st0" d="M205.2,274.2c-0.7,1.4-1.5,2.8-2.2,4.2C203.8,277,204.5,275.6,205.2,274.2z"/>
<path class="st0" d="M405.9,134.1c-1.2,0.6-2.3,1.2-3.5,1.8C403.6,135.3,404.7,134.7,405.9,134.1z"/>
<path class="st0" d="M412,132.3c-1.1,0.6-2.2,1.2-3.3,1.7C409.8,133.4,410.9,132.8,412,132.3z"/>
<path class="st0" d="M485.7,118.2c-1.1,0.5-2.3,0.9-3.4,1.4C483.4,119.1,484.5,118.6,485.7,118.2z"/>
<path class="st0" d="M835.8,763.1c0.7-0.8,1.4-1.7,2-2.5C837.2,761.4,836.5,762.2,835.8,763.1z"/>
<path class="st0" d="M503.3,117.6c-0.4,0.1-0.8,0.1-1.2,0.1C502.5,117.2,502.9,117.2,503.3,117.6z"/>
<path class="st0" d="M555.4,911.5c0.6-0.3,1.3-0.4,1.9-0.1c0,0-1,0.3-1,0.3L555.4,911.5z"/>
<path class="st0" d="M287.1,193.5c-0.9,0.6-1.8,1.2-2.6,1.8C285.4,194.7,286.3,194.1,287.1,193.5z"/>
<path class="st0" d="M332.2,164.9c-1.1,0.6-2.2,1.2-3.3,1.9C330,166.2,331.1,165.5,332.2,164.9z"/>
<path class="st0" d="M731.6,857.9c0.5-0.5,1-0.9,1.6-1.2C732.6,857.1,732.1,857.5,731.6,857.9z"/>
<path class="st0" d="M657.7,762.8c15.6-3.3,27.4-14.7,42.2-20.2c1.5,4.1,1.8,7.9-0.9,11c-12.3,14.4-22.1,31.2-40.4,39.7
	c-7.7,3.5-14.8,8.5-21.5,13.7c-6.2,4.8-12.8,8.1-8.3,20.3c2.9,7.8-5.1,19.6-8,29.7c-0.9,3.1-4.3,6.9-1.3,9.2
	c1.8,1.4,6.3-0.4,9.5-1.2c6.9-1.8,13.7-4,20.5-6.1c-3.1,8.3-19.6,16-28.7,13.1c-8.9-2.8-15.2-10.8-9.6-17.5
	c10.7-12.9,5.6-29.3,12.3-41.6c4-7.4,10.9-16,21.4-19.2c6.9-2.1,13.3-6.5,19.5-10.6c3.5-2.3,2.1-6,0.2-9.1
	C662.2,770.2,659.9,766.5,657.7,762.8z"/>
<path class="st0" d="M592,689.1c-3.4,2.7-0.3,10.9-8.2,9.9l0.3,0.2c-1.9-1.8-1.6-7-6.4-4.2c-4.7,2.5-2.4,7.2-3.4,11.2
	c-4.5-1-3.8-5.1-4.7-7.8c-1.6-4.6-4.6-9.1-9.3-7.6c-15.6,5-29.6-5.6-44.8-3.5c-4.9,0.7-10,0.2-14.9,1.6c2.2-10.5,11-15.5,19.7-10.6
	c14.6,8.3,29.4,12.8,45.5,4.2c0.8-0.4,2-0.3,3-0.2c17,3.2,23.8-5.2,24.1-21.1c0.1-3,0.6-6,1-9c6.6,1.8,6.7,5.8,5.2,11.8
	C596.8,672.4,591.3,679.9,592,689.1z"/>
<path class="st0" d="M832.1,713.5c12-20.2,22.4-41.2,32-62.6c4.9,8.5,4.9,15.2-2.4,23.6c-7.2,8.2-11.2,19.3-15.8,29.5
	C843,710.4,839.2,714,832.1,713.5z"/>
<path class="st0" d="M469.5,604.7c8,2.3,6.1,12.6,13.3,16.5c2.1,1.1,6.2,4,8.4,7.2c-9.7,0.9,0.6,11.6-7.5,14.6
	c-5.8,2.2-10.4,9.9-16.4,0.3c4.1-3,12.2,1.9,13.3-5.9c1-7.1-5-10.7-9.5-14.7c-2-1.8-4.1-3.5-6.2-5.2
	C466.4,613.2,467.9,608.9,469.5,604.7z"/>
<path class="st0" d="M761.2,794.4c12.5-12.1,25-24.2,37.5-36.3c0.5,10.4,3.1,21.9-12.3,24.2C784.4,799.8,769.8,790.9,761.2,794.4z"
	/>
<path class="st0" d="M676.5,744.3c-4.3,2.6-8.7,5.1-13,7.7c-6.6,4.1-11.5,3-13.9-4.8c-3.3-10.5-14.5-11.4-21.3-17.6
	c7.5-5.6,14.9-3,18.2,4.4c1.7,4,5.9,10.5,12.4,6.9c6-3.3,11.4-10.8,13.8,2.6C672.8,744,675.2,744.1,676.5,744.3z"/>
<path class="st0" d="M651,858.5c12.9-5.7,25.7-11.4,38.6-17.1c0.3,7.3,2.4,13.3,10.5,15.3c1.8,0.4,4.3,1.6,3.3,4.1
	c-0.4,1-2.7,1.5-4.3,1.8c-1.3,0.3-3.2,0.5-4-0.2C681.4,849.4,665.5,861.9,651,858.5z"/>
<path class="st0" d="M614.4,204c-17-8.6-32.2-19.5-44.3-34.2c-1.5-1.8-7.2-2.7-3.1-6.5c2.5-2.3,6.6-4.5,10.2-1.7
	c3.5,2.7,6.3,6.1,9.5,9.1c-4.4,8,2.6,17.8,14.9,19.7C609.9,191.7,615,194.9,614.4,204z"/>
<path class="st0" d="M880.7,516.7c-1,3.9-2,7.8-3,11.8c-13.4-8-18.6-5.7-21.9,9.1c-0.9,4.3-2.3,8.4-3.5,12.7
	c-0.5-3.7-1.5-7.4-1.5-11.1c-0.1-10.1-0.3-20.8,14.2-20.7C870.4,518.5,874.2,505.1,880.7,516.7z"/>
<path class="st0" d="M635.2,248.3c-5.8-0.7-6.3-4.9-6.7-9.5c-1.1-13-9.6-23.1-14.1-34.8c8.9,0.2,19.3,14.7,20.5,29.2
	C635.4,238.2,635.1,243.3,635.2,248.3z"/>
<path class="st0" d="M841.5,596.7c-2.9,10.7-1.2,21.6-1.6,32.4c-0.2,6.4-2.4,14.8-7.5,16.9c-4.8,2-12.3-1.4-17-6.4
	c14.7-1.1,20.6-9.5,20.5-23.8C835.9,609.2,833.1,601.1,841.5,596.7z"/>
<path class="st0" d="M436.6,640c8.7-2.1,12.5,0.7,13.8,10.2c1.3,9.5,0.2,22.1,15.1,23.5c-10.4,3.6-17,1-18.8-10.9
	C445.5,654.5,435.6,649.7,436.6,640z"/>
<path class="st0" d="M373.1,629.9c9.5,5.8,20.1,2.7,30.1,3.7c5,0.5,9.9,0.9,14.3,3.7c-11.4,1.7-22.5-0.5-34.3,6.6
	C371.9,650.6,374.2,636.7,373.1,629.9z"/>
<path class="st0" d="M714.1,203.4c-11-5.2-21.9-10.4-32.9-15.6c11.9-0.2,23.9-0.4,35.8-0.5c0,0,0,0,0,0
	C716.1,192.7,715.1,198,714.1,203.4z"/>
<path class="st0" d="M389.8,858.4c13.6,4.1,27.2,8.2,40.7,12.3C419.2,877.7,392.9,869.8,389.8,858.4z"/>
<path class="st0" d="M589.6,170.7c16.7-16.9,33.4-4.4,50.2-0.1C623.1,170.7,606.3,170.7,589.6,170.7z"/>
<path class="st0" d="M667.9,559.4c-7.3-2.2-14.8-5.6-20.2,3.3c-0.7-4.2-2.9-5.7-7.2-4.9c-3.5,0.7-5.1-1.5-4.7-4.8
	c0.5-3.8,3.5-6.1,6.5-4.4c6.5,3.8,12.8,2.9,19.6,2.1C667.8,550,667.6,555.3,667.9,559.4z"/>
<path class="st0" d="M655.9,598.5c3.5,0.5,5.2,2.2,5,6.1c-0.8,16.7,0.8,17.8,16.7,12.6c2.2-0.7,4.4-1.4,6.7-2
	c-1.2,5.9-5.3,7.2-10.6,6.9c-3.4-0.2-6.9-0.9-10.1,0c-10.4,2.7-11.3,2.1-9.7-9.5C654.6,607.8,655.3,603.1,655.9,598.5z"/>
<path class="st0" d="M866.1,645.7c3.5-10.9,7-21.9,10.5-32.8c1.2,6.9,2.3,13.8,3.6,20.7C882.4,645.6,872.3,643.4,866.1,645.7z"/>
<path class="st0" d="M564.4,650.3c-9.4,6.1-28-2.3-29-13.3c-0.7-6.9,5.5-5.3,9.3-6.5C544.9,643.4,554.1,647.4,564.4,650.3z"/>
<path class="st0" d="M674.2,584.9c-4.7-2-11.2,2.3-14.7-5c-1.8-3.8-4-7.7-1.4-10.9c2.5-3.2,7-4,11.1-1.4c2,0.8,6,1.6,3.6,4.1
	C667.4,577.2,673.4,580.6,674.2,584.9z"/>
<path class="st0" d="M885,570.1c0.9-17,1.9-34,2.8-51c0.9,13.4,7.5,26.1,3.7,40.1C890.3,563.7,889.3,567.7,885,570.1z"/>
<path class="st0" d="M616.7,715.2c-10.8-5.3-21-11.3-23.8-24.4C606.7,693.2,611.7,704.3,616.7,715.2z"/>
<path class="st0" d="M810.9,635.8c-6-2.1-4.6-11.5-11.9-12.4c0.5-3.6-0.2-8.4,5-8.5c3.7-0.1,4.8,3.8,4.8,6.8
	c0.2,7.8,7.7,6.2,11.8,9.3C818.3,634.9,813.8,633.8,810.9,635.8z"/>
<path class="st0" d="M471.3,676.7c7,7.4,16.9,9.5,25.3,14.4c-5.7,4.3-11.4-0.6-17.1-0.2c-0.3-0.5-0.6-1-0.9-1.5
	c-0.2,0.2-0.4,0.4-0.6,0.6c0.5,0.3,1,0.6,1.5,0.9c-4.3,5-6.8,3-7.8-2.3C471.1,684.7,471.5,680.7,471.3,676.7z"/>
<path class="st0" d="M455,875.4c6.1,0.7,12.1,1.3,18.2,2.3c7,1.1,5-2.8,3.7-6.4c4.3,0.6,8.7,2.1,7.1,7.4c-1.5,4.7-5.8,6.3-10.6,4.4
	C467.1,880.7,459,883,455,875.4z"/>
<path class="st0" d="M462.2,531.3c4.2-7.4-5.3-20,9.4-23.6c2.4,8.3-6.7,15.2-3,23.6C466.5,531.2,464.3,531.3,462.2,531.3z"/>
<path class="st0" d="M566.2,622.4c11.2-7.8,23.8-5.8,36.2-5.2C591.2,625,578.7,623.6,566.2,622.4z"/>
<path class="st0" d="M731.2,817.3c4.8-3.4,9.6-6.7,14.4-10.1c0.9,7.3-9.9,10.7-6.5,19.5c0.7,1.7-3.6,2.2-4.9-0.7
	C732.9,823.2,732.1,820.2,731.2,817.3z"/>
<path class="st0" d="M655.6,189.5c5.7,4.4,11.9,7.6,19.3,7.3c3.5-0.2,4.8,1.7,5.8,4.3c-0.9,0.2-1.7,0.3-2.6,0.5l0,0
	c-8.7,0.7-17.4,1.2-22.5-8.2C655.6,192.1,655.6,190.8,655.6,189.5z"/>
<path class="st0" d="M689.6,841.4c7.1-3.8,14.2-7.6,21.3-11.3C708.9,843.4,698.9,841.8,689.6,841.4z"/>
<path class="st0" d="M876.9,611c1.9-8.2,3.9-16.4,5.8-24.6C886.4,596,883.9,604.1,876.9,611z"/>
<path class="st0" d="M637.4,302c2-5.3-2.3-12.3,4.3-16.4c3.5,5.7,3.7,11.2-0.9,16.5c-1.3-0.1-2.5-0.3-3.8-0.4L637.4,302z"/>
<path class="st0" d="M633.2,753.9c7.3,1,15,0.7,20.7,6.6C646.8,758.8,637.2,764.9,633.2,753.9z"/>
<path class="st0" d="M581.8,437.3c-1.3-1.9-2.7-3.8-3.9-5.8c-1.1-2-2.9-4.3-0.4-6.3c1.1-0.9,3.3-1.6,4.6-1.1c3.2,1.2,1.3,3.8,1.1,6
	c-0.1,1.5,0.7,3.1,1.2,4.7C583.5,435.7,582.6,436.5,581.8,437.3z"/>
<path class="st0" d="M686.8,611c-2.4-4.6-4.8-9.2-7.2-13.8C691.1,597.1,691.8,602.6,686.8,611z"/>
<path class="st0" d="M747.5,805.4c4.6-3.7,9.1-7.4,13.7-11C761.8,804.4,755.1,805.5,747.5,805.4z"/>
<path class="st0" d="M601,720.5c3.9,3.2,9.1,5.2,9.8,11.2c-3-1.2-5.9-2.9-9.1-3.6C593.8,726.1,598.3,723.3,601,720.5z"/>
<path class="st0" d="M589.6,707.3c3.5,4.1,7,8.2,10.5,12.3C589.9,721.2,588.9,715,589.6,707.3z"/>
<path class="st0" d="M823.1,727.4c2.9-4.5,5.9-9,8.8-13.5c-0.1,4.6-0.1,9.2-0.2,13.8C828.8,727.6,825.9,727.5,823.1,727.4z"/>
<path class="st0" d="M614.8,741.7c6.7,0.5,9.2,6.2,12.7,10.5C619.2,753.7,616.2,748.8,614.8,741.7z"/>
<path class="st0" d="M373.7,851.8c5.4,2.2,10.7,4.4,16.1,6.6C383.9,857.7,375.8,862.1,373.7,851.8z"/>
<path class="st0" d="M647.4,260.8c-9,0.5-2.7-9.4-7.8-11.6C646.9,250,647.4,255.3,647.4,260.8z"/>
<path class="st0" d="M583.8,699c1.7,2.5,3.5,5.1,5.2,7.6c-9.3,2.6-10.2-3.6-10.8-10.2c2,1,3.9,1.9,5.9,2.9L583.8,699z"/>
<path class="st0" d="M686.7,208.7c2.9,2.4,5.8,4.9,8.7,7.3C687,220.3,687.2,214.1,686.7,208.7z"/>
<path class="st0" d="M639.3,574.2c-1.6,5.3,1.9,9.3,3.5,13.7C635,585.1,632.7,580.8,639.3,574.2z"/>
<path class="st0" d="M641.3,381.8c0.1-1.6,0.2-3.2,0.3-4.7c3.4-0.7,6.7,0.4,7.2,3.7c0.6,3.8-3.6,2.9-5.9,3.8c0,0,0.4,0,0.4,0
	C642.6,383.6,641.9,382.7,641.3,381.8z"/>
<path class="st0" d="M815.1,737.9c2.7-3.5,5.4-7,8.1-10.6C823.7,733.3,822.2,737.7,815.1,737.9z"/>
<path class="st0" d="M682.7,629.8c-1.4-0.9-3.3-1.4-3.4-2.1c-0.4-2.3,1.8-2.6,3.3-2.4c1.1,0.1,2,1.3,3,1.9
	C684.7,627.9,683.8,628.7,682.7,629.8z"/>
<path class="st0" d="M733.2,224.6c-2.8-4.2-5.6-8.4-8.3-12.7C733.4,212.4,732.6,219,733.2,224.6z"/>
<path class="st0" d="M641.9,281.4c-0.8-3.6-10.3-8.4,1.4-10.3C642.8,274.5,642.3,278,641.9,281.4z"/>
<path class="st0" d="M693.1,732.1c-1.6,1.2-3.2,2.4-4.8,3.6c-2.1-1.5-4.3-3.1-7-5.1C687.2,727.4,689.8,731.5,693.1,732.1z"/>
<path class="st0" d="M626.7,728.6c-1.4-2.8-2.8-5.6-4.1-8.4c1-4.5,3-4.4,4.2-0.4C627.6,722.5,626.8,725.7,626.7,728.6z"/>
<path class="st0" d="M553,629.4c-0.1-6,3.5-7,8.4-6.1C560.6,628,557.3,629.3,553,629.4z"/>
<path class="st0" d="M679.7,597.3c-13.4-2.4,2.9-9-1.8-12.6C680.5,588.6,680.1,592.9,679.7,597.3z"/>
<path class="st0" d="M584.5,650.1c-5.2,2.6-10.4,6.3-15.7,0.1C574,650.2,579.3,650.2,584.5,650.1z"/>
<path class="st0" d="M907.4,496.1c-0.7-1.3-1.4-2-1.4-2.7c0.1-0.7,0.9-1.4,1.4-2.1c0.5,0.7,1.3,1.3,1.4,2.1
	C908.8,494,908.1,494.8,907.4,496.1z"/>
<path class="st0" d="M796.4,629.4c-3.2,3.4-6.5,8.4-9.8,0C789.9,629.5,793.1,629.5,796.4,629.4z"/>
<path class="st0" d="M803.8,751.9c2.4-2.8,4.7-5.7,7.1-8.5C811,748.2,809.2,751.5,803.8,751.9z"/>
<path class="st0" d="M671.2,875.5c1.1,0.8,1.7,1.3,2.4,1.8c-0.6,0.6-1.1,1.4-1.9,1.7c-0.3,0.2-1.5-0.5-1.5-0.8
	C670.3,877.5,670.7,876.7,671.2,875.5z"/>
<path class="st0" d="M646.5,564.3c-1.4,1.7-2.8,3.4-4.3,5.2c-1.3-1.3-3.8-3.5-3.7-3.7C640.6,563.1,643.7,564.5,646.5,564.3z"/>
<path class="st0" d="M721.2,238.4c3.5,2,7,4.1,10.4,6.1C726.9,244.6,722.4,244.3,721.2,238.4z"/>
<path class="st0" d="M606.9,616.5c3.3-1.8,6.5-3.7,9.8-5.5C616.8,618.9,611.3,616.6,606.9,616.5z"/>
<path class="st0" d="M698,868.6c-0.4,0.5-0.7,1.3-1.1,1.3c-0.5,0.1-1.1-0.5-1.6-0.7c0.3-0.5,0.6-1.3,1-1.3
	C696.8,867.8,697.4,868.4,698,868.6z"/>
<path class="st0" d="M436.6,871.9c4.5,1,8.9,2,13.4,3C445.3,874.9,440.4,875.9,436.6,871.9z"/>
<path class="st0" d="M724.5,211.5c-2.8-2.5-5.6-5-8.4-7.5C721.2,203.9,724.6,205.8,724.5,211.5z"/>
<path class="st0" d="M718.2,825.7c2.8-1.8,5.6-3.6,8.4-5.4C725.5,824.6,722.2,825.7,718.2,825.7z"/>
<path class="st0" d="M687.6,736.3c-2.5,1.8-5,3.7-7.4,5.5C681.1,737.9,683.8,736.4,687.6,736.3z"/>
<path class="st0" d="M643.2,271.1c0.4-2.5,0.6-5.3,4.3-5.2C647,268.4,645.6,270.2,643.2,271.1z"/>
<path class="st0" d="M467,596.8c0.9,2.7,1.8,5.5,2.6,8.2C467.4,602.6,466.2,600,467,596.8z"/>
<path class="st0" d="M882.9,582.4c0.6-3.1,1.2-6.3,1.8-9.4C884.1,576.1,883.5,579.2,882.9,582.4z"/>
<path class="st0" d="M637,301.8c1.2,0.1,2.5,0.3,3.8,0.4c-0.5,0.7-1.1,1.3-1.6,2C638.5,303.4,637.8,302.6,637,301.8z"/>
<path class="st0" d="M833.3,728.9c-0.2,0.2-0.3,0.3-0.5,0.5c-0.2-0.2-0.5-0.5-0.7-0.7c-0.2-0.3-0.3-0.6-0.5-0.9
	C832.2,728.1,832.8,728.5,833.3,728.9z"/>
<path class="st0" d="M610.7,731.7c2.6,2.2,1.9,5.4,2.2,8.2C612.2,737.2,611.5,734.4,610.7,731.7z"/>
<path class="st0" d="M849.8,570.1c-0.5,2.2-1,4.4-1.5,6.7C848.8,574.6,849.3,572.4,849.8,570.1z"/>
<path class="st0" d="M536.2,627.9c-1-0.2-2.1-0.5-3.1-0.7C534.1,627.4,535.2,627.7,536.2,627.9z"/>
<path class="st0" d="M616.7,611c0.1-1.4,0.1-2.7,0.2-4.1C616.8,608.3,616.7,609.7,616.7,611z"/>
<path class="st0" d="M651.6,597.1c1.4,0.5,2.9,0.9,4.3,1.4C654.5,598,653,597.6,651.6,597.1z"/>
<path class="st0" d="M798.7,758.4c0.7-0.9,1.4-1.9,2.2-2.8C800.1,756.6,799.4,757.5,798.7,758.4z"/>
<path class="st0" d="M850.2,564c0,0.7,0,1.4-0.1,2.1C850.2,565.3,850.2,564.6,850.2,564z"/>
<path class="st0" d="M593.9,652.5c-0.2-0.8-0.5-1.6-0.7-2.4C593.5,650.9,593.7,651.7,593.9,652.5z"/>
<path class="st0" d="M851.8,553.8c-0.5,1.2-1,2.3-1.5,3.5C850.8,556.1,851.3,554.9,851.8,553.8z"/>
<path class="st0" d="M493.4,692.9c0.7-3.1,3-2,4.9-1.9C496.6,691.6,495,692.2,493.4,692.9z"/>
<path class="st0" d="M698.6,220.3c0.5,0.6,0.9,1.1,1.4,1.7C699.5,221.4,699,220.9,698.6,220.3z"/>
<path class="st0" d="M680.3,201c0.7,0.9,1.4,1.7,2.1,2.6C681.7,202.8,681,201.9,680.3,201z"/>
<path class="st0" d="M695.6,217.7c1.8-0.3,2.5,0.8,2.8,2.3C697.5,219.3,696.5,218.5,695.6,217.7z"/>
<path class="st0" d="M678.2,201.6C678.2,201.6,678.1,201.6,678.2,201.6C678.1,201.6,678.2,201.6,678.2,201.6z"/>
<path class="st0" d="M800.6,756.5c0.8-1.2,1.6-2.3,2.4-3.5C802.2,754.1,801.4,755.3,800.6,756.5z"/>
<path class="st0" d="M702.7,226c0.8,1.1,1.6,2.1,2.3,3.2C704.3,228.1,703.5,227,702.7,226z"/>
<path class="st0" d="M700.8,223.9c0.7,0.8,1.4,1.6,2.2,2.3C702.2,225.4,701.5,224.6,700.8,223.9z"/>
<path class="st0" d="M416.1,268.7c-9.3,8.2-17.6,18-28.1,24c-9,5.2-17.2,10.2-23,18.9c-1.8,2.6-4.2,1.8-6.2,0.3
	c-6.5-4.9,4.3-6.5,1.8-11.2c-7.5,0-11.8,11.9-21.5,6.6c-2.2-1.2-5.2,0.8-3.1-3.9c4.3-10,14.4-16.4,17.1-27.5
	c0.6-2.7,4.1-1.5,4.7,0.3c5.7,17.8,14.6,8.1,23,2.9c0.9-0.5,1.8-1,2.7-1.5c6,0,13.1,5.9,15.9-6.3C400.7,265.7,409,260.4,416.1,268.7
	z"/>
<path class="st0" d="M252.5,345.3c-2,5.1,5.2,9,1.5,14.9c-3.6,5.7-8.4,6.6-10.3,1.3c-1.8-5-17.9-13.2,1-17.7c0.4-0.1,0.6-3.2,0-4.4
	c-2.5-4.8-3.1-12.4-9.8-12.7c-5.3-0.2-6.1-2.7-7.2-6.4C244.4,317.8,245.3,318.7,252.5,345.3z"/>
<path class="st0" d="M270.9,356.9c-4-5.5-2-11.8-2.6-17.8c-0.3-2.5,1-6.3-2.5-6.8c-3.5-0.6-2.4,4.1-4.5,5.6
	c-5.3-3.5-9.5-7.5-7.7-14.9c0.9-3.9,3.6-3.6,6.3-3.3c7.2,1,12.7,4.4,15.2,11.7C278.1,340.6,273.4,348.5,270.9,356.9z"/>
<path class="st0" d="M307.6,282.5c7-3.7,12.3-8.6,22.2-8c14,0.9,11.1,6.8,7.7,14.2c-3,6.6-7.7,12-15.6,13.2
	C328.4,287.8,327.5,286.6,307.6,282.5z"/>
<path class="st0" d="M279.7,367.3c-5.7,2.2-12.5,2.9-9.2,12.4c1.6,4.6-3.7,5.9-7.1,6.7c-4.3,1.1-4.1-2.4-5.3-5.4
	c-7-16.9,5.4-16.1,15.5-17.6C275.6,364.7,277.7,366,279.7,367.3z"/>
<path class="st0" d="M321.9,302c-4.3,4.3-15.1,7.8-1.6,14.4c2.6,1.3-0.1,3.5-1.5,4.6c-5.1,3.9-10.3,7.7-15.5,11.5
	C302.5,318,311.4,303.4,321.9,302z"/>
<path class="st0" d="M360.7,238.7c-12-14-19.8-14.3-33.7-1.4c-1.3-13.5,10-14.4,17.9-15.4C355.6,220.5,362,226.9,360.7,238.7z"/>
<path class="st0" d="M561.7,140.7c-3.6,7.9-11.1,8.6-18.3,9.9c-4-1.1-6.7-3.3-5.5-7.9c1.1-4,4.7-4.6,8-4.3
	C551.2,138.9,556.4,139.9,561.7,140.7z"/>
<path class="st0" d="M373,255.1c-3.9-5.7-13.5-7-12.4-16.5C377.6,234.5,374.4,245.5,373,255.1z"/>
<path class="st0" d="M326.9,237.3c-6.4,6.7-12.7,13.5-19.1,20.2C307,244,315.7,239.4,326.9,237.3z"/>
<path class="st0" d="M387.2,265.7c-4-0.6-8-1.3-12-1.8c-5.8-0.8-6.1-3.3-2.4-7.2C376.9,260.9,387.5,254.6,387.2,265.7z"/>
<path class="st0" d="M543.6,154.3c3.4,1.6,6.8,3.2,12,5.6c-6.5,1.2-10.7,2-15,2.8C535.3,157.6,538.9,155.8,543.6,154.3z"/>
<path class="st0" d="M292,349.6c-2.6,5.3-2.1,12.5-9.1,15.2C281.4,357,282.5,350.8,292,349.6z"/>
<path class="st0" d="M291.3,277.5c6.5-5.1,11.8-5.7,14.3,3.9C300.2,282.2,294.9,283,291.3,277.5z"/>
<path class="st0" d="M307.2,258.9c-2.4,8.1-10,6.7-15.8,8.5C294,259.7,300.8,259.7,307.2,258.9z"/>
<path class="st0" d="M448.4,133.3c3.8-1,5.2-1.8,6.5-1.6c1.1,0.1,2.7,1.1,2.8,2c0.2,0.9-1,2.6-1.9,2.8
	C455,136.7,453.7,135.6,448.4,133.3z"/>
<path class="st0" d="M223.7,318.5c-4.9,2.9-8,2.2-8.6-4C218.6,314.4,221.8,315.1,223.7,318.5z"/>
<path class="st0" d="M432.3,138c-0.7-1.1-1.3-2.1-1.8-3c0.9-0.3,2-1,2.7-0.8c1,0.4,1.6,1.6,2.4,2.4C434.6,137,433.8,137.4,432.3,138
	z"/>
<path class="st0" d="M300.1,335c-1.5,2.7-3.1,5.3-4.6,8C293,337.9,295.1,335.6,300.1,335z"/>
<path class="st0" d="M457.2,224.2c1.1-0.1,3.1-0.4,3.2-0.1c0.6,2,1.7,4.4-1.3,5.5C458.5,227.8,457.9,226,457.2,224.2z"/>
<path class="st0" d="M584.6,138.4c-2.9,0.6-5.9,1.1-8.8,1.7C578.8,139.5,581.7,138.9,584.6,138.4z"/>
<path class="st0" d="M569.7,140.2c-1.4-0.1-2.7-0.2-4.1-0.3C566.9,140,568.3,140.1,569.7,140.2z"/>
<path class="st0" d="M587.9,137.5c-0.6,0.3-1.2,0.4-1.9,0.3C586.6,137.4,587.3,137.3,587.9,137.5z"/>
<path class="st0" d="M293.4,347c-0.7,0.9-1.3,1.8-2,2.8C292.1,348.8,292.7,347.9,293.4,347z"/>
<path class="st0" d="M387.6,271.2c0-0.7,0-1.3,0.1-2C387.7,269.9,387.7,270.5,387.6,271.2z"/>
<path class="st0" d="M257.9,343c-1.1,0.5-2.3,1.1-3.4,1.6C255.6,344.1,256.7,343.5,257.9,343z"/>
<path class="st0" d="M289.5,269.3c-0.7,0.8-1.5,1.6-2.2,2.3C288,270.8,288.7,270,289.5,269.3z"/>
<path class="st0" d="M449.1,225.1c0,0,0.4,0.6,0.4,0.6C449.5,225.8,449.1,225.1,449.1,225.1z"/>
<path class="st0" d="M717,187.3c-11.9,0.2-23.9,0.4-35.8,0.5c-1-0.3-2.1-0.5-3.1-0.8c-0.8-7.1-0.9-14.2-9.9-16.9
	c-5.3-1.6-3.2-5.9-0.7-9c3.6-4.7,10.7-9.3,13.2-3.5c8.1,19.4,25.3,9.6,37.9,13.9C718,176.7,717.5,182,717,187.3z"/>
<path class="st0" d="M398.6,534.9c0-4.8,15.9-0.7,4.2-10c0.6-0.7,1-1.6,1.7-2.1c11.9-7.1,7.6-18,6.8-28.2c-0.5-5.8,4.8-8.6,8.6-11.8
	c0.8-0.7,3,0.3,4.5,0.5c-4.5,4.6,7.6,10.2-0.9,14.4c-3.5,1.7-1.8,3.4-0.8,5.6c4.1,8.9,1.6,19.1,5.4,28.3c0.6,1.4-0.6,12.4-10.4,7.9
	C411.9,536.6,404.8,536.2,398.6,534.9z"/>
<path class="st0" d="M411.5,428.4c-7.1,1.3-13.3-2-17.3-7.5c-3.5-4.7,3.1-8,4.7-12.1c0.8-2,2.9-4.9,4.4-4.9c3.1-0.1,3.4,3.1,4.1,5.9
	c1.5,5.9,7.9,4.1,11.6,6.6c2.9,2,9.1,1.9,8.5,5.5c-0.7,3.9-6.1,5.8-10.5,6.7C415.4,428.9,413.6,428.5,411.5,428.4z"/>
<path class="st0" d="M394.3,519.1c-5.4-0.6-12.4-1.7-11.7-7.5c1-9.1,9.7-11.7,17.7-12.8c3.7-0.5,9.3,2.5,7.4,6
	C404.6,510.3,403.4,519,394.3,519.1z"/>
<path class="st0" d="M444.2,630.3c-3.8-0.9-3.7-3.9-3.1-6.4c0.6-2.6,0.2-6.6,4.3-6.7c3.6-0.1,4.2,2.7,3.8,5.6
	C448.8,626.1,448.3,629.5,444.2,630.3z"/>
<path class="st0" d="M451.4,608.6c-2.6,3.1-3.3,4-4.1,4.9c-0.7-0.9-1.9-1.8-1.9-2.7c0.1-1.1,1-2.7,2-3
	C448.4,607.4,449.9,608.2,451.4,608.6z"/>
<path class="st0" d="M641.3,381.8c0.7,0.9,1.3,1.8,2,2.7C641.6,384.3,641,383.3,641.3,381.8z"/>
<path class="st0" d="M479.6,690.9c-0.5-0.3-1-0.6-1.5-0.9c0.2-0.2,0.4-0.4,0.6-0.6C479,689.9,479.3,690.4,479.6,690.9
	C479.6,690.9,479.6,690.9,479.6,690.9z"/>
</svg>
