<svg class="svg-icon" style="width: 1em; height: 1em;vertical-align: middle;fill: currentColor;overflow: hidden;" viewBox="0 0 1024 1024" version="1.1" xmlns="http://www.w3.org/2000/svg"><path d="M927.3 360.7c-20.3-48-49.4-91.2-86.5-128.2-37-37-80.2-66.1-128.2-86.5-49.8-21-102.6-31.7-157-31.7S448.3 125 398.5 146c-48 20.3-91.2 49.4-128.2 86.5-37 37-66.1 80.2-86.5 128.2-21 49.8-31.7 102.6-31.7 157 0 15.2 0.9 30.5 2.6 45.6l-58.8-56.2c-8-7.6-20.6-7.4-28.3 0.6-7.6 8-7.4 20.6 0.6 28.3l103 98.5c3.7 3.6 8.7 5.5 13.8 5.5h0.8c5.4-0.2 10.5-2.7 14.1-6.7l94.5-106.9c7.3-8.3 6.5-20.9-1.7-28.2-8.3-7.3-20.9-6.5-28.2 1.7l-67.8 76.6c-3.1-19.3-4.7-39.1-4.7-58.8 0-200.4 163-363.4 363.4-363.4 200.4 0 363.4 163 363.4 363.4 0 200.4-163 363.4-363.4 363.4-92.4 0-180.5-34.7-248-97.8-8.1-7.5-20.7-7.1-28.3 1s-7.1 20.7 1 28.3c74.9 70 172.7 108.6 275.3 108.6 54.5 0 107.3-10.7 157-31.7 48-20.3 91.2-49.4 128.2-86.5 37-37 66.1-80.2 86.5-128.2 21-49.8 31.7-102.6 31.7-157 0.2-54.5-10.5-107.4-31.5-157.1z" fill="#AAAAAA" /><path d="M526 275.5c-13.3 0-24 10.7-24 24v248.6c0 13.3 10.7 24 24 24h248.6c13.3 0 24-10.7 24-24s-10.7-24-24-24H550V299.5c0-13.2-10.7-24-24-24z" fill="#AAAAAA" /></svg>