<?xml version="1.0" encoding="utf-8"?>
<!-- Generator: Adobe Illustrator 28.3.0, SVG Export Plug-In . SVG Version: 6.00 Build 0)  -->
<svg version="1.1" id="Layer_1" xmlns="http://www.w3.org/2000/svg" xmlns:xlink="http://www.w3.org/1999/xlink" x="0px" y="0px"
	 viewBox="0 0 400 2000" style="enable-background:new 0 0 400 2000;" xml:space="preserve">
<style type="text/css">
	.st0{clip-path:url(#SVGID_00000168099780832779413920000000205511817552246154_);fill:#212121;}
	.st1{clip-path:url(#SVGID_00000111910873583095043820000009282508415184836020_);fill:#FFFFFF;}
	
		.st2{clip-path:url(#SVGID_00000068641649903329805260000002669425905265393332_);fill:none;stroke:#E7A723;stroke-width:14;stroke-miterlimit:10;}
	
		.st3{clip-path:url(#SVGID_00000124865521520676531780000001197807713914891149_);fill:none;stroke:#E7A723;stroke-width:16;stroke-miterlimit:10;}
	.st4{clip-path:url(#SVGID_00000146470128939314504070000003418735173541963411_);fill:#E7A723;}
	.st5{clip-path:url(#SVGID_00000031166730301486037730000017889921160085907901_);fill:#E7A723;}
	.st6{clip-path:url(#SVGID_00000029047601383208710970000010406018223461989310_);fill:#E7A723;}
	.st7{clip-path:url(#SVGID_00000096026126108232177680000009756901711647197068_);fill:#E7A723;}
	.st8{clip-path:url(#SVGID_00000063629217860601883390000003058522918408571836_);fill:#212121;}
	.st9{clip-path:url(#SVGID_00000065756857942544454500000002378968744726081933_);fill:#212121;}
	.st10{clip-path:url(#SVGID_00000113320277911532245350000013017798531141534616_);fill:#E7A723;}
	.st11{clip-path:url(#SVGID_00000149350144539101513170000002681470640369785738_);fill:#E7A723;}
	.st12{clip-path:url(#SVGID_00000163783107731386620410000006397087415161076662_);fill:#E7A723;}
	.st13{clip-path:url(#SVGID_00000172399473253739187740000018050332551359222161_);fill:#E7A723;}
	.st14{clip-path:url(#SVGID_00000059988472444495689180000008170904635061992111_);fill:#E7A723;}
	.st15{clip-path:url(#SVGID_00000133517092256139261820000008986180935499509918_);fill:#E7A723;}
	.st16{clip-path:url(#SVGID_00000066484234469383144850000010189783982600376194_);fill:#E7A723;}
	.st17{clip-path:url(#SVGID_00000173860249751845367740000004073920608441310111_);fill:#E7A723;}
	.st18{clip-path:url(#SVGID_00000123438995535808973630000008879143667365989039_);fill:#E7A723;}
</style>
<g>
	<g>
		<defs>
			<rect id="SVGID_1_" y="-1.3" width="400" height="2001.3"/>
		</defs>
		<clipPath id="SVGID_00000098205496428873806580000012157956872437504693_">
			<use xlink:href="#SVGID_1_"  style="overflow:visible;"/>
		</clipPath>
		
			<rect x="0.8" y="-1.1" style="clip-path:url(#SVGID_00000098205496428873806580000012157956872437504693_);fill:#212121;" width="391.3" height="1994.5"/>
	</g>
	<g>
		<defs>
			<rect id="SVGID_00000126284019347631399290000016474627487650688178_" y="-1.3" width="400" height="2001.3"/>
		</defs>
		<clipPath id="SVGID_00000026156362866258102150000013281971365698907031_">
			<use xlink:href="#SVGID_00000126284019347631399290000016474627487650688178_"  style="overflow:visible;"/>
		</clipPath>
		<path style="clip-path:url(#SVGID_00000026156362866258102150000013281971365698907031_);fill:#FFFFFF;" d="M270.4,1699.2
			c1-21.9,1.9-43,2.9-64.5c-23.1-10.9-46.7-16.7-69.1-23.6c-23.6,5.3-45.7,13.4-68.8,21.6c0,24.2,0,46.2,0,68.4
			c-4.4,7.4-7.5,10.6-16,23.8c6.7,11.1,16.2,21.2,26.4,29.8c5.9-1.4,19.4-2.5,19.2-0.5c3.3,2.7,11.3,23.1,11.6,22.2
			c38.4,15.7,14.1,16.9,56.6-1.5c2.9-7,6.2-14.8,9.2-22.3c5.7-1.5,20.3,1.8,20.6,1.3c9.6-9.3,18.2-19.3,25.1-30.5
			C279,1711.5,269.5,1698.7,270.4,1699.2z M166.4,1730.8c-10,0-18.2-8.1-18.2-18.2c0-10,8.1-18.2,18.2-18.2s18.2,8.1,18.2,18.2
			C184.5,1722.5,176.4,1730.8,166.4,1730.8z M194.3,1741.7l9.4-16.3l9.4,16.3H194.3z M240.7,1730.8c-10,0-18.2-8.1-18.2-18.2
			c0-10,8.1-18.2,18.2-18.2s18.2,8.1,18.2,18.2C258.9,1722.5,250.7,1730.8,240.7,1730.8z"/>
	</g>
	<g>
		<defs>
			<rect id="SVGID_00000030444755650678503980000014991648354348826265_" y="-1.3" width="400" height="2001.3"/>
		</defs>
		<clipPath id="SVGID_00000007390292665458725080000006516682530962786211_">
			<use xlink:href="#SVGID_00000030444755650678503980000014991648354348826265_"  style="overflow:visible;"/>
		</clipPath>
		
			<path style="clip-path:url(#SVGID_00000007390292665458725080000006516682530962786211_);fill:none;stroke:#E7A723;stroke-width:14;stroke-miterlimit:10;" d="
			M373-1.3"/>
	</g>
	<g>
		<defs>
			<rect id="SVGID_00000070081714395776917650000002339191859174427545_" y="-1.3" width="400" height="2001.3"/>
		</defs>
		<clipPath id="SVGID_00000091706286295407713130000001506884403491313818_">
			<use xlink:href="#SVGID_00000070081714395776917650000002339191859174427545_"  style="overflow:visible;"/>
		</clipPath>
		
			<polyline style="clip-path:url(#SVGID_00000091706286295407713130000001506884403491313818_);fill:none;stroke:#E7A723;stroke-width:16;stroke-miterlimit:10;" points="
			392.7,-1.8 392.7,1992.7 6.8,1992.7 6.8,-1.8 		"/>
	</g>
	<g>
		<defs>
			<rect id="SVGID_00000157298810432301171890000006055317137416048055_" y="-1.3" width="400" height="2001.3"/>
		</defs>
		<clipPath id="SVGID_00000091709626792600611210000002599514403430107803_">
			<use xlink:href="#SVGID_00000157298810432301171890000006055317137416048055_"  style="overflow:visible;"/>
		</clipPath>
		<polygon style="clip-path:url(#SVGID_00000091709626792600611210000002599514403430107803_);fill:#E7A723;" points="56.6,-1.8 
			33.8,-1.8 33.8,1607.3 56.6,1634.6 		"/>
	</g>
	<g>
		<defs>
			<rect id="SVGID_00000114056120187507324560000016763315976674463409_" y="-1.3" width="400" height="2001.3"/>
		</defs>
		<clipPath id="SVGID_00000076583958225158576170000013101422911919130242_">
			<use xlink:href="#SVGID_00000114056120187507324560000016763315976674463409_"  style="overflow:visible;"/>
		</clipPath>
		<polygon style="clip-path:url(#SVGID_00000076583958225158576170000013101422911919130242_);fill:#E7A723;" points="345.2,-1.3 
			368,-1.3 368,1607.8 345.2,1635.1 		"/>
	</g>
	<g>
		<defs>
			<rect id="SVGID_00000132785900648106030180000005866633140612443566_" y="-1.3" width="400" height="2001.3"/>
		</defs>
		<clipPath id="SVGID_00000144322406808359549900000015037837331781296290_">
			<use xlink:href="#SVGID_00000132785900648106030180000005866633140612443566_"  style="overflow:visible;"/>
		</clipPath>
		<polygon style="clip-path:url(#SVGID_00000144322406808359549900000015037837331781296290_);fill:#E7A723;" points="308,-0.8 
			330.8,-0.8 330.8,1662.4 308,1690.6 		"/>
	</g>
	<g>
		<defs>
			<rect id="SVGID_00000131368183721105365760000003340969520977370269_" y="-1.3" width="400" height="2001.3"/>
		</defs>
		<clipPath id="SVGID_00000032635896181749922330000016031379215148815255_">
			<use xlink:href="#SVGID_00000131368183721105365760000003340969520977370269_"  style="overflow:visible;"/>
		</clipPath>
		<polygon style="clip-path:url(#SVGID_00000032635896181749922330000016031379215148815255_);fill:#E7A723;" points="95.8,-1.3 
			73,-1.3 73,1661.9 95.8,1690.1 		"/>
	</g>
	<g>
		<defs>
			<rect id="SVGID_00000155856375165031247560000017612199185505562814_" y="-1.3" width="400" height="2001.3"/>
		</defs>
		<clipPath id="SVGID_00000119112652229887859420000018104019816289782967_">
			<use xlink:href="#SVGID_00000155856375165031247560000017612199185505562814_"  style="overflow:visible;"/>
		</clipPath>
		<polyline style="clip-path:url(#SVGID_00000119112652229887859420000018104019816289782967_);fill:#212121;" points="294.9,-1.3 
			307.3,-82 444.8,28.5 280.4,92.5 294.9,-1.3 		"/>
	</g>
	<g>
		<defs>
			<rect id="SVGID_00000072969796415823755290000014788986153010446224_" y="-1.3" width="400" height="2001.3"/>
		</defs>
		<clipPath id="SVGID_00000101791592555632192450000001378031723161831595_">
			<use xlink:href="#SVGID_00000072969796415823755290000014788986153010446224_"  style="overflow:visible;"/>
		</clipPath>
		<polygon style="clip-path:url(#SVGID_00000101791592555632192450000001378031723161831595_);fill:#212121;" points="116,89.6 
			89.1,-84.9 -48.4,25.6 		"/>
	</g>
	<g>
		<defs>
			<rect id="SVGID_00000056412407407486102860000005941888939531688084_" y="-1.3" width="400" height="2001.3"/>
		</defs>
		<clipPath id="SVGID_00000075847245122166397210000005284313685756026804_">
			<use xlink:href="#SVGID_00000056412407407486102860000005941888939531688084_"  style="overflow:visible;"/>
		</clipPath>
		<polygon style="clip-path:url(#SVGID_00000075847245122166397210000005284313685756026804_);fill:#E7A723;" points="141.8,137.7 
			130.4,129.3 119,137.7 123.3,124.2 111.9,115.9 126,115.9 130.4,102.4 134.8,115.9 148.9,115.9 137.5,124.2 		"/>
	</g>
	<g>
		<defs>
			<rect id="SVGID_00000072282678519897657540000003059623914939691922_" y="-1.3" width="400" height="2001.3"/>
		</defs>
		<clipPath id="SVGID_00000174576597041335121540000013726056920926719622_">
			<use xlink:href="#SVGID_00000072282678519897657540000003059623914939691922_"  style="overflow:visible;"/>
		</clipPath>
		<polygon style="clip-path:url(#SVGID_00000174576597041335121540000013726056920926719622_);fill:#E7A723;" points="215.4,152 
			204,143.7 192.6,152 196.9,138.5 185.5,130.2 199.6,130.2 204,116.7 208.4,130.2 222.5,130.2 211.1,138.5 		"/>
	</g>
	<g>
		<defs>
			<rect id="SVGID_00000110432612392786541310000016598638564212686783_" y="-1.3" width="400" height="2001.3"/>
		</defs>
		<clipPath id="SVGID_00000065774890837966636120000002966129831545590166_">
			<use xlink:href="#SVGID_00000110432612392786541310000016598638564212686783_"  style="overflow:visible;"/>
		</clipPath>
		<polygon style="clip-path:url(#SVGID_00000065774890837966636120000002966129831545590166_);fill:#E7A723;" points="259.1,137.7 
			270.6,129.3 282,137.7 277.6,124.2 289.1,115.9 274.9,115.9 270.6,102.4 266.2,115.9 252.1,115.9 263.5,124.2 		"/>
	</g>
	<g>
		<defs>
			<rect id="SVGID_00000150796097435721094810000010885308099951527040_" y="-1.3" width="400" height="2001.3"/>
		</defs>
		<clipPath id="SVGID_00000177474522615930592200000012374884720473655993_">
			<use xlink:href="#SVGID_00000150796097435721094810000010885308099951527040_"  style="overflow:visible;"/>
		</clipPath>
		<polygon style="clip-path:url(#SVGID_00000177474522615930592200000012374884720473655993_);fill:#E7A723;" points="313.7,73.3 
			319.4,69.1 325.1,73.3 322.9,66.6 328.6,62.4 321.6,62.4 319.4,55.7 317.2,62.4 310.1,62.4 315.9,66.6 		"/>
	</g>
	<g>
		<defs>
			<rect id="SVGID_00000111185221963961887660000001449770284944594050_" y="-1.3" width="400" height="2001.3"/>
		</defs>
		<clipPath id="SVGID_00000077291861908554888440000013462749685904679869_">
			<use xlink:href="#SVGID_00000111185221963961887660000001449770284944594050_"  style="overflow:visible;"/>
		</clipPath>
		<polygon style="clip-path:url(#SVGID_00000077291861908554888440000013462749685904679869_);fill:#E7A723;" points="347.8,58.9 
			353.5,54.8 359.2,58.9 357.1,52.2 362.8,48 355.7,48 353.5,41.3 351.3,48 344.3,48 350,52.2 		"/>
	</g>
	<g>
		<defs>
			<rect id="SVGID_00000106134611565960470430000009291333696599506354_" y="-1.3" width="400" height="2001.3"/>
		</defs>
		<clipPath id="SVGID_00000099627047215111841440000007385668336581104534_">
			<use xlink:href="#SVGID_00000106134611565960470430000009291333696599506354_"  style="overflow:visible;"/>
		</clipPath>
		<polygon style="clip-path:url(#SVGID_00000099627047215111841440000007385668336581104534_);fill:#E7A723;" points="385.1,47 
			390.9,42.9 396.6,47 394.4,40.3 400.1,36.1 393,36.1 390.9,29.4 388.7,36.1 381.6,36.1 387.3,40.3 		"/>
	</g>
	<g>
		<defs>
			<rect id="SVGID_00000140721098760830621210000011882509568320158105_" y="-1.3" width="400" height="2001.3"/>
		</defs>
		<clipPath id="SVGID_00000150102987880989419860000000266564165388934801_">
			<use xlink:href="#SVGID_00000140721098760830621210000011882509568320158105_"  style="overflow:visible;"/>
		</clipPath>
		<polygon style="clip-path:url(#SVGID_00000150102987880989419860000000266564165388934801_);fill:#E7A723;" points="90.8,73 
			85.1,68.8 79.4,73 81.6,66.3 75.9,62.1 82.9,62.1 85.1,55.4 87.3,62.1 94.4,62.1 88.7,66.3 		"/>
	</g>
	<g>
		<defs>
			<rect id="SVGID_00000162349732340608646100000016829323846077646754_" y="-1.3" width="400" height="2001.3"/>
		</defs>
		<clipPath id="SVGID_00000026880655468232398760000000657444920747838880_">
			<use xlink:href="#SVGID_00000162349732340608646100000016829323846077646754_"  style="overflow:visible;"/>
		</clipPath>
		<polygon style="clip-path:url(#SVGID_00000026880655468232398760000000657444920747838880_);fill:#E7A723;" points="56.7,58.6 
			51,54.5 45.3,58.6 47.5,51.9 41.7,47.8 48.8,47.8 51,41 53.2,47.8 60.3,47.8 54.5,51.9 		"/>
	</g>
	<g>
		<defs>
			<rect id="SVGID_00000135671392564293959350000010079483820883276443_" y="-1.3" width="400" height="2001.3"/>
		</defs>
		<clipPath id="SVGID_00000158019678430569094280000012797222338629423790_">
			<use xlink:href="#SVGID_00000135671392564293959350000010079483820883276443_"  style="overflow:visible;"/>
		</clipPath>
		<polygon style="clip-path:url(#SVGID_00000158019678430569094280000012797222338629423790_);fill:#E7A723;" points="19.4,46.7 
			13.7,42.6 7.9,46.7 10.1,40 4.4,35.8 11.5,35.8 13.7,29.1 15.8,35.8 22.9,35.8 17.2,40 		"/>
	</g>
</g>
</svg>
