<?xml version="1.0" encoding="utf-8"?>
<!-- Generator: Adobe Illustrator 28.3.0, SVG Export Plug-In . SVG Version: 6.00 Build 0)  -->
<svg version="1.1" id="Layer_1" xmlns="http://www.w3.org/2000/svg" xmlns:xlink="http://www.w3.org/1999/xlink" x="0px" y="0px"
	 viewBox="0 0 1000 1000" style="enable-background:new 0 0 1000 1000;" xml:space="preserve">
<style type="text/css">
	.st0{fill:#C6C6C5;}
	.st1{fill:#FEEE7E;}
</style>
<path class="st0" d="M978.8,637.1c0,2.9,0,5.8,0,8.7c-47.5,56.5-95.3,112.8-142.3,169.8c-10.3,12.5-19.6,17-35.1,9.3
	c-16.8-8.4-34.5-15.1-52.2-21.4c-11.1-4-21.3-13.3-34.1-8.7c-7.1,6.2-7.5,14.7-9.7,22.1c-10.7,36-21.5,72.1-31,108.5
	c-3.9,14.9-10.6,23.2-26.3,27.4c-44.7,11.8-89.1,25.3-133.4,38.6c-10.2,3.1-19.5,3.1-29.7,0.1c-45-13.6-90-27.2-135.4-39.4
	c-14-3.8-20.2-11.3-23.7-24.4c-10-37-20.6-73.8-31.6-110.6c-2.4-7.9-2.2-17.6-13.5-24.4c-25.4,6.3-51,18.1-76.2,30.1
	c-20.3,9.6-32,4.9-45.6-12c-45.1-55.7-91.8-110.1-137.9-165c0-4.4,0-8.7,0-13.1c38.1-31.1,68.9-69.7,104.7-103.2
	c10.1-9.5,12.4-19.6,11.5-32.9c-8.3-115.6-15.9-231.3-24.1-346.9c-1-13.8,3-21.5,16.5-25.9C250.1,84.6,370.4,45,490.6,5.5
	c2.6,0,4.4-1.1,5-3.8c2.9,0,5.8,0,8.7,0c0.5,2.7,2.3,3.9,5,3.9c120.3,39.5,240.6,79.2,361,118.4c13.6,4.4,17.2,12.1,16.2,26
	c-8.4,116.4-15.9,232.8-24.3,349.1c-0.9,13,3.1,21.7,11.9,30.6C909.3,565.2,943.9,601.2,978.8,637.1z M809.7,580.3
	c-0.2-55-44.6-99.5-99.3-99.5c-54.2,0-99.4,45.1-99.8,99.6c-0.4,55.4,45.1,100.6,100.9,100.2C766.2,680.3,809.9,635.7,809.7,580.3z
	 M190.1,579.9c-0.4,55.3,43.2,100.2,97.7,100.8c55.9,0.6,101.7-44.5,101.4-99.8c-0.3-54.6-45.1-99.7-99.3-100
	C235.3,480.5,190.5,525,190.1,579.9z M465.5,801.5c16.4-6.9,20-25.8,34.7-33.2c14.3,8.2,18.1,26.8,33.6,32.7
	c31.8-15.1,33.3-19.9,15.3-47.7c-9-14-17.7-28.2-27.3-41.8c-6.4-9.1-9.3-21.6-24.9-26.2c-17.5,20-30.2,44.3-45.2,66.8
	C432.5,781,433.5,783.9,465.5,801.5z"/>
<path class="st1" d="M490.6,5.5c0.4-1.3,0.6-2.5,0.7-3.8c1.5,0,2.9,0,4.4,0C495.1,4.3,493.3,5.5,490.6,5.5z"/>
<path class="st1" d="M508.7,1.6c0,1.3,0.2,2.6,0.6,3.9c-2.7,0-4.4-1.1-5-3.9C505.8,1.6,507.3,1.6,508.7,1.6z"/>
</svg>
