<?xml version="1.0" encoding="utf-8"?>
<!-- Generator: Adobe Illustrator 28.3.0, SVG Export Plug-In . SVG Version: 6.00 Build 0)  -->
<svg version="1.1" id="Layer_1" xmlns="http://www.w3.org/2000/svg" xmlns:xlink="http://www.w3.org/1999/xlink" x="0px" y="0px"
	 viewBox="0 0 1000 1000" style="enable-background:new 0 0 1000 1000;" xml:space="preserve">
<style type="text/css">
	.st0{fill:#FFFFFF;}
	.st1{fill:none;stroke:#FFFFFF;stroke-width:40;stroke-miterlimit:10;}
	.st2{fill:none;stroke:#FFFFFF;stroke-width:5;stroke-miterlimit:10;}
	.st3{fill:#FFFFFF;stroke:#FFFFFF;stroke-width:7;stroke-miterlimit:10;}
</style>
<path class="st0" d="M549.4,944.3c-6.7-6-12.7-11.4-12.7-12.7s4.7-2,10.7-2c10,0,11.4,1.3,18.1,9.4c8,11.4,8,12,1.3,14.1
	C563.4,954.3,558.1,951.6,549.4,944.3L549.4,944.3z"/>
<path class="st0" d="M442.3,949.6c-4-2-1.3-6.7,24.1-40.2l28.8-37.5l21.4-10c12.7-6,33.5-12.7,49.5-16.7
	c77.6-18.1,125.8-40.8,171.4-84.3c36.8-34.8,62.9-75.6,81-125.2c16.1-44.8,20.8-87,16.1-137.9c-7.4-76.3-34.1-143.9-83.7-210.2
	l-20.8-28.1l14.7,8.7c49.5,28.1,46.9,25.4,63.6,54.9c16.7,29.5,26.1,50.2,38.2,87c10.7,32.1,14.7,52.9,18.7,94.4
	c12,136.5-53.5,261.1-172,328.7c-25.4,14.7-59.6,28.1-87.7,35.5c-10.7,2.7-28.1,9.4-39.5,14.1c-10.7,4.7-25.4,10.7-32.1,13.4
	c-34.8,14.1-54.2,25.4-68.3,40.8C449,953.6,449,953.6,442.3,949.6L442.3,949.6z"/>
<path class="st0" d="M496.5,923.5c0-5.4,70.3-34.1,107.8-43.5c121.2-30.8,217.5-118.5,255-232.3c13.4-40.2,16.7-62.9,16.1-113.1
	c0-44.8-3.3-71-12-104.4c-2-7.4-3.3-13.4-2.7-13.4s10,11.4,20.8,26.1l20.1,26.1l3.3,30.1c12,116.5-26.1,226.2-106.4,305.9
	c-66.9,66.9-146.6,105.1-237,113.1c-20.8,2-44.2,4-51.5,5.4C502.5,924.2,496.5,924.2,496.5,923.5z"/>
<path class="st0" d="M413.5,906.8c-153.3-40.2-263.7-156.6-289.8-305.2c-5.4-29.5-6-89-1.3-122.5l3.3-25.4l18.7-24.1
	c26.8-34.1,26.8-33.5,19.4-10c-14.7,50.2-18.7,126.5-10,175.4c22.8,126.5,111.8,228.9,237,272.4c20.1,7.4,68.3,19.4,75.6,19.4
	c0.7,0,1.3,2,1.3,5.4c0,6.7-16.1,22.8-22.1,22.8C443.6,914.1,428.9,910.8,413.5,906.8L413.5,906.8z"/>
<path class="st0" d="M444.3,870c-102.4-18.7-198.1-88.4-245-178.7c-32.8-63.6-44.2-125.2-36.8-198.1c5.4-54.9,17.4-97.7,41.5-147.9
	c22.8-47.5,26.8-52.2,58.9-70.3c16.1-8.7,29.5-16.7,30.8-16.7c1.3-0.7-5.4,8.7-14.7,20.8c-51.5,66.3-81,138.6-87.7,220.9
	c-11.4,131.2,55.6,251.7,172,309.9c32.8,16.7,60.9,25.4,92.4,29.5c22.1,2.7,56.9,12,56.9,15.4c0,0.7-4.7,3.3-10,6
	c-5.4,2.7-12,6.7-14.1,9.4C484.4,874.6,473.1,874.6,444.3,870L444.3,870z"/>
<circle class="st1" cx="520" cy="518" r="258.5"/>
<circle class="st2" cx="520" cy="518" r="172.8"/>
<circle class="st0" cx="520" cy="518" r="32.5"/>
<line class="st3" x1="692.8" y1="518" x2="724.8" y2="518"/>
<line class="st3" x1="315.3" y1="518" x2="347.2" y2="518"/>
<line class="st3" x1="520" y1="345.2" x2="520" y2="313.3"/>
<line class="st3" x1="520" y1="722.8" x2="520" y2="690.8"/>
</svg>
