<?xml version="1.0" encoding="utf-8"?>
<!-- Generator: Adobe Illustrator 28.3.0, SVG Export Plug-In . SVG Version: 6.00 Build 0)  -->
<svg version="1.1" id="Layer_1" xmlns="http://www.w3.org/2000/svg" xmlns:xlink="http://www.w3.org/1999/xlink" x="0px" y="0px"
	 viewBox="0 0 1000 1000" style="enable-background:new 0 0 1000 1000;" xml:space="preserve">
<style type="text/css">
	.st0{fill:url(#SVGID_1_);stroke:#000000;stroke-miterlimit:10;}
	.st1{fill:url(#SVGID_00000084515978918104230190000007791165088860315542_);}
	.st2{fill:url(#SVGID_00000180353999882546236520000013712069880487068604_);stroke:#000000;stroke-miterlimit:10;}
	.st3{fill:url(#SVGID_00000049215211290448724370000017908116153541908400_);}
	.st4{fill:url(#SVGID_00000127766568511199969170000010694570279262728877_);stroke:#000000;stroke-miterlimit:10;}
	.st5{fill:url(#SVGID_00000157997116246027238130000000670619889142316715_);stroke:#000000;stroke-miterlimit:10;}
	.st6{fill:url(#SVGID_00000032614457423178422020000012265013559740868534_);stroke:#000000;stroke-miterlimit:10;}
	.st7{fill:url(#SVGID_00000091737251359281898630000011344681484954228383_);stroke:#000000;stroke-miterlimit:10;}
	.st8{fill:url(#SVGID_00000166660567854140805730000003696761462274743186_);stroke:#000000;stroke-miterlimit:10;}
	.st9{fill:url(#SVGID_00000078038218887778374080000007551447263102717329_);stroke:#000000;stroke-miterlimit:10;}
</style>
<linearGradient id="SVGID_1_" gradientUnits="userSpaceOnUse" x1="258.2" y1="95.6" x2="527.8" y2="95.6">
	<stop  offset="0" style="stop-color:#ECC047"/>
	<stop  offset="1" style="stop-color:#98562F"/>
</linearGradient>
<polygon class="st0" points="527.8,95.6 258.2,29.3 258.2,161.9 "/>
<linearGradient id="SVGID_00000112624589354575603560000000559498772473648553_" gradientUnits="userSpaceOnUse" x1="472.2" y1="95.6" x2="741.8" y2="95.6">
	<stop  offset="0" style="stop-color:#ECC047"/>
	<stop  offset="1" style="stop-color:#98562F"/>
</linearGradient>
<polygon style="fill:url(#SVGID_00000112624589354575603560000000559498772473648553_);" points="472.2,95.6 741.8,29.3 
	741.8,161.9 "/>
<linearGradient id="SVGID_00000129887902087172596080000012096275234400251554_" gradientUnits="userSpaceOnUse" x1="258.2" y1="915.05" x2="527.8" y2="915.05">
	<stop  offset="0" style="stop-color:#ECC047"/>
	<stop  offset="1" style="stop-color:#98562F"/>
</linearGradient>
<polygon style="fill:url(#SVGID_00000129887902087172596080000012096275234400251554_);stroke:#000000;stroke-miterlimit:10;" points="
	527.8,915.1 258.2,848.7 258.2,981.4 "/>
<linearGradient id="SVGID_00000007409472244402789640000012552909603614918546_" gradientUnits="userSpaceOnUse" x1="472.2" y1="915.05" x2="741.8" y2="915.05">
	<stop  offset="0" style="stop-color:#ECC047"/>
	<stop  offset="1" style="stop-color:#98562F"/>
</linearGradient>
<polygon style="fill:url(#SVGID_00000007409472244402789640000012552909603614918546_);" points="472.2,915.1 741.8,848.7 
	741.8,981.4 "/>
<g>
	
		<linearGradient id="SVGID_00000058568871167194286560000005719326993851397307_" gradientUnits="userSpaceOnUse" x1="338.8987" y1="543.2508" x2="442.4012" y2="543.2508">
		<stop  offset="0" style="stop-color:#ECC047"/>
		<stop  offset="1" style="stop-color:#98562F"/>
	</linearGradient>
	<path style="fill:url(#SVGID_00000058568871167194286560000005719326993851397307_);stroke:#000000;stroke-miterlimit:10;" d="
		M390.8,491.3c-28.4-0.2-51.7,22.9-51.9,51.5c-0.2,28.8,22.5,52.1,50.8,52.4c29.1,0.3,52.9-23.1,52.7-51.9
		C442.3,514.9,419,491.4,390.8,491.3z"/>
	
		<linearGradient id="SVGID_00000030478135071932814850000002320376866174061969_" gradientUnits="userSpaceOnUse" x1="495.1" y1="244.1" x2="495.6" y2="244.1">
		<stop  offset="0" style="stop-color:#ECC047"/>
		<stop  offset="1" style="stop-color:#98562F"/>
	</linearGradient>
	<path style="fill:url(#SVGID_00000030478135071932814850000002320376866174061969_);stroke:#000000;stroke-miterlimit:10;" d="
		M495.1,244.1c0.2,0,0.3,0,0.5,0C495.5,244.1,495.3,244.1,495.1,244.1z"/>
	
		<linearGradient id="SVGID_00000062175518807245704600000005539892882694496414_" gradientUnits="userSpaceOnUse" x1="495.8" y1="244" x2="496" y2="244">
		<stop  offset="0" style="stop-color:#ECC047"/>
		<stop  offset="1" style="stop-color:#98562F"/>
	</linearGradient>
	<path style="fill:url(#SVGID_00000062175518807245704600000005539892882694496414_);stroke:#000000;stroke-miterlimit:10;" d="
		M495.8,244c0.1,0,0.2,0,0.2,0S495.9,244,495.8,244z"/>
	
		<linearGradient id="SVGID_00000067199437597425830250000003718020527066151820_" gradientUnits="userSpaceOnUse" x1="468.3771" y1="627.8" x2="531.66" y2="627.8">
		<stop  offset="0" style="stop-color:#ECC047"/>
		<stop  offset="1" style="stop-color:#98562F"/>
	</linearGradient>
	<path style="fill:url(#SVGID_00000067199437597425830250000003718020527066151820_);stroke:#000000;stroke-miterlimit:10;" d="
		M511.4,611.2c-3.3-4.7-4.8-11.2-12.9-13.6c-9.1,10.4-15.7,23-23.5,34.7c-10,15-9.5,16.5,7.2,25.7c8.5-3.6,10.4-13.4,18-17.3
		c7.4,4.3,9.4,13.9,17.5,17c16.5-7.9,17.3-10.3,8-24.8C520.9,625.6,516.4,618.3,511.4,611.2z"/>
	
		<linearGradient id="SVGID_00000070821377524988948390000015391798050373998494_" gradientUnits="userSpaceOnUse" x1="557.4987" y1="543.1506" x2="661.1003" y2="543.1506">
		<stop  offset="0" style="stop-color:#ECC047"/>
		<stop  offset="1" style="stop-color:#98562F"/>
	</linearGradient>
	<path style="fill:url(#SVGID_00000070821377524988948390000015391798050373998494_);stroke:#000000;stroke-miterlimit:10;" d="
		M609.4,491.2c-28.2,0-51.7,23.5-51.9,51.8c-0.2,28.8,23.5,52.3,52.5,52.1c28.4-0.2,51.2-23.3,51.1-52.2
		C661,514.4,637.9,491.2,609.4,491.2z"/>
	
		<linearGradient id="SVGID_00000104673088904329651380000003524843205396183714_" gradientUnits="userSpaceOnUse" x1="116.6" y1="506.15" x2="883.5" y2="506.15">
		<stop  offset="0" style="stop-color:#ECC047"/>
		<stop  offset="1" style="stop-color:#98562F"/>
	</linearGradient>
	<path style="fill:url(#SVGID_00000104673088904329651380000003524843205396183714_);stroke:#000000;stroke-miterlimit:10;" d="
		M773.7,237.6L503.6,122.7L231.4,232.5l-114.8,270l109.7,272.2l270.1,114.9l272.2-109.7l114.9-270.1L773.7,237.6z M504.5,242
		c0,0.7,0.1,1.4,0.3,2c-1.4,0-2.3-0.6-2.6-2C503,242,503.8,242,504.5,242z M749,577c-24.7,29.4-49.6,58.7-74,88.3
		c-5.4,6.5-10.2,8.8-18.3,4.8c-8.7-4.4-17.9-7.9-27.1-11.1c-5.8-2.1-11.1-6.9-17.7-4.5c-3.7,3.2-3.9,7.6-5,11.5
		c-5.6,18.7-11.2,37.5-16.1,56.4c-2,7.7-5.5,12.1-13.7,14.2c-23.2,6.1-46.3,13.2-69.4,20.1c-5.3,1.6-10.1,1.6-15.4,0.1
		c-23.4-7.1-46.8-14.1-70.4-20.5c-7.3-2-10.5-5.9-12.3-12.7c-5.2-19.2-10.7-38.4-16.4-57.5c-1.2-4.1-1.1-9.2-7-12.7
		c-13.2,3.3-26.5,9.4-39.6,15.7c-10.6,5-16.6,2.5-23.7-6.2c-23.5-29-47.7-57.3-71.7-85.8c0-2.3,0-4.5,0-6.8
		c19.8-16.2,35.8-36.2,54.4-53.7c5.3-4.9,6.4-10.2,6-17.1c-4.3-60.1-8.3-120.3-12.5-180.4c-0.5-7.2,1.6-11.2,8.6-13.5
		c62.6-20.4,125.2-41,187.7-61.5c0.2-0.7,0.3-1.3,0.4-2c0.8,0,1.5,0,2.2,0c0,0,0,0,0.1,0c1.5,0,3,0,4.5,0c0.3,1.4,1.2,2,2.6,2
		c62.6,20.5,125.1,41.2,187.7,61.6c7.1,2.3,8.9,6.3,8.4,13.5c-4.4,60.5-8.3,121.1-12.6,181.5c-0.5,6.8,1.6,11.3,6.2,15.9
		c18.3,18.5,36.3,37.2,54.4,55.8C749,574,749,575.5,749,577z"/>
</g>
</svg>
