<?xml version="1.0" encoding="utf-8"?>
<!-- Generator: Adobe Illustrator 28.3.0, SVG Export Plug-In . SVG Version: 6.00 Build 0)  -->
<svg version="1.1" id="Layer_1" xmlns="http://www.w3.org/2000/svg" xmlns:xlink="http://www.w3.org/1999/xlink" x="0px" y="0px"
	 viewBox="0 0 4000 4000" style="enable-background:new 0 0 4000 4000;" xml:space="preserve">
<style type="text/css">
	.st0{fill:#B4B4B4;}
</style>
<g>
	<path class="st0" d="M1997.6,3025.7c-581.9-0.5-1024.7-447.6-1023.3-1033.4c1.4-575.7,448.5-1018.4,1028-1018
		c582,0.5,1024.7,447.5,1023.3,1033.3C3024.3,2583.2,2577,3026.1,1997.6,3025.7z M1210.3,1991.4c-1.2,446.2,340.5,796.7,778.4,798.3
		c446.9,1.7,798.9-339.3,801-775.8c2.1-452.6-339.3-802.8-783.7-803.6C1560.5,1209.5,1211.5,1552.1,1210.3,1991.4z"/>
	<path class="st0" d="M2002.4,2125.1c-113.6,0-227.3-3.6-340.6,1.3c-71.3,3.1-97-23.2-88.7-92.2c3.8-31.5,2-63.9,0.5-95.7
		c-2.2-44.5,16.2-64.1,62.1-63.9c241.3,1,482.7,1.3,724-0.2c51.3-0.3,70.4,20.8,67,70.1c-2.2,31.8-3,64.1,0.2,95.7
		c6.7,64.1-17.6,88.7-83.8,86.2C2229.6,2121.9,2115.9,2125.1,2002.4,2125.1z"/>
</g>
</svg>
