<?xml version="1.0" encoding="utf-8"?>
<!-- Generator: Adobe Illustrator 28.3.0, SVG Export Plug-In . SVG Version: 6.00 Build 0)  -->
<svg version="1.1" id="Layer_1" xmlns="http://www.w3.org/2000/svg" xmlns:xlink="http://www.w3.org/1999/xlink" x="0px" y="0px"
	 viewBox="0 0 384 384" style="enable-background:new 0 0 384 384;" xml:space="preserve">
<style type="text/css">
	.st0{fill:#265F72;stroke:#FFFFFF;stroke-width:5;stroke-miterlimit:10;}
	.st1{fill:#FFFFFF;}
	.st2{fill:none;stroke:#FFFFFF;stroke-width:3;stroke-miterlimit:10;}
</style>
<path class="st0" d="M361.2,337.6h-340c-6.6,0-12-5.4-12-12V76c0-6.6,5.4-12,12-12h340c6.6,0,12,5.4,12,12v249.6
	C373.2,332.2,367.8,337.6,361.2,337.6z"/>
<g>
	<path class="st1" d="M114.1,229.5c-1-0.9-1.9-1.7-1.9-1.9c0-0.2,0.7-0.3,1.6-0.3c1.5,0,1.7,0.2,2.7,1.4c1.2,1.7,1.2,1.8,0.2,2.1
		C116.2,231,115.4,230.6,114.1,229.5L114.1,229.5z"/>
	<path class="st1" d="M98.1,230.3c-0.6-0.3-0.2-1,3.6-6l4.3-5.6l3.2-1.5c1.9-0.9,5-1.9,7.4-2.5c11.6-2.7,18.8-6.1,25.6-12.6
		c5.5-5.2,9.4-11.3,12.1-18.7c2.4-6.7,3.1-13,2.4-20.6c-1.1-11.4-5.1-21.5-12.5-31.4l-3.1-4.2l2.2,1.3c7.4,4.2,7,3.8,9.5,8.2
		s3.9,7.5,5.7,13c1.6,4.8,2.2,7.9,2.8,14.1c1.8,20.4-8,39-25.7,49.1c-3.8,2.2-8.9,4.2-13.1,5.3c-1.6,0.4-4.2,1.4-5.9,2.1
		c-1.6,0.7-3.8,1.6-4.8,2c-5.2,2.1-8.1,3.8-10.2,6.1C99.1,230.9,99.1,230.9,98.1,230.3L98.1,230.3z"/>
	<path class="st1" d="M106.2,226.4c0-0.8,10.5-5.1,16.1-6.5c18.1-4.6,32.5-17.7,38.1-34.7c2-6,2.5-9.4,2.4-16.9
		c0-6.7-0.5-10.6-1.8-15.6c-0.3-1.1-0.5-2-0.4-2s1.5,1.7,3.1,3.9l3,3.9l0.5,4.5c1.8,17.4-3.9,33.8-15.9,45.7
		c-10,10-21.9,15.7-35.4,16.9c-3.1,0.3-6.6,0.6-7.7,0.8C107.1,226.5,106.2,226.5,106.2,226.4z"/>
	<path class="st1" d="M93.8,223.9c-22.9-6-39.4-23.4-43.3-45.6c-0.8-4.4-0.9-13.3-0.2-18.3l0.5-3.8l2.8-3.6c4-5.1,4-5,2.9-1.5
		c-2.2,7.5-2.8,18.9-1.5,26.2c3.4,18.9,16.7,34.2,35.4,40.7c3,1.1,10.2,2.9,11.3,2.9c0.1,0,0.2,0.3,0.2,0.8c0,1-2.4,3.4-3.3,3.4
		C98.3,225,96.1,224.5,93.8,223.9L93.8,223.9z"/>
	<path class="st1" d="M98.4,218.4c-15.3-2.8-29.6-13.2-36.6-26.7c-4.9-9.5-6.6-18.7-5.5-29.6c0.8-8.2,2.6-14.6,6.2-22.1
		c3.4-7.1,4-7.8,8.8-10.5c2.4-1.3,4.4-2.5,4.6-2.5c0.2-0.1-0.8,1.3-2.2,3.1c-7.7,9.9-12.1,20.7-13.1,33
		c-1.7,19.6,8.3,37.6,25.7,46.3c4.9,2.5,9.1,3.8,13.8,4.4c3.3,0.4,8.5,1.8,8.5,2.3c0,0.1-0.7,0.5-1.5,0.9c-0.8,0.4-1.8,1-2.1,1.4
		C104.4,219.1,102.7,219.1,98.4,218.4L98.4,218.4z"/>
	<path class="st1" d="M106.5,212.6c-2.7-0.2-8.4-1.1-10.8-1.9c-3.4-1.1-8.3-3.3-10.9-4.9c-1.8-1.1-2.8-1.6-3.3-1.4
		c-0.5,0.2-1.3-0.2-2.5-1.2c-1-0.8-1.9-1.5-1.9-1.6c-0.1,0,0-0.3,0.3-0.6c0.6-0.7-1.7-3-2.8-2.7c-0.5,0.1-1.1-0.1-1.7-0.8
		c-0.8-0.8-0.8-1.1-0.4-1.6c0.4-0.5,0.2-0.9-1.1-3c-3.7-5.5-6.8-14-7.5-20.6c-1.4-12.8,1.8-24,9.6-34.1c3.1-3.9,7.2-7.4,13-10.6
		l4.5-2.6l0-2.8c0-2.7,0.1-3.1,1.8-6.3l1.8-3.5h2c1.9,0,2,0,2,0.9c0,0.7,0.2,0.9,0.8,0.9c0.8,0,0.8,0.2,0.6,4.2l-0.1,4.2l1.1-0.1
		l1.1-0.1l0.1-8.3l0.1-8.3l2.4-5.6l2.4-5.6h2.6h2.6v1.5c0,1.3,0.1,1.5,0.8,1.5c0.6,0,0.8,0.3,0.8,1.3s0.2,1.3,0.8,1.3
		c0.8,0,0.8,0.3,0.8,11.1c0,9.8,0.1,11.2,0.6,11.4c0.9,0.3,1.4,0.3,1.1-0.1c-0.1-0.2,0-0.5,0.2-0.6c0.2-0.2,0.4-2.4,0.4-5.6
		c0-5,0-5.3,0.8-5.5c0.6-0.2,0.8-0.5,0.8-1.5v-1.3l1.7,0.1l1.7,0.1l2,3.5l2,3.6v4.6c0,5.4,0.3,6.2,3.3,7.8c2,1.1,5.1,3.1,8.1,5.5
		c3.7,2.8,9.7,11.3,12.1,17.2c2.9,7,4.1,16.3,3.1,23.6c-1.1,7.1-4.1,14.6-8.2,20c-1.1,1.5-2.1,2.9-2.1,3.1c0,0.2,0.3,0.5,0.6,0.8
		c0.3,0.3,0.6,0.6,0.6,0.8c0,0.2-1.1,1.3-2.5,2.4c-2,1.7-2.6,2-2.9,1.6c-0.4-0.7-1.1-0.7-1.7-0.1c-0.3,0.3-0.3,0.6,0.2,1.1
		c0.5,0.6,0.5,0.8-1.2,2c-1.8,1.4-1.8,1.4-2.5,0.7c-0.7-0.7-0.8-0.7-4,0.9C122.5,210.9,113.4,213,106.5,212.6L106.5,212.6z
		 M108.1,204v-5.4l-2.3-0.3c-6.1-0.7-12.2-3.2-16.6-6.7c-1.3-1.1-2.5-1.9-2.6-1.8c-0.1,0.1-0.5,1.6-0.8,3.3
		c-0.9,4.5-2.2,5.6-4.1,3.5l-0.9-1.1l-0.8,0.8l-0.9,0.9l1.3,1.3c1.7,1.7,6,4.7,8.9,6.1c5.3,2.7,11.3,4.2,17.7,4.6l1,0.1V204
		L108.1,204z M117.2,208.3c6-1.3,11.5-3.9,16.6-7.8c3.3-2.5,3.3-2.4,0.8-4.9c-2-2-2.3-2.2-3-1.8c-0.4,0.3-0.8,0.7-0.8,1
		c0,0.3-0.4,1.1-1,1.7c-0.8,1-0.9,1.4-0.7,3.1c0.3,1.9,0.2,2-0.9,2.5c-1.4,0.5-3.1,0.2-3.1-0.6c0-0.3-0.3-0.6-0.6-0.6
		c-0.8,0-1.8-1.3-2.5-3.3c-0.3-1-0.8-1.7-1.1-1.7c-0.3,0-1.9,0.5-3.6,1c-1.8,0.5-4.3,1-5.6,1.2l-2.5,0.3v5.4v5.5l2.4-0.2
		C112.9,209.1,115.4,208.7,117.2,208.3L117.2,208.3z M139.8,195c2.2-2.4,4.5-5.9,6.3-9.6c1.7-3.7,1.6-4.4-0.8-4.4h-1.4l-0.2-2
		c-0.2-2.4,0.5-4.6,1.9-6.4c0.6-0.7,1.2-1.7,1.3-2.1c0.2-0.6,0.7-0.9,1.7-1.1c1-0.2,1.5-0.4,1.5-0.8c0-0.5-0.7-0.6-4.8-0.5l-4.8,0.1
		l-0.5,2.8c-0.2,1.5-0.7,3.6-1,4.6c-0.5,1.6-0.5,1.9,0,2.4c0.4,0.5,0.4,0.8-0.5,2.4c-0.6,1.1-0.9,2.1-0.8,2.5
		c0.4,1.3-0.5,3.3-2.2,4.4c-1.1,0.8-1.7,1.5-2.1,2.7l-0.6,1.7l2.4,2.4c1.3,1.3,2.5,2.4,2.7,2.4C138.2,196.6,139,195.9,139.8,195
		L139.8,195z M108.1,187.9c0-8.1,0-8.3-0.8-8.3c-1.2,0-4.5-1.4-5.8-2.4l-1.3-0.9l-5.8,5.8c-6.6,6.6-6.4,6-2.7,8.5
		c4.5,3.1,11,5.4,15.5,5.6l0.8,0V187.9z M115.3,195.2c1.1-0.3,2.8-0.8,3.7-1.1c1.4-0.5,1.6-0.7,1.4-1.4c-0.4-1.3-1.1-1.8-2.8-2
		c-1.9-0.3-4.2-1.9-4.9-3.5c-0.2-0.6-0.8-1.1-1.2-1.3c-0.6-0.2-0.7-0.4-0.5-1.4c0.2-0.8,0.1-1.2-0.2-1.2c-0.2,0-0.3-0.3-0.2-0.6
		c0.1-0.4,0.3-1.3,0.4-1.9c0.2-1.2,0.2-1.3-0.6-1.1l-0.9,0.1l-0.1,8.3l-0.1,8.3l2-0.3C112.3,195.9,114.1,195.5,115.3,195.2
		L115.3,195.2z M73.4,187.6c0.2-1.6,0.4-2,0.8-1.9c0.3,0.2,0.5-0.1,0.5-0.6c0-2,1.7-3.1,2-1.2c0.1,0.8,0.3,1.1,1.4,1.1l1.2,0.1v-1.9
		v-1.9l1.1,1.3c0.6,0.7,1.1,1.5,1.1,1.7c0,0.2,0.5,0.6,1,1c1,0.6,1,0.6-0.2-1.1c-0.6-1-1.6-2.7-2.2-3.9c-0.9-1.9-1-2-1.3-1.3
		c-0.4,1.1-0.9,1.1-1.9-0.1c-0.5-0.5-1.1-0.9-1.3-0.9c-0.5,0-0.6-0.4-0.3-1.3c0.2-0.4,0.6-0.5,1.7-0.3c1.4,0.2,1.5,0.1,1.3-0.5
		c-0.5-1.8-1-3.9-1.2-5.7l-0.3-2h-5.3h-5.3v1.9c0,2.5,0.9,7.3,2.1,10.7c1.1,3.1,3.9,9.1,4.4,9.1C73,189.8,73.3,188.8,73.4,187.6
		L73.4,187.6z M93.5,181l5.8-5.8l-1.2-2.3c-1.3-2.6-1.6-2.9-2.7-2.9c-0.5,0-0.9-0.4-1.2-0.9l-0.5-0.9l-7.1,0.1l-7.1,0.1l0.1,1.3
		c0.2,2.1,1.5,6.6,2.7,9.3c1.5,3.3,4.6,7.8,5.3,7.8C87.7,186.7,90.4,184.2,93.5,181L93.5,181z M130.1,177.8c0.5-0.6,2.1-0.8,2.4-0.2
		c0.1,0.2,0.8,0.2,1.9,0l1.8-0.4l0.8-2.9c0.4-1.6,0.8-3.6,0.9-4.4l0.1-1.5l-7.9-0.1c-6.1-0.1-7.9,0-8,0.4c-0.1,0.3-0.4,1.4-0.7,2.4
		l-0.6,2l1.7,0.8c0.9,0.4,2.4,0.8,3.3,0.8c1.2,0,1.7,0.2,2.4,1c0.8,0.9,0.8,1.1,0.3,1.7c-0.3,0.4-0.6,0.8-0.6,0.9
		C127.8,178.6,129.6,178.4,130.1,177.8L130.1,177.8z M111.1,176.2c0.3-1.3,2.7-3.5,3.4-3.3c0.3,0.1,0.8,0,0.9-0.2
		c0.2-0.3,0.5-0.3,0.9,0c0.9,0.6,1.6-0.2,2.5-2.7c0.9-2.6,0.7-4.8-0.5-7.4c-1.4-3.1-3.6-4.9-7-5.7c-1.1-0.3-1.1-0.3-0.9,1.5
		c0.2,2-0.5,2.5-0.8,0.6c-0.2-1.1-0.3-1.3-1.7-1.5c-1.1-0.2-1.7-0.1-2.2,0.3c-0.3,0.3-1.1,0.6-1.6,0.6c-1.2,0-2.2,1.1-2.3,2.2
		c0,0.5-0.2,0.8-0.6,0.7c-0.8-0.1-2,2.6-2,4.5c0,1,0.3,1.7,0.9,2.4l0.9,0.9l1.2-0.7c0.6-0.4,1.4-1.2,1.7-1.8c0.3-0.6,0.7-1.1,1-1.2
		c0.5-0.2,0.5,0.3-0.2,3.6l-0.3,1.3l1.8-0.3l1.7-0.3v1.4c0,0.9,0.3,1.8,0.9,2.5c1.3,1.6,1.2,2-0.5,1.6c-0.8-0.2-1.5-0.3-1.5-0.3
		c0,0-0.3-0.6-0.7-1.3c-0.5-1-1-1.4-3.1-2c-3.8-1.1-3.9-1-1.8,1.5c2,2.4,5.2,3.8,7.9,3.7C110.6,177.1,110.9,176.9,111.1,176.2z
		 M77.2,163.9c0.6-5.8,3-11.8,6.3-16.2l1.5-2l-3.6-3.7l-3.7-3.6l-1.1,1.3c-1.7,2-4.7,6.4-5.8,8.6c-2.4,4.7-4.4,12.2-4.4,16.2v1.7
		h5.3h5.3L77.2,163.9L77.2,163.9z M93.7,165.8c0-0.3-0.4-0.9-0.9-1.4c-0.5-0.5-1.2-1.6-1.5-2.5c-0.4-1.1-0.7-1.5-1.2-1.4
		c-0.8,0.1-1.3-0.5-1.3-1.6c0-0.4-0.3-1.1-0.8-1.5c-0.7-0.6-0.8-1-0.6-2.9c0.2-1.2,0.5-2.8,0.8-3.6c0.6-1.4,0.6-1.4-0.4-2.4
		c-0.9-0.9-1-0.9-1.6-0.2c-3.2,4.2-5.3,8.6-6.3,13.6c-0.4,1.9-0.7,3.6-0.7,3.9c0,0.3,1.7,0.5,7.2,0.5
		C91.8,166.3,93.7,166.2,93.7,165.8L93.7,165.8z M138,165.5c0-1.7-1.3-6.8-2.3-9.4c-0.6-1.5-1.9-3.9-2.9-5.4l-1.7-2.7l-5.6,5.7
		l-5.7,5.6l0.8,1.6c0.5,0.9,1,2.4,1.2,3.5l0.4,1.9h7.9C137.8,166.3,138,166.2,138,165.5z M141.7,165.7c0.3-0.5,0.6-0.5,1.8-0.2
		c0.8,0.2,2.7,0.5,4.1,0.6l2.5,0.2v-1.7c0-2-0.2-2.2-2-3c-0.8-0.4-1.5-0.9-1.6-1.3c-0.4-0.9-0.8-0.6-1.3,0.9
		c-0.9,2.9-1.9,0.6-1.9-4.2c0-1-0.2-1.9-0.4-2c-0.2-0.2-1.3,0-2.5,0.2c-1.9,0.4-2,0.5-1.8,1.3c0.8,2.5,1.3,4.9,1.5,7.2
		C140.4,166.2,141,167,141.7,165.7L141.7,165.7z M124.6,152.5l5.6-5.4l-2.1-1.9c-2.4-2.2-4.5-3.6-4.2-2.7c0.3,0.7-1.5,1.5-2.7,1.2
		c-0.8-0.2-1,0-1.4,0.7c-0.2,0.5-1.5,1.8-2.8,2.8c-2.1,1.5-2.4,1.9-2.4,3c0,0.8-0.4,1.7-1.3,2.7l-1.3,1.5l1.8,0.6
		c0.9,0.3,2.4,1.1,3.3,1.7c0.8,0.6,1.6,1.2,1.7,1.2C118.9,157.9,121.5,155.5,124.6,152.5L124.6,152.5z M139.5,150.5
		c0-0.7-0.2-1.4-0.4-1.5c-0.4-0.2-1.6-2.7-2-4c-0.2-0.5-0.2-0.4-0.5,0.2c-0.2,0.4-0.1,1.1,0.3,1.7c0.9,1.5,0.8,1.6-1.1,1.4l-1.7-0.2
		l0.8,1.3c0.5,0.6,1.4,2.2,2,3.4l1.2,2.2l0.7-1.6C139.2,152.5,139.5,151.2,139.5,150.5z M91.1,145.6c1.6-1.9,2.2-2.9,1.6-2.9
		c-0.3,0-3.8,2.5-4.3,3.2c-0.3,0.5-0.3,0.7,0.1,1.1c0.3,0.3,0.6,0.6,0.7,0.6C89.2,147.7,90.1,146.7,91.1,145.6L91.1,145.6z
		 M110.5,146.7c0.5-0.4,0.8-0.4,1.4-0.1c1,0.6,2-0.2,1.7-1.5c-0.2-0.9-0.2-0.9,0.6-0.5c0.5,0.2,1.1,0.3,1.4,0.2
		c1-0.4,0.5-1.4-1.1-2.2c-0.9-0.5-1.9-1.1-2.1-1.5c-0.3-0.4-0.9-0.7-1.5-0.6c-1.9,0.1-2.5,1.3-1.4,2.6c0.5,0.6,0.5,0.8,0,1.9
		c-0.6,1.1-0.6,2.3,0.1,2.3C109.6,147.3,110.1,147,110.5,146.7L110.5,146.7z M133,144.2c0.5-0.5,0.9-1.3,0.9-1.9
		c0-0.7,0.2-1.1,0.8-1.3c0.9-0.3,0.9-0.7,0.2-1.3c-0.3-0.3-0.6-0.6-0.6-0.8c0-0.6,1-0.3,1.7,0.4c0.8,0.8,1.3,1,1.3,0.3
		c0-0.9-1.6-1.8-2.7-1.6c-1.1,0.2-1.3,0-1.1-1.3c0-0.2-0.1-0.8-0.3-1.1c-0.3-0.4-0.4-0.5-0.4-0.2c0,0.8-0.8,0.1-0.8-0.7
		c0-0.5-0.3-0.7-0.7-0.7c-0.9,0-3.3-1-3.6-1.6c-0.4-0.6,0-0.8,1.3-0.8c0.6,0,1.1,0,1.1-0.2c0-0.1-1-0.6-2.2-1.3
		c-1.6-0.8-2.3-1-2.5-0.6c-0.1,0.3-0.3,0.3-0.6-0.2c-0.6-0.9-2-1.6-4.8-2.4l-2.3-0.6l-1.8,1.2c-1.7,1.2-3.6,3.6-3.6,4.7
		c0,0.3,0.8,0.9,1.8,1.5c1.4,0.7,1.7,1.1,1.7,1.7c-0.2,1,1.1,1.1,1.3,0.1c0.1-0.3,0.7-0.9,1.3-1.3c1-0.6,1.1-0.8,0.9-2
		c-0.2-1.1-0.1-1.4,0.3-1.4c0.3,0,0.8-0.4,1-0.9c0.2-0.5,0.6-0.9,0.9-0.9c0.9,0,2.2,1.2,2,1.9c-0.1,0.3,0,0.9,0.2,1.3
		c0.3,0.5,0.4,0.5,1.2,0c0.9-0.6,0.9-0.6,1.1,0.7c0.2,0.7,0.7,1.9,1.2,2.7c0.5,0.8,0.9,1.6,0.9,1.9c0,0.5-1.6,1.2-3.4,1.4
		c-0.9,0.2-0.9,0.2,0.3,0.8c1,0.6,1.4,0.6,1.8,0.2s0.7-0.3,1.4,0.3c0.7,0.7,0.7,0.8,0.2,0.8c-0.3,0-0.6,0.1-0.6,0.3
		c0,0.3,3.8,3.5,4.1,3.5C132,145,132.5,144.7,133,144.2L133,144.2z M87.9,143.1c1-0.8,2.2-1.8,2.8-2.1c0.6-0.3,1.2-1.2,1.5-2.1
		c0.5-1.4,0.5-1.5-0.8-2.8c-2.1-2-3.4-2.1-6.9-0.2c-2,1.1-2.9,1.4-2.9,1c0-0.3-0.2-0.8-0.5-1c-0.4-0.3-0.7-0.2-1.4,0.5l-0.9,1
		l3.6,3.6c2,2,3.6,3.6,3.7,3.6C86.1,144.7,87,144,87.9,143.1L87.9,143.1z M139.3,142.4c-0.1-0.2,0-0.4,0.2-0.4s0.3-0.2,0.2-0.4
		c-0.6-1-1.6,0.6-1.1,1.9c0.2,0.5,0.3,0.5,0.6-0.1C139.4,143.1,139.5,142.6,139.3,142.4z"/>
	<path class="st1" d="M115.5,166c-0.5-0.5-0.2-0.9,0.7-0.9c1.1,0,1.3,0.6,0.3,0.9C115.8,166.3,115.8,166.3,115.5,166L115.5,166z"/>
	<path class="st1" d="M112,164.7c-0.2-0.2-0.7-0.6-1.2-0.8c-0.5-0.2-0.9-0.5-0.8-0.6c0.3-0.3,3.3,1.1,3.3,1.4
		C113.4,165.3,112.3,165.2,112,164.7z"/>
</g>
<path class="st2" d="M190.4,257.2H37.5c-6.6,0-12-5.4-12-12V92.2c0-6.6,5.4-12,12-12h152.9c6.6,0,12,5.4,12,12v152.9
	C202.4,251.8,197,257.2,190.4,257.2z"/>
<line class="st2" x1="236.4" y1="104.8" x2="287.2" y2="104.8"/>
<line class="st2" x1="236.4" y1="113.7" x2="287.2" y2="113.7"/>
<line class="st2" x1="236.4" y1="122.6" x2="287.2" y2="122.6"/>
<line class="st2" x1="236.4" y1="130.5" x2="287.2" y2="130.5"/>
<line class="st2" x1="236.4" y1="138.4" x2="287.2" y2="138.4"/>
<line class="st2" x1="236.4" y1="156.5" x2="287.2" y2="156.5"/>
<line class="st2" x1="236.4" y1="165.4" x2="287.2" y2="165.4"/>
<line class="st2" x1="236.4" y1="174.3" x2="287.2" y2="174.3"/>
<line class="st2" x1="236.4" y1="182.2" x2="287.2" y2="182.2"/>
<line class="st2" x1="236.4" y1="190.1" x2="287.2" y2="190.1"/>
<line class="st2" x1="236.4" y1="199" x2="287.2" y2="199"/>
<line class="st2" x1="236.4" y1="208" x2="287.2" y2="208"/>
<line class="st2" x1="236.4" y1="216.9" x2="287.2" y2="216.9"/>
<line class="st2" x1="236.4" y1="224.8" x2="287.2" y2="224.8"/>
<line class="st2" x1="236.4" y1="232.7" x2="287.2" y2="232.7"/>
<line class="st2" x1="303.6" y1="104.8" x2="354.4" y2="104.8"/>
<line class="st2" x1="303.6" y1="113.7" x2="354.4" y2="113.7"/>
<line class="st2" x1="303.6" y1="122.6" x2="354.4" y2="122.6"/>
<line class="st2" x1="303.6" y1="130.5" x2="354.4" y2="130.5"/>
<line class="st2" x1="303.6" y1="138.4" x2="354.4" y2="138.4"/>
<line class="st2" x1="303.6" y1="153.6" x2="354.4" y2="153.6"/>
<line class="st2" x1="303.6" y1="162.6" x2="354.4" y2="162.6"/>
<line class="st2" x1="303.6" y1="171.5" x2="354.4" y2="171.5"/>
<line class="st2" x1="303.6" y1="179.4" x2="354.4" y2="179.4"/>
<line class="st2" x1="303.6" y1="187.3" x2="354.4" y2="187.3"/>
<line class="st2" x1="30.7" y1="269.3" x2="198.3" y2="269.3"/>
<line class="st2" x1="30.7" y1="278.3" x2="198.3" y2="278.3"/>
<line class="st2" x1="30.7" y1="287.2" x2="198.3" y2="287.2"/>
<line class="st2" x1="30.7" y1="295.1" x2="198.3" y2="295.1"/>
<line class="st2" x1="30.7" y1="303" x2="198.3" y2="303"/>
<line class="st2" x1="303.6" y1="216.5" x2="354.4" y2="216.5"/>
<line class="st2" x1="303.6" y1="225.4" x2="354.4" y2="225.4"/>
<line class="st2" x1="303.6" y1="233.3" x2="354.4" y2="233.3"/>
<line class="st2" x1="303.6" y1="241.2" x2="354.4" y2="241.2"/>
<line class="st2" x1="303.6" y1="250.2" x2="354.4" y2="250.2"/>
<line class="st2" x1="303.6" y1="259.1" x2="354.4" y2="259.1"/>
<line class="st2" x1="303.6" y1="268" x2="354.4" y2="268"/>
<line class="st2" x1="303.6" y1="275.9" x2="354.4" y2="275.9"/>
<line class="st2" x1="303.6" y1="283.8" x2="354.4" y2="283.8"/>
<line class="st2" x1="236.4" y1="268" x2="287.2" y2="268"/>
<line class="st2" x1="236.4" y1="275.9" x2="287.2" y2="275.9"/>
</svg>
