<?xml version="1.0" encoding="UTF-8"?>
<svg id="Layer_1" data-name="Layer 1" xmlns="http://www.w3.org/2000/svg" viewBox="0 0 3808 3808">
  <defs>
    <style>
      .cls-1 {
        fill: none;
        stroke: #bfbfbf;
        stroke-miterlimit: 10;
        stroke-width: 8px;
      }
    </style>
  </defs>
  <circle class="cls-1" cx="1904" cy="1904" r="1900"/>
  <circle class="cls-1" cx="1899" cy="1912.75" r="165"/>
  <line class="cls-1" x1="2063" y1="1904" x2="2850.22" y2="1907.51"/>
  <line class="cls-1" x1="1903.85" y1="1751.52" x2="1908.76" y2="812.75"/>
  <path class="cls-1" d="M1947.33,2070.56l50.32,207.24"/>
  <line class="cls-1" x1="2142.09" y1="2198.99" x2="2571.42" y2="2579.81"/>
  <path class="cls-1" d="M2266.9,2009c63.43,19.2,126.29,42.71,189.71,61.91"/>
  <path class="cls-1" d="M2394.51,2192.02l131.42,72.43c13.72-11.18,29.23-34.63,46.11-66.43,18.87-35.55,28.57-69.26,34.14-85.54"/>
  <path class="cls-1" d="M2601.76,2113.23l208.28,68.5"/>
  <path class="cls-1" d="M1848.39,2070.56l-161.37,762.94"/>
  <path class="cls-1" d="M1808.99,2053.11l-99.27,179.39"/>
  <line class="cls-1" x1="1643.16" y1="2179.98" x2="1508.07" y2="2312.05"/>
  <line class="cls-1" x1="1176.12" y1="1740.92" x2="975.13" y2="1681.69"/>
  <path class="cls-1" d="M1174.9,1744.43c2.71-19.33,5.27-40.51,9.37-60.23,12.6-60.59,28.74-105.6,57.71-161.49"/>
  <line class="cls-1" x1="1739.1" y1="1871.9" x2="1324.64" y2="1749.12"/>
  <path class="cls-1" d="M1570.79,1715.72l-175.57-104.64c-1.29-.23-3.18,1.11-10.94,11.66-11.15,15.17-31.34,53.21-52.23,107.63-27.85,72.56-37.27,153.14-39.77,176.91"/>
  <path class="cls-1" d="M1734,1931.97l-210.15-4.76"/>
  <path class="cls-1" d="M1545.08,2022.4l-345.96,74.26c-6.05-19.13-11.63-41.13-15.55-65.7-7.27-45.56-9.49-101.75-6.38-133.28"/>
  <line class="cls-1" x1="1295.91" y1="1904.82" x2="1173.12" y2="1895.61"/>
  <path class="cls-1" d="M1722.78,1570.93l-98.79-164.05"/>
  <line class="cls-1" x1="1634" y1="998.12" x2="1407.06" y2="278.03"/>
  <line class="cls-1" x1="1748.66" y1="1361.94" x2="1688.96" y2="1182.83"/>
  <path class="cls-1" d="M1395.42,1611.19l-157.44-89.16c11.83-22.11,28.94-51.18,52.56-83.16,52.94-71.7,107.77-116.4,133.63-136.06,29.64-22.54,87.4-65.71,174.69-95.09,37.29-12.55,69.96-19.23,94.22-23"/>
  <line class="cls-1" x1="1517.94" y1="1242.19" x2="1331.61" y2="971.48"/>
  <line class="cls-1" x1="2098.43" y1="1579.29" x2="2799.18" y2="227.67"/>
  <path class="cls-1" d="M2402.45,1623.46l176.2-97.74c8.27,9.7,17.2,20.03,24.71,31.02,82.41,120.64,73.25,264.16,59.34,349.03"/>
  <path class="cls-1" d="M950.55,1880.09c2-70.76,12.85-134.41,29.38-200.8"/>
  <path class="cls-1" d="M1083.5,2381.4c-43.36-75.23-76.61-157.13-97.93-243.97"/>
  <path class="cls-1" d="M2573.77,2577.46c-172.06,172.98-410.3,280.05-673.55,280.05-171.29,0-332-44.5-470.77-122.8"/>
  <path class="cls-1" d="M1413.25,1092.98c142.63-85.79,309.31-135.47,486.97-135.47,524.67,0,950,425.33,950,950,0,96.49-14.38,189.61-41.13,277.35"/>
  <path class="cls-1" d="M1073.99,1439.06c44.57-77.68,98.15-152.63,162.23-214.91"/>
  <line class="cls-1" x1="1177.19" y1="1895.91" x2="950.22" y2="1877.11"/>
  <path class="cls-1" d="M2185.42,1405.05c94.45,52.16,170.4,125.39,222.32,219.99"/>
  <path class="cls-1" d="M1623.02,1411.87c39.95-23.18,82.91-41.68,127.99-54.76"/>
  <path class="cls-1" d="M2453.24,2068.37c-70.74,233.64-287.74,403.74-544.48,403.74s-483.99-168.83-547.41-413.75"/>
  <path class="cls-1" d="M1541.53,2019.91c-8.89-29.23-13.21-63.61-13.89-96.34"/>
  <path class="cls-1" d="M1712.41,2235.91c-31.71-18.53-49.88-29.34-74.88-55.93"/>
  <path class="cls-1" d="M2147.23,2197.6c-44.01,36.74-96.45,63.71-154.01,77.59"/>
  <path class="cls-1" d="M1571.7,1721.29c65.5-114.37,190.91-195.53,332.15-195.53,209.87,0,380,170.13,380,380,0,36.65-4.52,74.97-14.2,108.5"/>
  <line class="cls-1" x1="1237.99" y1="1522.03" x2="949.01" y2="1367.91"/>
  <line class="cls-1" x1="2525.93" y1="2264.46" x2="3213.45" y2="2635.56"/>
  <line class="cls-1" x1="2810.04" y1="2181.72" x2="3722.31" y2="2456.85"/>
  <line class="cls-1" x1="2567.52" y1="1231.34" x2="2956.79" y2="844.26"/>
  <line class="cls-1" x1="2850.22" y1="1907.51" x2="3208.85" y2="1906.97"/>
  <path class="cls-1" d="M1904.75,812.75c.82,0,3.19,0,4.01,0,72.49,0,143.35,7.01,211.92,20.4"/>
  <path class="cls-1" d="M1133.68,1127.46c61.15-60.03,127.95-112.9,201.96-157.35"/>
  <path class="cls-1" d="M809.65,1867.94c5.78-183.78,59.13-352.38,144.33-501.45"/>
  <path class="cls-1" d="M1089.3,2710.26c-139.92-143.99-240.67-326.09-288.56-531.52"/>
  <path class="cls-1" d="M1901.41,3012.73c-85.51-.36-168.62-10.36-248.3-28.99"/>
  <path class="cls-1" d="M2869.87,2450.83c-133.13,232.54-354.53,419.46-612.72,505.61"/>
  <path class="cls-1" d="M2673.66,1122.23c205.47,198.85,333.65,477.09,335.09,785.28"/>
  <line class="cls-1" x1="2260.5" y1="2550.49" x2="2456.62" y2="2866.82"/>
  <path class="cls-1" d="M2028.76,2459.43l41.34,153.3c11.8-.06,24.4-.74,37.7-2.31,67.21-7.95,119.94-34.76,153.22-55.9"/>
  <line class="cls-1" x1="1199.12" y1="2096.66" x2="440.21" y2="2253.03"/>
  <line class="cls-1" x1="950.22" y1="1877.11" x2="601.44" y2="1851.48"/>
  <line class="cls-1" x1="1508.07" y1="2312.05" x2="543.71" y2="3230.5"/>
  <path class="cls-1" d="M3150.42,2290.79c-26.65,89.9-62.76,175.74-107.18,256.35"/>
  <path class="cls-1" d="M3203.77,1905.76c.06,4.98.08,9.96.08,14.95,0,128.57-18.66,252.78-53.43,370.08"/>
  <path class="cls-1" d="M1900.5,620.72c1.12,0,2.23,0,3.35,0,87.28,0,174.42,9.45,256.88,25.85"/>
  <path class="cls-1" d="M648.7,1580.92c116.6-436.38,454-780.27,885.42-907.25"/>
  <path class="cls-1" d="M1236.01,3036.72c-380.89-226.5-632.16-640.3-632.16-1116.01,0-23.02.6-45.9,1.78-68.62"/>
  <path class="cls-1" d="M3043.24,2547.14c-221.23,401.53-657.18,677.4-1148.03,677.4"/>
  <line class="cls-1" x1="2298.43" y1="3159.75" x2="2259.82" y2="2952.09"/>
  <line class="cls-1" x1="1900.22" y1="2857.51" x2="1890.21" y2="3412.73"/>
  <line class="cls-1" x1="2966.93" y1="2962.29" x2="3266.18" y2="3220.71"/>
  <path class="cls-1" d="M1466.31,472.31c137-41.21,282.26-63.35,432.69-63.35,828.43,0,1500,671.57,1500,1500,0,.66,0,3.41,0,4.07"/>
  <path class="cls-1" d="M579.2,2611.1c-114.72-209.98-180.2-448.71-180.2-702.14,0-133.35,17.4-262.63,50.05-385.71"/>
  <path class="cls-1" d="M1558.26,3373.41c-154.57-38.82-299.86-101.41-433.42-184.85"/>
  <path class="cls-1" d="M2334.99,3344.61c-137.97,41.84-284.35,64.34-435.99,64.34-5,0-9.99-.02-14.98-.07"/>
  <path class="cls-1" d="M3213.38,2632.32c-67.96,123.23-152.76,235.88-251.28,334.85"/>
  <line class="cls-1" x1="2334.99" y1="3344.61" x2="2374.54" y2="3539.18"/>
  <path class="cls-1" d="M1895.13,3801.06l4-199.03"/>
  <line class="cls-1" x1="2573.77" y1="3035.03" x2="2897.94" y2="3523.59"/>
  <line class="cls-1" x1="1655.02" y1="2980.43" x2="1464.16" y2="3755.97"/>
  <line class="cls-1" x1="1434.9" y1="2734.71" x2="1127.85" y2="3190.44"/>
  <path class="cls-1" d="M1434.9,2734.71l108.46-176.37c-23.18-10.89-43.97-24.88-69.71-40.43-14.58-8.81-62.65-39.53-101.14-72.34-31.38-26.75-81.18-76.3-126.4-159.77"/>
  <line class="cls-1" x1="1250.45" y1="2288.2" x2="1078.41" y2="2380.73"/>
  <line class="cls-1" x1="448.05" y1="1527.07" x2="840.83" y2="1640.15"/>
  <line class="cls-1" x1="1236.01" y1="1229.97" x2="585.06" y2="536.37"/>
  <path class="cls-1" d="M253.94,1475.41c34.11-130.74,83.38-255.34,145.84-371.83"/>
  <path class="cls-1" d="M401.78,2711.65c-70.32-130.37-124.11-270.98-158.57-419.01"/>
  <path class="cls-1" d="M2377.39,3534.77c-151.75,44.41-312.28,68.24-478.39,68.24-1.26,0-2.52,0-3.79,0"/>
  <path class="cls-1" d="M3598.67,1901.89c0,2.23.33,1.64.33,3.87,0,172.44-25.67,338.88-73.41,495.71"/>
  <path class="cls-1" d="M3392.05,1092.19c66.7,122.14,118.84,253.36,154.1,391.34"/>
  <path class="cls-1" d="M1902.39,204.83c121.22,0,236.08,13.61,350.12,37.73"/>
  <path class="cls-1" d="M1071.25,417.46c107.59-59.93,218.13-106.76,338.84-141.92"/>
  <line class="cls-1" x1="1075.62" y1="418.11" x2="979.93" y2="243.46"/>
  <line class="cls-1" x1="1906.38" y1="205.81" x2="1906.38" y2="3.97"/>
  <line class="cls-1" x1="2119.35" y1="832.9" x2="2156.86" y2="645.32"/>
  <line class="cls-1" x1="1903.81" y1="624.89" x2="1906.3" y2="408.96"/>
  <line class="cls-1" x1="2209.77" y1="441.19" x2="2250.54" y2="238.07"/>
  <line class="cls-1" x1="765.51" y1="1290.83" x2="399" y2="1106.83"/>
  <line class="cls-1" x1="254.63" y1="1472.77" x2="63.88" y2="1428.92"/>
  <line class="cls-1" x1="4" y1="1814.03" x2="400.39" y2="1843.84"/>
  <line class="cls-1" x1="52.97" y1="2334.46" x2="244.15" y2="2296.58"/>
  <line class="cls-1" x1="577.61" y1="2608.17" x2="399.78" y2="2707.92"/>
  <line class="cls-1" x1="2969.49" y1="1620.42" x2="3545.19" y2="1479.78"/>
  <line class="cls-1" x1="3392.64" y1="1093.27" x2="3570.83" y2="991.31"/>
  <line class="cls-1" x1="3399" y1="1908.96" x2="3599" y2="1905.76"/>
  <line class="cls-1" x1="2866.23" y1="1372.93" x2="3216.64" y2="1186.77"/>
  <line class="cls-1" x1="2578.65" y1="1525.72" x2="2581.08" y2="1524.42"/>
</svg>