<?xml version="1.0" encoding="utf-8"?>
<!-- Generator: Adobe Illustrator 28.3.0, SVG Export Plug-In . SVG Version: 6.00 Build 0)  -->
<svg version="1.1" id="Layer_1" xmlns="http://www.w3.org/2000/svg" xmlns:xlink="http://www.w3.org/1999/xlink" x="0px" y="0px"
	 viewBox="0 0 4000 4000" style="enable-background:new 0 0 4000 4000;" xml:space="preserve">
<style type="text/css">
	.st0{fill:url(#SVGID_1_);}
	.st1{fill:url(#SVGID_00000133502505854739158080000015194586325879045817_);}
</style>
<g>
	<linearGradient id="SVGID_1_" gradientUnits="userSpaceOnUse" x1="462.2782" y1="1990.8564" x2="3546.7881" y2="1990.8564">
		<stop  offset="0.4078" style="stop-color:#A1A1A1"/>
		<stop  offset="1" style="stop-color:#4D4D4D"/>
	</linearGradient>
	<path class="st0" d="M2004.5,171.4c5.6,5.1,10,9,14.4,13.1c30.4,28.6,61.2,56.9,91.2,85.9c87.5,84.8,185.6,155.4,291,216
		c154.6,88.8,319,152.8,492.1,194.9c66.1,16.1,132.9,28.8,200.2,38.2c51.4,7.2,103,12.5,154.9,15.9c83.4,5.3,167,5.9,250.5,7.3
		c22.4,0.4,20.6-4.3,23,20.8c4.8,48.7,9.7,97.4,13.9,146.1c3.7,42.8,7.3,85.6,8.4,128.6c1,39.4,2.5,78.7,2.6,118.1
		c0.2,81.8-3.3,163.4-9,245c-4,56.6-9.3,113-16.1,169.2c-12.8,105.4-30.6,210.1-53.7,313.7c-35.4,159.1-82.3,314.7-142.3,466.4
		C3217,2625.8,3070.1,2878.3,2881,3106c-164.6,198.2-354.1,369.2-566,515.6c-74.1,51.2-150.4,99-228.8,143.6
		c-24.9,14.2-49.8,28.3-74.4,42.8c-5.3,3.1-9.4,2.9-14.8,0c-271.7-148.9-520.2-328.6-735.5-552.6
		c-232.9-242.2-414-518.5-546.3-827.1c-68.3-159.3-121.8-323.4-162-491.9c-19.3-80.6-35.5-161.9-48.6-243.7
		c-9.4-58.3-16.8-116.9-23.1-175.6c-7.6-70.6-12.9-141.4-16-212.4c-2.6-60.2-3.8-120.5-2.9-180.8c1-66.3,3.5-132.4,9.3-198.5
		c3.8-43.4,8.4-86.7,12.6-130c1.5-15.4,3-30.9,4.5-46.3c0.4-4.3,2.9-6.2,7-6.3c4.8-0.1,9.5-0.2,14.3-0.3
		c59.1-1.2,118.1-2.3,177.2-3.7c61.5-1.4,122.7-6.8,183.8-13.9c87.8-10.2,174.5-26,260.2-47.6c217.7-55,420.3-143.7,604.7-272.7
		c52.9-37,102.9-77.6,149.7-122.1c35.5-33.7,71.3-67.1,106.9-100.6C1996.2,178.8,1999.7,175.7,2004.5,171.4z M3385.5,1214.5
		c1.6-114.7-2.4-205.9-10.5-296.9c-0.2-2.4-0.4-4.8-0.7-7.1c-1.2-8.3-2-9.1-10-9.5c-2.4-0.1-4.8-0.1-7.2-0.2
		c-34.6-0.7-69.2-1.7-103.8-3.8c-56-3.3-111.8-8.6-167.4-16c-65-8.6-129.6-20.2-193.6-34.5c-163.6-36.7-320.8-91.5-470.8-166.7
		c-149.1-74.7-287.5-165-409-280.1c-1.3-1.2-2.7-2.4-4-3.6c-2.6-2.5-5.4-2.5-7.9-0.3c-3.6,3.1-7,6.5-10.5,9.8
		c-32.7,30.6-66.7,59.7-102.2,87c-105.7,81.7-219.8,149.6-340.4,206.6c-229.5,108.4-471.5,170-723.8,192.9
		c-57.1,5.2-114.3,8.4-171.6,8.8c-3.6,0-7.2,0.2-10.7,0.4c-3.4,0.2-5.6,1.9-6,5.3c-1,7.7-2,15.4-2.6,23.1c-1.8,23.8-3.5,47.6-5,71.4
		c-4.1,66.1-6,132.4-4.7,198.6c1.9,91.9,6.5,183.6,15.7,275.2c6.1,61.2,13.6,122.1,23.2,182.8c13,82.5,29.2,164.3,48.7,245.5
		c46,191.3,109.9,376.3,194,554.2c119.9,253.4,276.1,481.9,470.5,684.1c182.4,189.8,389.7,347.5,617.5,478.8
		c9.3,5.4,15.8,4.1,24.3-0.8c137.3-79.1,267.7-168.2,390.1-268.8c247.5-203.4,451.1-443.9,608.6-723
		c183.1-324.6,291.5-673.9,341.4-1042.2c8.5-62.7,14.8-125.6,19.5-188.7C3381.9,1328.3,3384.3,1259.7,3385.5,1214.5z"/>
	
		<linearGradient id="SVGID_00000057119170766230616370000013825615712559169419_" gradientUnits="userSpaceOnUse" x1="777.5903" y1="2016.7786" x2="3231.6731" y2="2016.7786">
		<stop  offset="0.4078" style="stop-color:#A1A1A1"/>
		<stop  offset="1" style="stop-color:#4D4D4D"/>
	</linearGradient>
	<path style="fill:url(#SVGID_00000057119170766230616370000013825615712559169419_);" d="M777.6,1222.4c0.4-53.5,1-113.2,5.2-172.8
		c0.1-1.8,0.3-3.6,0.3-5.4c0.1-4.2,2.1-6.7,6.3-7.1c3.6-0.4,7.1-0.6,10.7-0.7c41.8-1,83.4-4.6,125-8.6c73-7.2,145.6-17.9,217.5-32.6
		c121.8-24.8,240.5-59.7,355.9-106.1c163.1-65.6,315-150.7,453.2-259.7c14.5-11.4,28.7-23.3,42.9-35.2c10.8-9.2,9.7-8.6,20.4,0.6
		c35.4,30.3,72.2,58.8,110.2,85.7c142.1,100.5,295.8,178.6,459.6,236.8c107.5,38.2,217.5,67.1,329.8,86.9
		c61.7,10.9,123.7,19.4,186.1,25c36.3,3.3,72.5,6.2,108.9,7.3c2.4,0.1,4.8,0.1,7.2,0.4c7.2,0.7,8.2,1.5,8.8,8.4
		c0.9,10.7,1.8,21.4,2.4,32.1c4.9,94.3,4.8,188.5-0.2,282.8c-3.4,63.7-8.8,127.3-16.1,190.8c-23.3,202.1-66.9,399.7-133.2,592
		c-88.6,257-214.8,493.8-383,707.8C2551,3034.7,2382,3192.5,2191,3327.3c-55.1,38.9-111.7,75.4-169.6,110c-3.6,2.1-7.3,4.1-10.8,6.4
		c-3.9,2.5-7.6,3.1-11.6,0.4c-2-1.3-4.1-2.4-6.2-3.6c-219.6-130.4-416.7-288.4-587-479.2c-167.4-187.6-300.3-397.3-401.1-627.6
		C938.2,2181.4,887.3,2024,850.4,1862c-16.7-73.3-30.6-147.1-41.6-221.4c-8.2-55.5-14.7-111.1-19.5-167
		C780,1364.7,779,1319.6,777.6,1222.4z"/>
</g>
</svg>
