<?xml version="1.0" encoding="utf-8"?>
<!-- Generator: Adobe Illustrator 28.3.0, SVG Export Plug-In . SVG Version: 6.00 Build 0)  -->
<svg version="1.1" id="Layer_1" xmlns="http://www.w3.org/2000/svg" xmlns:xlink="http://www.w3.org/1999/xlink" x="0px" y="0px"
	 viewBox="0 0 1000 1000" style="enable-background:new 0 0 1000 1000;" xml:space="preserve">
<style type="text/css">
	.st0{fill:#FFFFFF;}
</style>
<g>
	<path class="st0" d="M549.4,944.3c-6.7-6-12.7-11.4-12.7-12.7s4.7-2,10.7-2c10,0,11.4,1.3,18.1,9.4c8,11.4,8,12,1.3,14.1
		C563.4,954.3,558.1,951.6,549.4,944.3L549.4,944.3z"/>
	<path class="st0" d="M442.3,949.6c-4-2-1.3-6.7,24.1-40.2l28.8-37.5l21.4-10c12.7-6,33.5-12.7,49.5-16.7
		c77.6-18.1,125.8-40.8,171.4-84.3c36.8-34.8,62.9-75.6,81-125.2c16.1-44.8,20.8-87,16.1-137.9c-7.4-76.3-34.1-143.9-83.7-210.2
		l-20.8-28.1l14.7,8.7c49.5,28.1,46.9,25.4,63.6,54.9c16.7,29.5,26.1,50.2,38.2,87c10.7,32.1,14.7,52.9,18.7,94.4
		c12,136.5-53.5,261.1-172,328.7c-25.4,14.7-59.6,28.1-87.7,35.5c-10.7,2.7-28.1,9.4-39.5,14.1c-10.7,4.7-25.4,10.7-32.1,13.4
		c-34.8,14.1-54.2,25.4-68.3,40.8C449,953.6,449,953.6,442.3,949.6L442.3,949.6z"/>
	<path class="st0" d="M496.5,923.5c0-5.4,70.3-34.1,107.8-43.5c121.2-30.8,217.5-118.5,255-232.3c13.4-40.2,16.7-62.9,16.1-113.1
		c0-44.8-3.3-71-12-104.4c-2-7.4-3.3-13.4-2.7-13.4s10,11.4,20.8,26.1l20.1,26.1l3.3,30.1c12,116.5-26.1,226.2-106.4,305.9
		c-66.9,66.9-146.6,105.1-237,113.1c-20.8,2-44.2,4-51.5,5.4C502.5,924.2,496.5,924.2,496.5,923.5z"/>
	<path class="st0" d="M413.5,906.8c-153.3-40.2-263.7-156.6-289.8-305.2c-5.4-29.5-6-89-1.3-122.5l3.3-25.4l18.7-24.1
		c26.8-34.1,26.8-33.5,19.4-10c-14.7,50.2-18.7,126.5-10,175.4c22.8,126.5,111.8,228.9,237,272.4c20.1,7.4,68.3,19.4,75.6,19.4
		c0.7,0,1.3,2,1.3,5.4c0,6.7-16.1,22.8-22.1,22.8C443.6,914.1,428.9,910.8,413.5,906.8L413.5,906.8z"/>
	<path class="st0" d="M444.3,870c-102.4-18.7-198.1-88.4-245-178.7c-32.8-63.6-44.2-125.2-36.8-198.1c5.4-54.9,17.4-97.7,41.5-147.9
		c22.8-47.5,26.8-52.2,58.9-70.3c16.1-8.7,29.5-16.7,30.8-16.7c1.3-0.7-5.4,8.7-14.7,20.8c-51.5,66.3-81,138.6-87.7,220.9
		c-11.4,131.2,55.6,251.7,172,309.9c32.8,16.7,60.9,25.4,92.4,29.5c22.1,2.7,56.9,12,56.9,15.4c0,0.7-4.7,3.3-10,6
		c-5.4,2.7-12,6.7-14.1,9.4C484.4,874.6,473.1,874.6,444.3,870L444.3,870z"/>
	<path class="st0" d="M498.5,831.1c-18.1-1.3-56.2-7.4-72.3-12.7c-22.8-7.4-55.6-22.1-73-32.8c-12-7.4-18.7-10.7-22.1-9.4
		s-8.7-1.3-16.7-8c-6.7-5.4-12.7-10-12.7-10.7c-0.7,0,0-2,2-4c4-4.7-11.4-20.1-18.7-18.1c-3.3,0.7-7.4-0.7-11.4-5.4
		c-5.4-5.4-5.4-7.4-2.7-10.7c2.7-3.3,1.3-6-7.4-20.1c-24.8-36.8-45.5-93.7-50.2-137.9c-9.4-85.7,12-160.6,64.3-228.3
		c20.8-26.1,48.2-49.5,87-71l30.1-17.4V226c0-18.1,0.7-20.8,12-42.2l12-23.4h13.4c12.7,0,13.4,0,13.4,6c0,4.7,1.3,6,5.4,6
		c5.4,0,5.4,1.3,4,28.1l-0.7,28.1l7.4-0.7l7.4-0.7l0.7-55.6l0.7-55.6l16.1-37.5l16.1-37.5h17.4h17.4v10c0,8.7,0.7,10,5.4,10
		c4,0,5.4,2,5.4,8.7s1.3,8.7,5.4,8.7c5.4,0,5.4,2,5.4,74.3c0,65.6,0.7,75,4,76.3c6,2,9.4,2,7.4-0.7c-0.7-1.3,0-3.3,1.3-4
		c1.3-1.3,2.7-16.1,2.7-37.5c0-33.5,0-35.5,5.4-36.8c4-1.3,5.4-3.3,5.4-10v-8.7l11.4,0.7l11.4,0.7l13.4,23.4l13.4,24.1v30.8
		c0,36.1,2,41.5,22.1,52.2c13.4,7.4,34.1,20.8,54.2,36.8c24.8,18.7,64.9,75.6,81,115.1c19.4,46.9,27.4,109.1,20.8,158
		c-7.4,47.5-27.4,97.7-54.9,133.9c-7.4,10-14.1,19.4-14.1,20.8c0,1.3,2,3.3,4,5.4c2,2,4,4,4,5.4s-7.4,8.7-16.7,16.1
		c-13.4,11.4-17.4,13.4-19.4,10.7c-2.7-4.7-7.4-4.7-11.4-0.7c-2,2-2,4,1.3,7.4c3.3,4,3.3,5.4-8,13.4c-12,9.4-12,9.4-16.7,4.7
		s-5.4-4.7-26.8,6C605.6,819.8,544.7,833.8,498.5,831.1L498.5,831.1z M509.2,773.6v-36.1l-15.4-2c-40.8-4.7-81.7-21.4-111.1-44.8
		c-8.7-7.4-16.7-12.7-17.4-12c-0.7,0.7-3.3,10.7-5.4,22.1c-6,30.1-14.7,37.5-27.4,23.4l-6-7.4l-5.4,5.4l-6,6l8.7,8.7
		c11.4,11.4,40.2,31.5,59.6,40.8c35.5,18.1,75.6,28.1,118.5,30.8l6.7,0.7v-35.5H509.2z M570.1,802.4c40.2-8.7,77-26.1,111.1-52.2
		c22.1-16.7,22.1-16.1,5.4-32.8c-13.4-13.4-15.4-14.7-20.1-12c-2.7,2-5.4,4.7-5.4,6.7s-2.7,7.4-6.7,11.4c-5.4,6.7-6,9.4-4.7,20.8
		c2,12.7,1.3,13.4-6,16.7c-9.4,3.3-20.8,1.3-20.8-4c0-2-2-4-4-4c-5.4,0-12-8.7-16.7-22.1c-2-6.7-5.4-11.4-7.4-11.4
		c-2,0-12.7,3.3-24.1,6.7c-12,3.3-28.8,6.7-37.5,8l-16.7,2v36.1V809l16.1-1.3C541.3,807.7,558.1,805,570.1,802.4L570.1,802.4z
		 M721.4,713.3c14.7-16.1,30.1-39.5,42.2-64.3c11.4-24.8,10.7-29.5-5.4-29.5h-9.4l-1.3-13.4c-1.3-16.1,3.3-30.8,12.7-42.8
		c4-4.7,8-11.4,8.7-14.1c1.3-4,4.7-6,11.4-7.4c6.7-1.3,10-2.7,10-5.4c0-3.3-4.7-4-32.1-3.3l-32.1,0.7l-3.3,18.7
		c-1.3,10-4.7,24.1-6.7,30.8c-3.3,10.7-3.3,12.7,0,16.1c2.7,3.3,2.7,5.4-3.3,16.1c-4,7.4-6,14.1-5.4,16.7
		c2.7,8.7-3.3,22.1-14.7,29.5c-7.4,5.4-11.4,10-14.1,18.1l-4,11.4l16.1,16.1c8.7,8.7,16.7,16.1,18.1,16.1
		C710.7,724,716,719.4,721.4,713.3L721.4,713.3z M509.2,665.8c0-54.2,0-55.6-5.4-55.6c-8,0-30.1-9.4-38.8-16.1l-8.7-6L417.5,627
		c-44.2,44.2-42.8,40.2-18.1,56.9c30.1,20.8,73.6,36.1,103.8,37.5h5.4v-55.6H509.2z M557.4,714.7c7.4-2,18.7-5.4,24.8-7.4
		c9.4-3.3,10.7-4.7,9.4-9.4c-2.7-8.7-7.4-12-18.7-13.4c-12.7-2-28.1-12.7-32.8-23.4c-1.3-4-5.4-7.4-8-8.7c-4-1.3-4.7-2.7-3.3-9.4
		c1.3-5.4,0.7-8-1.3-8c-1.3,0-2-2-1.3-4c0.7-2.7,2-8.7,2.7-12.7c1.3-8,1.3-8.7-4-7.4l-6,0.7l-0.7,55.6l-0.7,55.6l13.4-2
		C537.3,719.4,549.4,716.7,557.4,714.7L557.4,714.7z M276.9,663.8c1.3-10.7,2.7-13.4,5.4-12.7c2,1.3,3.3-0.7,3.3-4
		c0-13.4,11.4-20.8,13.4-8c0.7,5.4,2,7.4,9.4,7.4l8,0.7v-12.7v-12.7l7.4,8.7c4,4.7,7.4,10,7.4,11.4c0,1.3,3.3,4,6.7,6.7
		c6.7,4,6.7,4-1.3-7.4c-4-6.7-10.7-18.1-14.7-26.1c-6-12.7-6.7-13.4-8.7-8.7c-2.7,7.4-6,7.4-12.7-0.7c-3.3-3.3-7.4-6-8.7-6
		c-3.3,0-4-2.7-2-8.7c1.3-2.7,4-3.3,11.4-2c9.4,1.3,10,0.7,8.7-3.3c-3.3-12-6.7-26.1-8-38.2l-2-13.4h-35.5h-35.5v12.7
		c0,16.7,6,48.9,14.1,71.6c7.4,20.8,26.1,60.9,29.5,60.9C274.3,678.5,276.3,671.8,276.9,663.8L276.9,663.8z M411.5,619.6l38.8-38.8
		l-8-15.4c-8.7-17.4-10.7-19.4-18.1-19.4c-3.3,0-6-2.7-8-6l-3.3-6l-47.5,0.7l-47.5,0.7l0.7,8.7c1.3,14.1,10,44.2,18.1,62.3
		c10,22.1,30.8,52.2,35.5,52.2C372.7,657.8,390.7,641,411.5,619.6L411.5,619.6z M656.5,598.2c3.3-4,14.1-5.4,16.1-1.3
		c0.7,1.3,5.4,1.3,12.7,0l12-2.7l5.4-19.4c2.7-10.7,5.4-24.1,6-29.5l0.7-10l-52.9-0.7c-40.8-0.7-52.9,0-53.5,2.7
		c-0.7,2-2.7,9.4-4.7,16.1l-4,13.4l11.4,5.4c6,2.7,16.1,5.4,22.1,5.4c8,0,11.4,1.3,16.1,6.7c5.4,6,5.4,7.4,2,11.4c-2,2.7-4,5.4-4,6
		C641.1,603.6,653.1,602.2,656.5,598.2L656.5,598.2z M529.3,587.5c2-8.7,18.1-23.4,22.8-22.1c2,0.7,5.4,0,6-1.3c1.3-2,3.3-2,6,0
		c6,4,10.7-1.3,16.7-18.1c6-17.4,4.7-32.1-3.3-49.5c-9.4-20.8-24.1-32.8-46.9-38.2c-7.4-2-7.4-2-6,10c1.3,13.4-3.3,16.7-5.4,4
		c-1.3-7.4-2-8.7-11.4-10c-7.4-1.3-11.4-0.7-14.7,2c-2,2-7.4,4-10.7,4c-8,0-14.7,7.4-15.4,14.7c0,3.3-1.3,5.4-4,4.7
		c-5.4-0.7-13.4,17.4-13.4,30.1c0,6.7,2,11.4,6,16.1l6,6l8-4.7c4-2.7,9.4-8,11.4-12c2-4,4.7-7.4,6.7-8c3.3-1.3,3.3,2-1.3,24.1
		l-2,8.7l12-2l11.4-2v9.4c0,6,2,12,6,16.7c8.7,10.7,8,13.4-3.3,10.7c-5.4-1.3-10-2-10-2s-2-4-4.7-8.7c-3.3-6.7-6.7-9.4-20.8-13.4
		c-25.4-7.4-26.1-6.7-12,10c13.4,16.1,34.8,25.4,52.9,24.8C525.9,593.5,528,592.2,529.3,587.5z M302.4,505.2
		c4-38.8,20.1-79,42.2-108.4l10-13.4l-24.1-24.8l-24.8-24.1l-7.4,8.7c-11.4,13.4-31.5,42.8-38.8,57.6
		c-16.1,31.5-29.5,81.7-29.5,108.4v11.4h35.5H301L302.4,505.2L302.4,505.2z M412.8,517.9c0-2-2.7-6-6-9.4s-8-10.7-10-16.7
		c-2.7-7.4-4.7-10-8-9.4c-5.4,0.7-8.7-3.3-8.7-10.7c0-2.7-2-7.4-5.4-10c-4.7-4-5.4-6.7-4-19.4c1.3-8,3.3-18.7,5.4-24.1
		c4-9.4,4-9.4-2.7-16.1c-6-6-6.7-6-10.7-1.3c-21.4,28.1-35.5,57.6-42.2,91c-2.7,12.7-4.7,24.1-4.7,26.1c0,2,11.4,3.3,48.2,3.3
		C400.1,521.2,412.8,520.6,412.8,517.9L412.8,517.9z M709.4,515.9c0-11.4-8.7-45.5-15.4-62.9c-4-10-12.7-26.1-19.4-36.1l-11.4-18.1
		l-37.5,38.2l-38.2,37.5l5.4,10.7c3.3,6,6.7,16.1,8,23.4l2.7,12.7h52.9C708,521.2,709.4,520.6,709.4,515.9z M734.1,517.2
		c2-3.3,4-3.3,12-1.3c5.4,1.3,18.1,3.3,27.4,4l16.7,1.3v-11.4c0-13.4-1.3-14.7-13.4-20.1c-5.4-2.7-10-6-10.7-8.7c-2.7-6-5.4-4-8.7,6
		c-6,19.4-12.7,4-12.7-28.1c0-6.7-1.3-12.7-2.7-13.4c-1.3-1.3-8.7,0-16.7,1.3c-12.7,2.7-13.4,3.3-12,8.7c5.4,16.7,8.7,32.8,10,48.2
		C725.4,520.6,729.4,525.9,734.1,517.2L734.1,517.2z M619.7,428.9l37.5-36.1L643.1,380C627,365.3,613,355.9,615,361.9
		c2,4.7-10,10-18.1,8c-5.4-1.3-6.7,0-9.4,4.7c-1.3,3.3-10,12-18.7,18.7c-14.1,10-16.1,12.7-16.1,20.1c0,5.4-2.7,11.4-8.7,18.1
		l-8.7,10l12,4c6,2,16.1,7.4,22.1,11.4c5.4,4,10.7,8,11.4,8C581.5,465,598.9,448.9,619.7,428.9L619.7,428.9z M719.4,415.5
		c0-4.7-1.3-9.4-2.7-10c-2.7-1.3-10.7-18.1-13.4-26.8c-1.3-3.3-1.3-2.7-3.3,1.3c-1.3,2.7-0.7,7.4,2,11.4c6,10,5.4,10.7-7.4,9.4
		l-11.4-1.3l5.4,8.7c3.3,4,9.4,14.7,13.4,22.8l8,14.7l4.7-10.7C717.4,428.9,719.4,420.2,719.4,415.5z M395.4,382.7
		c10.7-12.7,14.7-19.4,10.7-19.4c-2,0-25.4,16.7-28.8,21.4c-2,3.3-2,4.7,0.7,7.4c2,2,4,4,4.7,4C382.7,396.7,388.7,390,395.4,382.7
		L395.4,382.7z M525.3,390c3.3-2.7,5.4-2.7,9.4-0.7c6.7,4,13.4-1.3,11.4-10c-1.3-6-1.3-6,4-3.3c3.3,1.3,7.4,2,9.4,1.3
		c6.7-2.7,3.3-9.4-7.4-14.7c-6-3.3-12.7-7.4-14.1-10c-2-2.7-6-4.7-10-4c-12.7,0.7-16.7,8.7-9.4,17.4c3.3,4,3.3,5.4,0,12.7
		c-4,7.4-4,15.4,0.7,15.4C519.3,394,522.6,392,525.3,390L525.3,390z M675.9,373.3c3.3-3.3,6-8.7,6-12.7c0-4.7,1.3-7.4,5.4-8.7
		c6-2,6-4.7,1.3-8.7c-2-2-4-4-4-5.4c0-4,6.7-2,11.4,2.7c5.4,5.4,8.7,6.7,8.7,2c0-6-10.7-12-18.1-10.7c-7.4,1.3-8.7,0-7.4-8.7
		c0-1.3-0.7-5.4-2-7.4c-2-2.7-2.7-3.3-2.7-1.3c0,5.4-5.4,0.7-5.4-4.7c0-3.3-2-4.7-4.7-4.7c-6,0-22.1-6.7-24.1-10.7
		c-2.7-4,0-5.4,8.7-5.4c4,0,7.4,0,7.4-1.3c0-0.7-6.7-4-14.7-8.7c-10.7-5.4-15.4-6.7-16.7-4c-0.7,2-2,2-4-1.3
		c-4-6-13.4-10.7-32.1-16.1l-15.4-4l-12,8c-11.4,8-24.1,24.1-24.1,31.5c0,2,5.4,6,12,10c9.4,4.7,11.4,7.4,11.4,11.4
		c-1.3,6.7,7.4,7.4,8.7,0.7c0.7-2,4.7-6,8.7-8.7c6.7-4,7.4-5.4,6-13.4c-1.3-7.4-0.7-9.4,2-9.4c2,0,5.4-2.7,6.7-6s4-6,6-6
		c6,0,14.7,8,13.4,12.7c-0.7,2,0,6,1.3,8.7c2,3.3,2.7,3.3,8,0c6-4,6-4,7.4,4.7c1.3,4.7,4.7,12.7,8,18.1c3.3,5.4,6,10.7,6,12.7
		c0,3.3-10.7,8-22.8,9.4c-6,1.3-6,1.3,2,5.4c6.7,4,9.4,4,12,1.3c2.7-2.7,4.7-2,9.4,2c4.7,4.7,4.7,5.4,1.3,5.4c-2,0-4,0.7-4,2
		c0,2,25.4,23.4,27.4,23.4C669.2,378.7,672.5,376.6,675.9,373.3L675.9,373.3z M374,365.9c6.7-5.4,14.7-12,18.7-14.1c4-2,8-8,10-14.1
		c3.3-9.4,3.3-10-5.4-18.7c-14.1-13.4-22.8-14.1-46.2-1.3c-13.4,7.4-19.4,9.4-19.4,6.7c0-2-1.3-5.4-3.3-6.7c-2.7-2-4.7-1.3-9.4,3.3
		l-6,6.7l24.1,24.1c13.4,13.4,24.1,24.1,24.8,24.1C362,376.6,368,372,374,365.9L374,365.9z M718.1,361.2c-0.7-1.3,0-2.7,1.3-2.7
		c1.3,0,2-1.3,1.3-2.7c-4-6.7-10.7,4-7.4,12.7c1.3,3.3,2,3.3,4-0.7C718.7,365.9,719.4,362.6,718.1,361.2z"/>
	<path class="st0" d="M558.7,519.2c-3.3-3.3-1.3-6,4.7-6c7.4,0,8.7,4,2,6C560.8,521.2,560.8,521.2,558.7,519.2L558.7,519.2z"/>
	<path class="st0" d="M535.3,510.5c-1.3-1.3-4.7-4-8-5.4c-3.3-1.3-6-3.3-5.4-4c2-2,22.1,7.4,22.1,9.4
		C544.7,514.5,537.3,513.9,535.3,510.5z"/>
</g>
</svg>
