<?xml version="1.0" encoding="utf-8"?>
<!-- Generator: Adobe Illustrator 28.3.0, SVG Export Plug-In . SVG Version: 6.00 Build 0)  -->
<svg version="1.1" id="Layer_1" xmlns="http://www.w3.org/2000/svg" xmlns:xlink="http://www.w3.org/1999/xlink" x="0px" y="0px"
	 viewBox="0 0 4000 4000" style="enable-background:new 0 0 4000 4000;" xml:space="preserve">
<style type="text/css">
	.st0{fill:url(#SVGID_1_);}
	.st1{fill:url(#SVGID_00000067947408453920922830000008115171186532597385_);}
	.st2{fill:url(#SVGID_00000165919056948053676290000005621054502201412224_);}
	.st3{fill:url(#SVGID_00000157293159571936215530000016730190030180558768_);}
	.st4{fill:url(#SVGID_00000045591538459244459200000006887287014492294590_);}
	.st5{fill:url(#SVGID_00000047047553500216283310000009036568787840856991_);}
	.st6{fill:url(#SVGID_00000013874099399798315610000000129815802608707488_);}
	.st7{fill:url(#SVGID_00000129169618559680641020000009980195981572896421_);}
</style>
<g>
	<linearGradient id="SVGID_1_" gradientUnits="userSpaceOnUse" x1="686.9189" y1="1617.4037" x2="3143.8916" y2="1617.4037">
		<stop  offset="0.2939" style="stop-color:#A1A1A1"/>
		<stop  offset="0.3453" style="stop-color:#969696"/>
		<stop  offset="0.4929" style="stop-color:#7C7C7C"/>
		<stop  offset="0.6252" style="stop-color:#6C6C6C"/>
		<stop  offset="0.7284" style="stop-color:#666666"/>
	</linearGradient>
	<path class="st0" d="M686.9,397.3c120.5,41.4,230,86.2,343.5,116.3c156.3,41.4,276.3,127.9,389.8,241.9
		c563.6,566.2,1133.2,1126.3,1701.4,1687.9c25,24.7,35.4,38.7-3.1,60.8c-40.2,23.1-76.4,53.3-113.4,81.6
		c-14.6,11.1-25.7,13.5-37.5-2.7c-4.8-6.6-11.5-11.7-17.4-17.5C2362.1,1983.1,1774,1400.7,1185.9,818.2
		c-42.9-42.5-72.4-50-97.7-24.8c-26.2,26.1-19.2,54.3,24.3,97.4c589,583.5,1177.8,1167.1,1767.8,1749.6
		c28.2,27.8,27.3,45.6,4.6,73.5c-27.6,34-52.7,70.2-76.4,107.1c-13.9,21.7-24.7,21.3-39.8,2.9c-6.9-8.4-15.5-15.5-23.3-23.2
		C2134.8,2196,1524.3,1591.4,913.9,986.6c-11.6-11.4-24.7-21.4-30.6-38C819.1,767.9,754.6,587.2,686.9,397.3z"/>
	
		<linearGradient id="SVGID_00000100359800929361318480000010283620226177917340_" gradientUnits="userSpaceOnUse" x1="2110.1963" y1="1009.7953" x2="3336.0066" y2="1009.7953">
		<stop  offset="0.1693" style="stop-color:#A1A1A1"/>
		<stop  offset="0.8291" style="stop-color:#818386"/>
		<stop  offset="0.8914" style="stop-color:#666666"/>
	</linearGradient>
	<path style="fill:url(#SVGID_00000100359800929361318480000010283620226177917340_);" d="M3336,397.3
		c-35.4,101.5-68.5,197-101.9,292.4c-29.3,83.8-59.3,167.4-88.2,251.3c-6.2,17.9-15.3,32.8-28.7,46.2
		c-206.9,206.3-413.7,412.7-619.8,619.8c-18.4,18.5-29.2,21.9-48.2,0.8c-34.1-37.6-70-73.8-107.8-107.7
		c-20.8-18.6-15.8-28.3,1.3-45.2c190.9-189.7,381-380.2,571.3-570.5c4.9-4.9,10.2-9.4,14.7-14.7c18.3-21.9,19.3-45.3-0.8-65.2
		c-20.4-20.2-44.7-18.2-64.9,1.2c-41.6,40-82,81.3-122.8,122.1c-154.3,154.3-309,308.3-462.5,463.5c-18.6,18.8-28.1,18.1-45.2-0.4
		c-34.5-37.3-70.5-73.3-107.8-107.8c-18.6-17.2-19.6-26.7-0.5-45.5c169.2-167.3,341.3-332,503.7-505.6
		c92.2-98.6,195.9-164.9,324.9-202.3C3080,492.9,3203.6,443.6,3336,397.3z"/>
	
		<linearGradient id="SVGID_00000057844588959879691890000011500453802841883556_" gradientUnits="userSpaceOnUse" x1="390.6605" y1="2874.2156" x2="1324.7493" y2="2874.2156">
		<stop  offset="0.1693" style="stop-color:#A1A1A1"/>
		<stop  offset="0.8291" style="stop-color:#818386"/>
		<stop  offset="0.8914" style="stop-color:#666666"/>
	</linearGradient>
	<path style="fill:url(#SVGID_00000057844588959879691890000011500453802841883556_);" d="M397.6,3147.5
		c37-48.2,72.5-94.7,108.3-141.1c45.1-58.5,89.7-117.4,136.2-174.8c13.9-17.2,13.2-26.6-2.4-41.9c-79.2-77.6-156.5-157-236-234.2
		c-18.2-17.6-16.7-26.7,0.6-42.7c33.1-30.5,64.3-63,95.5-95.4c11.5-11.9,19.5-14.2,34.5-3.3c146.8,106.2,294.3,211.4,441.7,316.8
		c10.5,7.5,19,16.5,26.5,27c104.1,145.5,208.1,291.1,313.1,435.9c12.8,17.7,12.3,27.9-3.4,42.5c-31.3,29-61.9,59-90.7,90.5
		c-16.7,18.2-26.5,20.6-45.4,1c-75.4-78-153.7-153.3-229.2-231.2c-18.6-19.2-29.9-18.7-50.1-2.8c-95.1,75.2-191.7,148.3-287.1,223.2
		c-18.7,14.7-26.3,16.7-36.6-9C541.5,3228.3,480.9,3177.5,397.6,3147.5z"/>
	
		<linearGradient id="SVGID_00000064356162405598903910000007737395087066225568_" gradientUnits="userSpaceOnUse" x1="2688.5417" y1="2835.7705" x2="3608.1296" y2="2835.7705">
		<stop  offset="0.2939" style="stop-color:#A1A1A1"/>
		<stop  offset="0.3453" style="stop-color:#969696"/>
		<stop  offset="0.4929" style="stop-color:#7C7C7C"/>
		<stop  offset="0.6252" style="stop-color:#6C6C6C"/>
		<stop  offset="0.7284" style="stop-color:#666666"/>
	</linearGradient>
	<path style="fill:url(#SVGID_00000064356162405598903910000007737395087066225568_);" d="M3597.5,3092.3
		c-85.4,33.7-146.9,87.1-179,170.3c-8.9,23-19.1,10.5-30,2.1c-88.1-67.6-177.2-133.9-264-203.2c-28.5-22.7-46.1-26.1-73.4,3.2
		c-69.2,74.3-142.7,144.5-213.2,217.6c-18.3,19-29.9,21.6-48.6,0.5c-27.3-30.7-57.4-59-87.5-87.1c-14.3-13.3-18.1-23.6-5.5-41.2
		c103.8-144.8,204.7-291.8,310.9-434.9c41.1-55.3,107-84.7,161.7-125.8c93.1-70,188.7-136.6,282.6-205.6c22.6-16.6,39.2-23,60.9,3
		c24.5,29.4,53.2,55.5,81.8,81.1c18.7,16.7,18.8,27.9,0.5,45.9c-73.4,72.1-143.9,147.3-218.4,218.3c-27.3,26-24.9,43.1-3.4,69.8
		C3447.5,2899.3,3520.3,2993.7,3597.5,3092.3z"/>
	
		<linearGradient id="SVGID_00000114045534565234086230000008018097574606598328_" gradientUnits="userSpaceOnUse" x1="847.627" y1="2222.377" x2="1715.4008" y2="2222.377">
		<stop  offset="0.1693" style="stop-color:#A1A1A1"/>
		<stop  offset="0.8291" style="stop-color:#818386"/>
		<stop  offset="0.8914" style="stop-color:#666666"/>
	</linearGradient>
	<path style="fill:url(#SVGID_00000114045534565234086230000008018097574606598328_);" d="M1014.9,2645.2c-4.2-2.9-8.9-6.1-13.6-9.4
		c-46.9-33.6-93.4-67.8-140.8-100.6c-14.7-10.2-18.1-15.9-3.5-30.4c232.2-231.4,463.9-463.4,695.4-695.5c12.3-12.3,20.2-13.7,33-0.3
		c39.2,40.8,79,81,119.9,120c15.1,14.4,12,22.3-1.2,35.4c-222.4,221.6-444.3,443.7-666.5,665.4
		C1031.5,2636,1026.7,2645.2,1014.9,2645.2z"/>
	
		<linearGradient id="SVGID_00000029006397328697048560000002897683087829051030_" gradientUnits="userSpaceOnUse" x1="1089.4833" y1="2446.4517" x2="1937.9972" y2="2446.4517">
		<stop  offset="0.1693" style="stop-color:#A1A1A1"/>
		<stop  offset="0.8291" style="stop-color:#818386"/>
		<stop  offset="0.8914" style="stop-color:#666666"/>
	</linearGradient>
	<path style="fill:url(#SVGID_00000029006397328697048560000002897683087829051030_);" d="M1938,2164.2
		c-7.3,7.8-14.2,15.5-21.5,22.8c-216.4,216.3-432.7,432.7-649.2,648.9c-56.3,56.2-56.4,55.9-102-8.6c-22.6-32-44.6-64.7-68.7-95.6
		c-11.3-14.5-8.6-22.5,3.3-34.3c224.1-223.4,447.8-447.1,671.5-670.8c8.5-8.5,14.8-17.1,27.6-3.8c42.6,43.9,86.2,86.9,129.4,130.2
		C1931.7,2156.2,1934.4,2160,1938,2164.2z"/>
	
		<linearGradient id="SVGID_00000054960354743824121030000014389498866237900462_" gradientUnits="userSpaceOnUse" x1="129.3138" y1="3415.8003" x2="503.5384" y2="3415.8003">
		<stop  offset="0.1693" style="stop-color:#A1A1A1"/>
		<stop  offset="0.8291" style="stop-color:#818386"/>
		<stop  offset="0.8914" style="stop-color:#666666"/>
	</linearGradient>
	<path style="fill:url(#SVGID_00000054960354743824121030000014389498866237900462_);" d="M316.1,3602.7
		c-102.5,0.1-187.2-84.6-186.8-187.1c0.4-102.9,84.4-186.7,187.4-186.8c102.3-0.1,187.2,85.1,186.8,187.4
		C503.1,3519.4,419.4,3602.6,316.1,3602.7z"/>
	
		<linearGradient id="SVGID_00000155841278276920809170000008916977652066756993_" gradientUnits="userSpaceOnUse" x1="3501.6318" y1="3367.7156" x2="3870.6863" y2="3367.7156">
		<stop  offset="0.2939" style="stop-color:#A1A1A1"/>
		<stop  offset="0.3453" style="stop-color:#969696"/>
		<stop  offset="0.4929" style="stop-color:#7C7C7C"/>
		<stop  offset="0.6252" style="stop-color:#6C6C6C"/>
		<stop  offset="0.7284" style="stop-color:#666666"/>
	</linearGradient>
	<path style="fill:url(#SVGID_00000155841278276920809170000008916977652066756993_);" d="M3556.3,3237.2
		c72.9-72.9,189.3-72.1,262.2,1.9c69.3,70.2,69.6,185.9,0.6,256.6c-72.2,74-189.6,75.8-262.6,4
		C3483.4,3427.8,3483.3,3310.3,3556.3,3237.2z"/>
</g>
</svg>
