<?xml version="1.0" encoding="utf-8"?>
<!-- Generator: Adobe Illustrator 28.3.0, SVG Export Plug-In . SVG Version: 6.00 Build 0)  -->
<svg version="1.1" id="Layer_1" xmlns="http://www.w3.org/2000/svg" xmlns:xlink="http://www.w3.org/1999/xlink" x="0px" y="0px"
	 viewBox="0 0 4000 4000" style="enable-background:new 0 0 4000 4000;" xml:space="preserve">
<style type="text/css">
	.st0{fill:#126C1D;}
	.st1{fill:#4DC00F;}
</style>
<path class="st0" d="M3023.8,1863.2c-4.3,13.3-13.5,23.1-23.1,32.7c-80.6,80.4-161.2,160.9-241.6,241.5
	c-12.2,12.2-26,19.5-43.6,18.8c-12.6-0.5-23.6-4.8-33.1-12.9c-3.3-2.8-6.2-5.9-9.2-9c-222-221.9-444-443.9-666-665.8
	c-3-3-5.5-6.6-9.6-8.5c-4,1.9-6.6,5.5-9.6,8.5c-220.1,220-440.2,440-660.2,660.1c-11.1,11.1-23,19.7-39.3,20.7
	c-15.6,1-29.2-3.6-40.8-14c-2-1.8-3.9-3.8-5.8-5.7c-82.5-82.4-164.9-164.9-247.4-247.3c-1.7-1.7-3.3-3.3-4.9-5
	c-20.4-22.1-20.3-52.8,0.3-74.9c2.4-2.6,4.9-5,7.4-7.5c317.7-317.6,635.4-635.2,953.1-952.8c3.6-3.6,7.1-7.3,11-10.5
	c20.5-16.9,49.7-16.6,69.8,0.8c3.8,3.3,7.3,7,10.9,10.6c318.8,318.7,637.6,637.4,956.5,956.1c10.1,10.1,19.9,20.2,25.3,33.7
	C3023.8,1842.9,3023.8,1853,3023.8,1863.2z M2894.5,1848.2c-1.7-4.1-5.4-6.6-8.3-9.6c-42-41.8-83.1-84.3-126.7-124.5
	c-9.5-8.7-16.8-19.3-26-28.3c-26.1-25.5-51.6-51.7-77.7-77.3c-54.5-53.5-106.7-109.3-163.1-160.8c-12.1-11.1-22.1-24.1-33.6-35.6
	c-55.8-56-111.8-111.8-167.7-167.6c-46.6-46.5-93.2-93.1-139.7-139.6c-34.4-34.4-68.8-68.7-103.2-103.1
	c-14.9-14.9-29.8-29.8-44.7-44.6c-8.3-8.2-8.3-8.1-16.6,0c-0.8,0.8-1.7,1.7-2.5,2.5c-290.4,290.3-580.8,580.5-871.1,870.8
	c-10.4,10.4-10.6,8.3-0.4,18.6c52.9,53,105.8,105.9,158.8,158.8c13.3,13.3,11.3,13,24.1,0.2c197.4-197.4,394.9-394.8,592.3-592.2
	c23.2-23.2,46.3-46.3,69.5-69.5c6.1-6.1,12.8-11.6,21.2-14.1c21.8-6.3,41.5-3.1,58.1,13.6c30.5,30.7,61.2,61.3,91.8,91.9
	c192.9,193,385.9,386.1,578.9,579.1c10.7,10.7,9.1,10.4,19.6-0.1c53.2-53.2,106.4-106.4,159.6-159.6
	C2889.6,1854.3,2893,1852.1,2894.5,1848.2z"/>
<path class="st0" d="M2712.1,3180.9c-17.8-5.2-31-16.8-43.8-29.7c-219.6-219.9-439.5-439.6-659.3-659.3c-3-3-5.5-6.6-9.6-8.4
	c-4.3,2.3-7.1,6.1-10.4,9.4c-219.8,219.7-439.7,439.4-659.4,659.2c-9.6,9.6-19.7,17.5-33.5,19.9c-16.9,3-31.6-1.2-44.7-11.9
	c-2.7-2.2-5.1-4.8-7.6-7.3c-82.5-82.4-164.9-164.9-247.4-247.3c-9-9-16.1-18.8-18.8-31.6c-3.6-17.3,1.1-32.3,12-45.7
	c2.7-3.3,5.9-6.2,8.9-9.3c317.7-317.6,635.4-635.3,953.1-952.9c3.3-3.3,6.5-6.7,10-9.8c20.7-18.4,50.6-18.6,71.5-0.6
	c2.9,2.5,5.6,5.4,8.4,8.2c320.5,320.4,640.9,640.8,961.5,961.1c9.7,9.7,18.9,19.4,22.7,33c0,9.4,0,18.7,0,28.1
	c-3.2,9.7-8.2,18.1-15.5,25.4c-83.8,83.7-167.5,167.4-251.2,251.1c-6.7,6.7-14.4,11.7-23.5,14.8c-2.4,0.8-5.6,0.7-7.1,3.5
	C2723,3180.9,2717.5,3180.9,2712.1,3180.9z M2896.6,2872.7c-0.6-4.3-3.9-6.2-6.3-8.6c-33-33-66-66-99-99
	c-38.3-38.3-76.7-76.6-115-115c-6.3-6.4-14.7-10.5-19.9-17.9c-6.1-8.7-13.9-15.7-21.3-23.1c-47-47.1-94-94.3-141.3-141.1
	c-92-91-181.9-184.2-275.6-273.4c-9.5-9.1-17.6-19.7-27.1-28.9c-26.5-25.7-51.2-53.2-79.3-77.4c-8.8-7.6-15.8-17.2-23.9-25.5
	c-26.9-27.7-54.4-54.7-81.8-82c-8.1-8-8.1-8-16.2,0c-0.6,0.5-1.1,1.1-1.7,1.7c-290.1,290-580.2,580-870.4,870
	c-1.9,1.9-3.8,3.9-5.8,5.8c-4,3.6-4.2,7.2-0.2,10.9c2.3,2.1,4.4,4.4,6.6,6.6c51.8,51.8,103.7,103.7,155.5,155.5
	c12.8,12.8,11.3,12.5,23.3,0.3c88.4-89.6,179.2-176.9,266-268.1c21.2-22.3,44.1-42.8,66-64.4c94.1-92.9,187.4-186.4,280.5-280.3
	c15.8-16,30.8-32.9,46.9-48.7c19.9-19.5,47.6-23.2,70.7-9.6c6.1,3.6,11.2,8.3,16.2,13.3c174.2,174.3,348.4,348.6,522.6,522.9
	c48.8,48.8,97.6,97.6,146.4,146.4c7.2,7.2,7.3,7.1,14.4,0.2c0.8-0.8,1.7-1.7,2.5-2.5c52.9-52.9,105.9-105.9,158.8-158.8
	c1.9-1.9,3.9-3.8,5.8-5.8C2895,2875,2895.8,2873.7,2896.6,2872.7z"/>
<path class="st1" d="M2894.5,1848.2c-1.5,3.9-4.8,6.1-7.6,8.8c-53.2,53.2-106.4,106.5-159.6,159.6c-10.6,10.6-8.9,10.9-19.6,0.1
	c-193-193-385.9-386.1-578.9-579.1c-30.6-30.6-61.3-61.1-91.8-91.9c-16.6-16.7-36.3-19.9-58.1-13.6c-8.4,2.4-15.1,7.9-21.2,14.1
	c-23.1,23.2-46.3,46.3-69.5,69.5c-197.4,197.4-394.8,394.8-592.3,592.2c-12.8,12.8-10.8,13.2-24.1-0.2
	c-52.9-52.9-105.9-105.9-158.8-158.8c-10.3-10.3-10-8.2,0.4-18.6c290.4-290.3,580.7-580.5,871.1-870.8c0.8-0.8,1.6-1.7,2.5-2.5
	c8.3-8.1,8.4-8.2,16.6,0c14.9,14.8,29.8,29.7,44.7,44.6c34.4,34.4,68.8,68.7,103.2,103.1c46.6,46.5,93.2,93.1,139.7,139.6
	c55.9,55.9,111.9,111.7,167.7,167.6c11.5,11.6,21.5,24.6,33.6,35.6c56.4,51.6,108.7,107.3,163.1,160.8
	c26.1,25.6,51.5,51.8,77.7,77.3c9.2,9,16.5,19.6,26,28.3c43.6,40.1,84.7,82.7,126.7,124.5
	C2889.1,1841.6,2892.8,1844.1,2894.5,1848.2z"/>
<path class="st1" d="M2896.6,2872.7c-0.8,1-1.6,2.3-2.6,3.4c-1.8,2-3.8,3.9-5.8,5.8c-52.9,52.9-105.9,105.9-158.8,158.8
	c-0.8,0.8-1.6,1.7-2.5,2.5c-7.1,7-7.2,7-14.4-0.2c-48.8-48.8-97.6-97.6-146.4-146.4c-174.2-174.3-348.4-348.6-522.6-522.9
	c-5-5-10.1-9.8-16.2-13.3c-23.1-13.5-50.8-9.9-70.7,9.6c-16.1,15.8-31.1,32.7-46.9,48.7c-93,93.9-186.4,187.5-280.5,280.3
	c-21.9,21.6-44.8,42.2-66,64.4c-86.8,91.2-177.6,178.5-266,268.1c-12,12.2-10.5,12.5-23.3-0.3c-51.8-51.9-103.6-103.7-155.5-155.5
	c-2.2-2.2-4.3-4.5-6.6-6.6c-4-3.7-3.8-7.3,0.2-10.9c2-1.8,3.9-3.9,5.8-5.8c290.1-290,580.2-580,870.4-870c0.6-0.6,1.1-1.1,1.7-1.7
	c8.1-8,8.2-8.1,16.2,0c27.3,27.3,54.9,54.3,81.8,82c8.1,8.3,15,17.9,23.9,25.5c28,24.2,52.8,51.7,79.3,77.4
	c9.5,9.2,17.6,19.8,27.1,28.9c93.7,89.3,183.6,182.4,275.6,273.4c47.3,46.8,94.2,94,141.3,141.1c7.4,7.4,15.2,14.4,21.3,23.1
	c5.2,7.4,13.5,11.6,19.9,17.9c38.3,38.4,76.6,76.7,115,115c33,33,66.1,66,99,99C2892.7,2866.5,2896,2868.4,2896.6,2872.7z"/>
</svg>
