<?xml version="1.0" encoding="UTF-8"?>
<svg id="Layer_1" data-name="Layer 1" xmlns="http://www.w3.org/2000/svg" version="1.1" xmlns:xlink="http://www.w3.org/1999/xlink" viewBox="0 0 2267.7 2267.7">
  <defs>
    <style>
      .cls-1 {
        fill: #ffe096;
      }

      .cls-1, .cls-2 {
        stroke-width: 0px;
      }

      .cls-2 {
        fill: url(#linear-gradient);
        fill-rule: evenodd;
      }
    </style>
    <linearGradient id="linear-gradient" x1="1133.9" y1="1826.1" x2="1133.9" y2="441.6" gradientUnits="userSpaceOnUse">
      <stop offset="0" stop-color="#c08c38"/>
      <stop offset="1" stop-color="#fede8c"/>
    </linearGradient>
  </defs>
  <path class="cls-2" d="M1805.3,1319.2l-29.8,10.7c16.9-28,31.6-58,43.9-90l35.7-19.9c50.6,33.1,127.9-28.6,154.9-91.2-67.1-11.1-161.3,21.1-159.1,83.6l-26.8,14.9c10.9-30.4,19.6-62.8,25.9-97.2l30.5-28.1c56.9,20.4,117.6-57.7,129.3-124.9-67.8,4.9-151.9,58.2-135.1,118.5l-22.2,20.4c1.3-8.1,2.5-16.3,3.6-24.6,3.4-26.4,5.5-51.6,6.5-75.6l23.9-33.6c59.9,8.1,103.1-80.8,100.6-148.9-65.3,18.8-136.6,88.4-107.7,143.9l-16.3,23c.7-36.2-1.3-69.9-6.1-102.1l19.2-36.6c52.4-1.1,79.7-82.9,69.9-141.7-54.5,23.5-108.4,91.1-79.3,136.4l-12.8,23.9c-4.8-26.3-11.5-51.7-20.1-76.5l12.3-43.5c51-11.9,61-97.4,39.4-153-48.5,34.2-87.5,111.3-49.7,149.8l-8.5,29.1c-9.9-25.6-21.9-51-36.1-76.5l4.5-37.1c44.2-17.8,41.3-96.1,14.1-143.1-38.8,37.5-63.1,112.3-23.8,141.6l-3.1,24c-13.4-23-28.4-46.1-45-69.5l2-35.6c41.1-19.7,33.4-94.2,4.5-137.3-34.7,38.2-53.2,111-13.8,136.5l-1.5,24c-16.4-22.7-34.2-45.7-53.2-69.3,14.9-42.1-40.8-90.4-90.6-102.2.6,51.6,36.6,117.5,82.8,109.4l10.8,13.2c22.1,29.1,41.9,57.1,59.5,84.5l-22.7-5c-12.1-41-82.4-45.1-126.6-24.8,30.2,37.9,95,66,124.5,33.3l31.6,7.1c18.3,29.2,34.2,57.8,47.6,86.3l-20.7-7.4c-7.6-47.1-84.7-61.5-136.5-45.3,28,46.1,95.6,86.4,132.9,54.4l30.1,11c5.9,13.3,11.4,26.6,16.3,40,8.5,23,15.3,46.5,20.4,70.8l-21.8-13.6c2.8-52.3-76.7-85.7-136-80.4,19.4,56.1,82.7,114.9,130.1,89.3l30.6,19.4c9,49.6,11.1,103,6.1,163.6l-17.6-25.6c28.2-53.5-40.5-124.6-105.4-145.6-4.7,67.8,36.2,158.6,98.2,150.5l23.5,34.2c-.9,9.4-2,19-3.2,28.7-5.3,41.7-14.2,80.4-26.1,116.5l-12-29c38.7-46.4-13.7-130.3-72.7-164.3-18.7,65.3,2.3,162.7,64.7,167.7l15.8,38.1c-19.1,53.5-45.3,100.9-77.1,143.2l-1.6-33.1c52.1-30.7,30.9-127.3-13.3-179.2-39.6,55.2-52.5,154,4.6,179.7l2.2,43.3c-36.4,46-79.7,85.9-128.1,120.9l10.3-35.5c68.3-13.9,81.6-127.2,52.9-200.4-64,45.3-115.1,148.1-62.6,197.6l-13.8,47.7c-38.1,26.4-79.1,50.1-122.2,71.5l14.5-34.9c69.4-6.2,95.3-117.2,75-193.2-68.6,37.9-131,134.3-84.3,189.3l-18.9,45.4c-46.9,22.7-96.2,42.9-146.7,61.5l22-36c74.5,4.8,120-108.6,111-192.3-78.8,28.9-160.6,120.8-120.1,186.7l-29,47.5c-42.6,15.3-86.1,29.5-129.7,43.1-6.8,2.1-13.8,4.4-20.7,6.8-7-2.4-13.9-4.7-20.7-6.8-43.6-13.6-87.1-27.8-129.7-43.1l-29-47.5c40.4-65.8-41.3-157.8-120.1-186.7-9.1,83.7,36.5,197.1,111,192.3l22,36c-50.5-18.6-99.8-38.8-146.7-61.5l-18.9-45.4c46.7-55-15.7-151.4-84.3-189.3-20.3,75.9,5.6,187,75,193.2l14.5,34.9c-43.1-21.5-84.1-45.1-122.2-71.5l-13.8-47.7c52.5-49.4,1.4-152.2-62.6-197.6-28.6,73.2-15.4,186.5,52.9,200.4l10.3,35.5c-48.4-35-91.7-74.9-128.1-120.9l2.2-43.3c57-25.7,44.2-124.4,4.6-179.7-44.2,51.9-65.3,148.5-13.3,179.2l-1.6,33.1c-31.9-42.3-58-89.7-77.1-143.2l15.8-38.1c62.4-5,83.4-102.3,64.7-167.7-59.1,34-111.4,117.9-72.7,164.3l-12,29c-11.9-36-20.8-74.7-26.1-116.5-1.2-9.8-2.3-19.3-3.2-28.7l23.5-34.2c62,8.1,102.9-82.7,98.2-150.5-64.8,21-133.6,92.1-105.4,145.6l-17.6,25.6c-5-60.6-2.8-114,6.1-163.6l30.6-19.4c47.4,25.6,110.7-33.3,130.1-89.3-59.4-5.3-138.8,28-136,80.4l-21.8,13.6c5.1-24.3,11.9-47.7,20.4-70.8,4.9-13.4,10.3-26.7,16.3-40l30.1-11c37.3,31.9,104.9-8.3,132.9-54.4-51.8-16.1-128.9-1.7-136.5,45.3l-20.7,7.4c13.4-28.5,29.3-57.1,47.6-86.3l31.6-7.1c29.5,32.7,94.3,4.6,124.5-33.3-44.3-20.3-114.5-16.2-126.6,24.8l-22.7,5c17.6-27.3,37.4-55.3,59.5-84.5l10.8-13.2c46.2,8.1,82.2-57.9,82.8-109.4-49.9,11.8-105.5,60.2-90.6,102.2-19,23.6-36.8,46.7-53.2,69.3l-1.5-24c39.3-25.5,20.8-98.3-13.8-136.5-28.8,43.1-36.5,117.6,4.5,137.3l2,35.6c-16.5,23.5-31.6,46.6-45,69.5l-3.1-24c39.4-29.3,15.1-104.1-23.8-141.6-27.2,47-30.1,125.3,14.1,143.1l4.5,37.1c-14.1,25.5-26.2,50.9-36.1,76.5l-8.5-29.1c37.8-38.4-1.2-115.6-49.7-149.8-21.6,55.6-11.6,141.1,39.4,153l12.3,43.5c-8.6,24.8-15.3,50.2-20.1,76.5l-12.8-23.9c29.1-45.4-24.9-112.9-79.3-136.4-9.7,58.8,17.6,140.5,69.9,141.7l19.2,36.6c-4.8,32.1-6.8,65.9-6.1,102.1l-16.3-23c28.9-55.5-42.4-125-107.7-143.9-2.5,68.1,40.7,157.1,100.6,148.9l23.9,33.6c1,24,3.2,49.2,6.5,75.6,1.1,8.3,2.3,16.5,3.6,24.6l-22.2-20.4c16.8-60.3-67.3-113.6-135.1-118.5,11.6,67.2,72.3,145.2,129.3,124.9l30.5,28.1c6.3,34.4,15,66.7,25.9,97.2l-26.8-14.9c2.2-62.5-92-94.7-159.1-83.6,27,62.6,104.3,124.3,154.9,91.2l35.7,19.9c12.3,32.1,27,62,43.9,90l-29.8-10.7c-8-62-106.2-78.5-170.6-56.6,36.8,57.4,123.1,105.7,167.6,64.8l40.1,14.4c21.9,34.4,47.2,65.9,75.3,94.8l-33.2-5.8c-22.2-71.4-141.2-70.5-212.5-31.6,55.2,60,166.7,99.1,210.7,41.8l47.7,8.3c29.4,28.6,61.6,54.6,96.2,78.5l-36.5.5c-34.9-66.1-151.8-43.3-214.7,8.1,65.3,48.8,182.1,66.7,214.8,2.3l51.4-.7c37.7,25,77.9,47.5,120,68.3l-36.8,6.2c-46.1-62-161.8-20.2-217.9,42.2,74.4,39.5,196.5,39.3,219.7-31.7l51.7-8.7c37.2,17.7,75.7,34.1,115.1,49.5l-37.4,12.2c-54.8-54.5-163,4-209.3,74.1,79.4,28,200.2,9.7,212.6-63.9l49.9-16.3c40.8,15.6,82.5,30.2,124.5,44.1.3,0,.6.2.9.3-49.8,21.1-98.7,49.2-133.4,83.1-12,11.7,12.7,35.1,22.2,26.8,47.7-42,98-71.7,153.3-94.3,55.3,22.6,105.5,52.3,153.3,94.3,9.5,8.3,34.2-15.1,22.2-26.8-34.7-33.9-83.6-62-133.4-83.1.3,0,.6-.2.9-.3,42-14,83.7-28.6,124.5-44.1l49.9,16.3c12.4,73.6,133.2,91.9,212.6,63.9-46.2-70.1-154.4-128.5-209.3-74.1l-37.4-12.2c39.4-15.4,77.9-31.7,115.1-49.5l51.7,8.7c23.2,71,145.4,71.1,219.7,31.7-56.1-62.5-171.8-104.2-217.9-42.2l-36.8-6.2c42.1-20.7,82.3-43.3,120-68.3l51.4.7c32.7,64.4,149.6,46.5,214.8-2.3-62.9-51.4-179.7-74.3-214.7-8.1l-36.5-.5c34.5-23.9,66.8-49.9,96.2-78.5l47.7-8.3c44,57.3,155.6,18.2,210.7-41.8-71.3-39-190.3-39.9-212.5,31.6l-33.2,5.8c28.1-28.9,53.4-60.3,75.3-94.8l40.1-14.4c44.5,40.9,130.8-7.4,167.6-64.8-64.4-21.8-162.6-5.4-170.6,56.6Z"/>
  <g>
    <path class="cls-1" d="M850.5,1655c-53.1,3.9-114.7,46.7-146.6,95.2,36.1,12.8,80.8,15.9,120,8.6-34.7,3.7-72-.2-103-11.1,28.6-43.4,80.9-82.3,129.7-92.7Z"/>
    <path class="cls-1" d="M723.2,1582.4c-53.1-4.1-120.3,29.2-159.1,72.4,33.8,18,77.6,27.7,117.4,26.3-34.9-1.5-71.2-10.8-100.2-26.3,34.7-38.7,92.2-69.4,142-72.5Z"/>
    <path class="cls-1" d="M595.6,1490.8c-50.2-11.7-119.4,10.1-162.9,45.7,29.7,22.2,70.1,38,108.4,42.6-33.1-6.6-66.5-20.9-92-40,38.9-31.8,98.5-52.7,146.5-48.3Z"/>
    <path class="cls-1" d="M344.8,1404.9c44.1-24.1,106.5-33.6,152.9-20.5-47.1-20.8-119.3-12.1-168.6,14.9,25.1,27.3,61.9,50.3,98.7,61.8-31.4-12.6-61.5-32.8-83-56.2Z"/>
    <path class="cls-1" d="M303.9,1269.5c39.8-13.5,92.6-12.4,129,5.2-35.8-23.9-96.5-27.1-141-12,16.8,26.1,43.8,50.3,72.4,65.1-24-14.9-45.9-35.9-60.3-58.3Z"/>
    <path class="cls-1" d="M318.6,1204.9c-21.3-18.6-39.5-42.9-50-67.3,41.5-6.9,93.4,2.8,126.4,26-31.5-29.4-90.8-42.4-137.2-34.8,12.3,28.5,35,56.8,60.8,76Z"/>
    <path class="cls-1" d="M266.5,988.2c42,3,90.1,24.6,116.8,54.9-23.7-36-78.4-62.5-125.3-65.9,5.3,30.6,20.7,63.4,41.4,88.2-16.4-23-28.4-50.9-32.9-77.1Z"/>
    <path class="cls-1" d="M286.7,846c40.4,11.7,83.1,42.7,102.9,77.9-15.8-40.1-63.8-77.4-108.9-90.4-1.2,31,7.2,66.3,22.2,94.8-11.2-25.9-17.2-55.7-16.2-82.3Z"/>
    <path class="cls-1" d="M325.6,731.5c34.1,14.7,68,46.7,81.4,79.7-9.3-36.9-47.2-74.9-85.3-91.4-4.5,27-1.1,58.9,8.9,85.5-6.9-24-8.9-50.7-5-73.9Z"/>
    <path class="cls-1" d="M383.6,619.5c30.4,21.4,57,59.7,63.4,94.7-1.6-38-30.8-83-64.8-106.9-9.9,25.5-13.2,57.4-8.8,85.5-1.9-24.9,1.7-51.4,10.2-73.3Z"/>
    <path class="cls-1" d="M501.1,634.6c3.9-34.4-16.2-78.9-43.3-105.2-12.5,21.6-19.9,49.8-19.9,75.7,1.8-22.6,8.7-46,19.4-64.5,24.3,23.5,42.9,61.6,43.8,94Z"/>
    <path class="cls-1" d="M557.8,555.6c5.8-32.6-10.5-76.2-34.8-102.9-13.2,19.8-22,46.2-23.7,70.9,3.1-21.5,11.2-43.3,22.5-60.3,21.7,23.9,37.1,61.4,35.9,92.3Z"/>
    <path class="cls-1" d="M637.7,540.7c26.4-19.9,44.2-63,44.6-99.1-23.2,5.5-47.6,18.9-65.6,35.8,16.9-13.6,37.7-24.1,57.6-28.8-.4,32.3-14.6,70.2-36.6,92.1Z"/>
    <path class="cls-1" d="M840.6,1430.2c48.8,17.9,98.6,59.9,120,104.9-15.9-50.8-71.8-100.9-126.3-120.9-4.1,38.1,3.1,82.3,19.1,118.8-11.6-32.9-16.4-70.1-12.8-102.8Z"/>
    <path class="cls-1" d="M720.8,1361.9c42.5,23.4,82.5,69.3,95.8,113.9-7.5-49.1-51.9-103.3-99.4-129.5-9.2,34.6-8.9,76.4.8,112.3-6-32-5.1-67,2.8-96.7Z"/>
    <path class="cls-1" d="M692.5,1397.4c-1.9-49.7-40-108.5-84.2-139.8-13,33.3-17.4,74.9-11.8,111.7-2.4-32.5,2.4-67.2,13.6-95.8,39.6,28,74.2,78.1,82.5,123.9Z"/>
    <path class="cls-1" d="M550.2,1149.6c-20.1,23.6-35.4,56.5-41.3,88.2,7.2-27.3,21-54.4,38.2-74.7,24.5,34.2,38.8,85,32.6,124.9,12.5-41.3-2.1-100.2-29.5-138.4Z"/>
    <path class="cls-1" d="M531.2,1024.7c11.6,40.4,7.9,93.1-11.3,128.6,25.6-34.7,31.7-95.1,18.7-140.3-26.9,15.5-52.4,41.3-68.5,69.2,16-23.3,38-44.2,61.1-57.5Z"/>
    <path class="cls-1" d="M546.3,876.4c-29.5,9.6-59.8,29.5-81.4,53.4,20.5-19.4,46.4-35.3,71.7-43.5,2.9,42-11.6,92.7-37.8,123.4,32.3-28.6,50.8-86.4,47.5-133.3Z"/>
    <path class="cls-1" d="M505.6,790.5c23.4-8.7,49.9-12.6,73.3-10.5-12.1,35.1-41.5,71.3-73.4,87.2,36.1-12.1,71.2-52.7,84.7-91.9-27.3-2.4-58.8,3.3-84.6,15.3Z"/>
    <path class="cls-1" d="M632,692.9c-23.8-7.4-52.9-8.4-78.2-2.7,22.5-3.3,46.8-1.6,67.2,4.7-17.5,28.9-50.6,55.5-82,63.4,34.4-3.8,73.4-33.2,93-65.5Z"/>
    <path class="cls-1" d="M668.6,619.4c-18.9,23.7-51.4,43.6-80.3,47.2,31.1.5,69.1-21.2,90.3-47.7-20.3-9.3-46.2-13.5-69.3-11.3,20.4-.3,41.9,3.9,59.3,11.9Z"/>
    <path class="cls-1" d="M1151.1,1704.5c4.2-1.4,8.3-2.8,12.4-4.1,321.9-103.2,627-237.6,685.4-601.6,14.9-116.7,6.1-206.9-25-291.5-30.5-83.1-80.4-163.3-152.7-255.8l-2.1.7c68.5,88.8,116.2,165.7,145.8,246.1,31.1,84.5,39.8,174.7,25,291.5-46.5,364.6-361,500.8-685.4,601.6-6.8,2.1-13.8,4.4-20.7,6.8-7-2.4-13.9-4.7-20.7-6.8-324.3-100.8-638.9-237-685.4-601.6-14.9-116.7-6.1-206.9,25-291.5,29.5-80.4,77.2-157.3,145.8-246.1l-2.1-.7c-72.3,92.5-122.2,172.7-152.7,255.8-31.1,84.5-39.8,174.7-25,291.5,58.3,364,363.4,498.4,685.4,601.6,4.1,1.3,8.3,2.7,12.4,4.1-58,21.9-117.7,53.5-158.2,93-7.8,7.6-.1,20,8.8,25.7-3.5-5.6-4.5-12.1.2-16.7,42.4-41.4,106-73.6,166.5-95.9,60.5,22.2,124.1,54.5,166.5,95.9,4.7,4.6,3.7,11.1.2,16.7,8.9-5.6,16.5-18.1,8.8-25.7-40.5-39.5-100.2-71.1-158.2-93Z"/>
    <path class="cls-1" d="M1417.2,1655c48.7,10.5,101.1,49.4,129.7,92.7-31,10.9-68.3,14.8-103,11.1,39.2,7.3,83.9,4.1,120-8.6-32-48.5-93.6-91.4-146.6-95.2Z"/>
    <path class="cls-1" d="M1544.6,1582.4c49.7,3.1,107.3,33.8,142,72.5-29,15.4-65.3,24.8-100.2,26.3,39.8,1.4,83.5-8.4,117.4-26.3-38.8-43.2-106.1-76.5-159.1-72.4Z"/>
    <path class="cls-1" d="M1672.2,1490.8c48-4.4,107.6,16.5,146.5,48.3-25.5,19-58.8,33.4-92,40,38.3-4.6,78.7-20.4,108.4-42.6-43.5-35.6-112.8-57.4-162.9-45.7Z"/>
    <path class="cls-1" d="M1770,1384.4c46.4-13.2,108.8-3.6,152.9,20.5-21.5,23.4-51.7,43.7-83,56.2,36.8-11.5,73.6-34.5,98.7-61.8-49.3-26.9-121.4-35.7-168.6-14.9Z"/>
    <path class="cls-1" d="M1834.8,1274.6c36.3-17.5,89.1-18.7,129-5.2-14.4,22.4-36.3,43.4-60.3,58.3,28.6-14.8,55.6-39,72.4-65.1-44.5-15.1-105.2-11.9-141,12Z"/>
    <path class="cls-1" d="M1949.1,1204.9c25.9-19.3,48.6-47.6,60.8-76-46.4-7.7-105.7,5.3-137.2,34.8,33-23.2,84.9-32.9,126.4-26-10.5,24.4-28.7,48.7-50,67.3Z"/>
    <path class="cls-1" d="M1884.4,1043.1c26.7-30.3,74.9-51.8,116.8-54.9-4.5,26.2-16.6,54.1-32.9,77.1,20.6-24.8,36.1-57.6,41.4-88.2-46.9,3.4-101.6,29.9-125.3,65.9Z"/>
    <path class="cls-1" d="M1878.1,923.8c19.8-35.1,62.5-66.2,102.9-77.9,1,26.6-5,56.4-16.2,82.3,15.1-28.5,23.4-63.8,22.2-94.8-45.2,13-93.2,50.3-108.9,90.4Z"/>
    <path class="cls-1" d="M1860.7,811.3c13.4-33,47.3-65,81.4-79.7,3.8,23.2,1.9,49.9-5,73.9,10-26.7,13.3-58.5,8.9-85.5-38.1,16.5-76,54.5-85.3,91.4Z"/>
    <path class="cls-1" d="M1884.1,619.5c8.5,21.9,12.1,48.5,10.2,73.3,4.3-28.1,1.1-60-8.8-85.5-33.9,23.9-63.2,68.9-64.8,106.9,6.4-35.1,33-73.3,63.4-94.7Z"/>
    <path class="cls-1" d="M1766.6,634.6c.9-32.4,19.5-70.5,43.8-94,10.7,18.5,17.7,41.9,19.4,64.5,0-25.9-7.4-54.1-19.9-75.7-27.2,26.2-47.2,70.8-43.3,105.2Z"/>
    <path class="cls-1" d="M1745.8,463.3c11.4,17,19.4,38.8,22.5,60.3-1.6-24.7-10.4-51.1-23.7-70.9-24.3,26.7-40.6,70.4-34.8,102.9-1.2-31,14.2-68.4,35.9-92.3Z"/>
    <path class="cls-1" d="M1630,540.7c-21.9-21.9-36.2-59.8-36.6-92.1,19.9,4.7,40.7,15.2,57.6,28.8-18-17-42.4-30.4-65.6-35.8.4,36.1,18.2,79.2,44.6,99.1Z"/>
    <path class="cls-1" d="M1427.1,1430.2c3.5,32.7-1.2,69.9-12.8,102.8,16.1-36.4,23.2-80.7,19.1-118.8-54.5,20-110.4,70.1-126.3,120.9,21.4-45,71.2-87,120-104.9Z"/>
    <path class="cls-1" d="M1546.9,1361.9c7.9,29.6,8.8,64.6,2.8,96.7,9.6-35.9,10-77.7.8-112.3-47.5,26.2-91.9,80.4-99.4,129.5,13.3-44.6,53.4-90.4,95.8-113.9Z"/>
    <path class="cls-1" d="M1657.6,1273.5c11.2,28.6,16,63.3,13.6,95.8,5.6-36.8,1.2-78.4-11.8-111.7-44.2,31.3-82.3,90.2-84.2,139.8,8.2-45.8,42.9-95.8,82.5-123.9Z"/>
    <path class="cls-1" d="M1758.8,1237.8c-5.8-31.7-21.2-64.6-41.3-88.2-27.4,38.2-42,97.2-29.5,138.4-6.2-39.9,8.1-90.7,32.6-124.9,17.2,20.3,31,47.3,38.2,74.7Z"/>
    <path class="cls-1" d="M1797.6,1082.2c-16.2-27.9-41.6-53.7-68.5-69.2-13,45.2-6.9,105.6,18.7,140.3-19.2-35.5-22.9-88.1-11.3-128.6,23.1,13.3,45.1,34.2,61.1,57.5Z"/>
    <path class="cls-1" d="M1802.9,929.9c-21.6-23.9-51.9-43.9-81.4-53.4-3.3,46.9,15.3,104.8,47.5,133.3-26.2-30.7-40.7-81.4-37.8-123.4,25.3,8.2,51.2,24,71.7,43.5Z"/>
    <path class="cls-1" d="M1762.1,790.5c-25.8-12-57.3-17.7-84.6-15.3,13.6,39.2,48.6,79.8,84.7,91.9-31.9-15.9-61.3-52.1-73.4-87.2,23.4-2.1,49.9,1.8,73.3,10.5Z"/>
    <path class="cls-1" d="M1713.9,690.2c-25.3-5.7-54.4-4.7-78.2,2.7,19.6,32.3,58.6,61.7,93,65.5-31.4-8-64.5-34.6-82-63.4,20.4-6.4,44.8-8,67.2-4.7Z"/>
    <path class="cls-1" d="M1658.5,607.6c-23.2-2.2-49,2-69.3,11.3,21.1,26.5,59.2,48.2,90.3,47.7-28.9-3.5-61.4-23.4-80.3-47.2,17.5-8,38.9-12.2,59.3-11.9Z"/>
  </g>
</svg>